<ttFont>
    <TTGlyph name="A" xMin="10" yMin="0" xMax="545" yMax="638">
      <contour>
        <pt x="522" y="52" on="1"/>
        <pt x="545" y="52" on="0"/>
        <pt x="545" y="0" on="0"/>
        <pt x="522" y="0" on="1"/>
        <pt x="412" y="0" on="1"/>
        <pt x="388" y="0" on="0"/>
        <pt x="388" y="52" on="0"/>
        <pt x="412" y="52" on="1"/>
        <pt x="435" y="52" on="1"/>
        <pt x="406" y="143" on="1"/>
        <pt x="139" y="143" on="1"/>
        <pt x="111" y="52" on="1"/>
        <pt x="135" y="52" on="1"/>
        <pt x="159" y="52" on="0"/>
        <pt x="159" y="0" on="0"/>
        <pt x="135" y="0" on="1"/>
        <pt x="34" y="0" on="1"/>
        <pt x="10" y="0" on="0"/>
        <pt x="10" y="52" on="0"/>
        <pt x="34" y="52" on="1"/>
        <pt x="59" y="52" on="1"/>
        <pt x="225" y="585" on="1"/>
        <pt x="185" y="585" on="1"/>
        <pt x="162" y="585" on="0"/>
        <pt x="162" y="638" on="0"/>
        <pt x="185" y="638" on="1"/>
        <pt x="288" y="638" on="1"/>
        <pt x="310" y="638" on="0"/>
        <pt x="315" y="624" on="1"/>
        <pt x="497" y="52" on="1"/>
      </contour>
      <contour>
        <pt x="152" y="191" on="1"/>
        <pt x="394" y="191" on="1"/>
        <pt x="272" y="581" on="1"/>
      </contour>
    </TTGlyph>
    <TTGlyph name="AE" xMin="5" yMin="0" xMax="819" yMax="638">
      <contour>
        <pt x="458" y="52" on="1"/>
        <pt x="680" y="52" on="1"/>
        <pt x="783" y="152" on="1"/>
        <pt x="790" y="159" on="0"/>
        <pt x="798" y="159" on="1"/>
        <pt x="819" y="159" on="0"/>
        <pt x="819" y="141" on="1"/>
        <pt x="819" y="135" on="0"/>
        <pt x="813" y="125" on="1"/>
        <pt x="741" y="13" on="1"/>
        <pt x="733" y="0" on="0"/>
        <pt x="714" y="0" on="1"/>
        <pt x="381" y="0" on="1"/>
        <pt x="357" y="0" on="0"/>
        <pt x="357" y="52" on="0"/>
        <pt x="381" y="52" on="1"/>
        <pt x="404" y="52" on="1"/>
        <pt x="404" y="143" on="1"/>
        <pt x="158" y="143" on="1"/>
        <pt x="106" y="52" on="1"/>
        <pt x="130" y="52" on="1"/>
        <pt x="154" y="52" on="0"/>
        <pt x="154" y="0" on="0"/>
        <pt x="130" y="0" on="1"/>
        <pt x="29" y="0" on="1"/>
        <pt x="5" y="0" on="0"/>
        <pt x="5" y="52" on="0"/>
        <pt x="29" y="52" on="1"/>
        <pt x="54" y="52" on="1"/>
        <pt x="357" y="585" on="1"/>
        <pt x="317" y="585" on="1"/>
        <pt x="294" y="585" on="0"/>
        <pt x="294" y="638" on="0"/>
        <pt x="317" y="638" on="1"/>
        <pt x="614" y="638" on="1"/>
        <pt x="633" y="638" on="0"/>
        <pt x="643" y="628" on="1"/>
        <pt x="706" y="555" on="1"/>
        <pt x="713" y="547" on="0"/>
        <pt x="713" y="531" on="0"/>
        <pt x="702" y="520" on="0"/>
        <pt x="682" y="520" on="0"/>
        <pt x="674" y="528" on="1"/>
        <pt x="603" y="590" on="1"/>
        <pt x="458" y="590" on="1"/>
        <pt x="458" y="477" on="1"/>
        <pt x="563" y="477" on="1"/>
        <pt x="557" y="486" on="0"/>
        <pt x="557" y="506" on="0"/>
        <pt x="572" y="521" on="0"/>
        <pt x="598" y="521" on="0"/>
        <pt x="605" y="510" on="1"/>
        <pt x="648" y="439" on="1"/>
        <pt x="652" y="432" on="0"/>
        <pt x="652" y="416" on="0"/>
        <pt x="641" y="403" on="0"/>
        <pt x="620" y="403" on="0"/>
        <pt x="612" y="414" on="1"/>
        <pt x="599" y="429" on="1"/>
        <pt x="458" y="429" on="1"/>
      </contour>
      <contour>
        <pt x="404" y="191" on="1"/>
        <pt x="404" y="580" on="1"/>
        <pt x="185" y="191" on="1"/>
      </contour>
    </TTGlyph>
    <TTGlyph name="AEacute" xMin="5" yMin="0" xMax="819" yMax="817">
      <contour>
        <pt x="458" y="52" on="1"/>
        <pt x="680" y="52" on="1"/>
        <pt x="783" y="152" on="1"/>
        <pt x="790" y="159" on="0"/>
        <pt x="798" y="159" on="1"/>
        <pt x="819" y="159" on="0"/>
        <pt x="819" y="141" on="1"/>
        <pt x="819" y="135" on="0"/>
        <pt x="813" y="125" on="1"/>
        <pt x="741" y="13" on="1"/>
        <pt x="733" y="0" on="0"/>
        <pt x="714" y="0" on="1"/>
        <pt x="381" y="0" on="1"/>
        <pt x="357" y="0" on="0"/>
        <pt x="357" y="52" on="0"/>
        <pt x="381" y="52" on="1"/>
        <pt x="404" y="52" on="1"/>
        <pt x="404" y="143" on="1"/>
        <pt x="158" y="143" on="1"/>
        <pt x="106" y="52" on="1"/>
        <pt x="130" y="52" on="1"/>
        <pt x="154" y="52" on="0"/>
        <pt x="154" y="0" on="0"/>
        <pt x="130" y="0" on="1"/>
        <pt x="29" y="0" on="1"/>
        <pt x="5" y="0" on="0"/>
        <pt x="5" y="52" on="0"/>
        <pt x="29" y="52" on="1"/>
        <pt x="54" y="52" on="1"/>
        <pt x="357" y="585" on="1"/>
        <pt x="317" y="585" on="1"/>
        <pt x="294" y="585" on="0"/>
        <pt x="294" y="638" on="0"/>
        <pt x="317" y="638" on="1"/>
        <pt x="614" y="638" on="1"/>
        <pt x="633" y="638" on="0"/>
        <pt x="643" y="628" on="1"/>
        <pt x="706" y="555" on="1"/>
        <pt x="713" y="547" on="0"/>
        <pt x="713" y="531" on="0"/>
        <pt x="702" y="520" on="0"/>
        <pt x="682" y="520" on="0"/>
        <pt x="674" y="528" on="1"/>
        <pt x="603" y="590" on="1"/>
        <pt x="458" y="590" on="1"/>
        <pt x="458" y="477" on="1"/>
        <pt x="563" y="477" on="1"/>
        <pt x="557" y="486" on="0"/>
        <pt x="557" y="506" on="0"/>
        <pt x="572" y="521" on="0"/>
        <pt x="598" y="521" on="0"/>
        <pt x="605" y="510" on="1"/>
        <pt x="648" y="439" on="1"/>
        <pt x="652" y="432" on="0"/>
        <pt x="652" y="416" on="0"/>
        <pt x="641" y="403" on="0"/>
        <pt x="620" y="403" on="0"/>
        <pt x="612" y="414" on="1"/>
        <pt x="599" y="429" on="1"/>
        <pt x="458" y="429" on="1"/>
      </contour>
      <contour>
        <pt x="404" y="191" on="1"/>
        <pt x="404" y="580" on="1"/>
        <pt x="185" y="191" on="1"/>
      </contour>
      <contour>
        <pt x="439" y="668" on="1"/>
        <pt x="426" y="668" on="0"/>
        <pt x="426" y="681" on="1"/>
        <pt x="426" y="683" on="0"/>
        <pt x="428" y="687" on="1"/>
        <pt x="491" y="795" on="1"/>
        <pt x="503" y="817" on="0"/>
        <pt x="538" y="817" on="0"/>
        <pt x="557" y="800" on="0"/>
        <pt x="557" y="772" on="0"/>
        <pt x="541" y="757" on="1"/>
        <pt x="449" y="672" on="1"/>
        <pt x="445" y="668" on="0"/>
      </contour>
    </TTGlyph>
    <TTGlyph name="Aacute" xMin="10" yMin="0" xMax="545" yMax="817">
      <contour>
        <pt x="522" y="52" on="1"/>
        <pt x="545" y="52" on="0"/>
        <pt x="545" y="0" on="0"/>
        <pt x="522" y="0" on="1"/>
        <pt x="412" y="0" on="1"/>
        <pt x="388" y="0" on="0"/>
        <pt x="388" y="52" on="0"/>
        <pt x="412" y="52" on="1"/>
        <pt x="435" y="52" on="1"/>
        <pt x="406" y="143" on="1"/>
        <pt x="139" y="143" on="1"/>
        <pt x="111" y="52" on="1"/>
        <pt x="135" y="52" on="1"/>
        <pt x="159" y="52" on="0"/>
        <pt x="159" y="0" on="0"/>
        <pt x="135" y="0" on="1"/>
        <pt x="34" y="0" on="1"/>
        <pt x="10" y="0" on="0"/>
        <pt x="10" y="52" on="0"/>
        <pt x="34" y="52" on="1"/>
        <pt x="59" y="52" on="1"/>
        <pt x="225" y="585" on="1"/>
        <pt x="185" y="585" on="1"/>
        <pt x="162" y="585" on="0"/>
        <pt x="162" y="638" on="0"/>
        <pt x="185" y="638" on="1"/>
        <pt x="288" y="638" on="1"/>
        <pt x="310" y="638" on="0"/>
        <pt x="315" y="624" on="1"/>
        <pt x="497" y="52" on="1"/>
      </contour>
      <contour>
        <pt x="152" y="191" on="1"/>
        <pt x="394" y="191" on="1"/>
        <pt x="272" y="581" on="1"/>
      </contour>
      <contour>
        <pt x="193" y="668" on="1"/>
        <pt x="180" y="668" on="0"/>
        <pt x="180" y="681" on="1"/>
        <pt x="180" y="683" on="0"/>
        <pt x="182" y="687" on="1"/>
        <pt x="245" y="795" on="1"/>
        <pt x="257" y="817" on="0"/>
        <pt x="292" y="817" on="0"/>
        <pt x="311" y="800" on="0"/>
        <pt x="311" y="772" on="0"/>
        <pt x="295" y="757" on="1"/>
        <pt x="203" y="672" on="1"/>
        <pt x="199" y="668" on="0"/>
      </contour>
    </TTGlyph>
    <TTGlyph name="Abreve" xMin="10" yMin="0" xMax="545" yMax="816">
      <contour>
        <pt x="522" y="52" on="1"/>
        <pt x="545" y="52" on="0"/>
        <pt x="545" y="0" on="0"/>
        <pt x="522" y="0" on="1"/>
        <pt x="412" y="0" on="1"/>
        <pt x="388" y="0" on="0"/>
        <pt x="388" y="52" on="0"/>
        <pt x="412" y="52" on="1"/>
        <pt x="435" y="52" on="1"/>
        <pt x="406" y="143" on="1"/>
        <pt x="139" y="143" on="1"/>
        <pt x="111" y="52" on="1"/>
        <pt x="135" y="52" on="1"/>
        <pt x="159" y="52" on="0"/>
        <pt x="159" y="0" on="0"/>
        <pt x="135" y="0" on="1"/>
        <pt x="34" y="0" on="1"/>
        <pt x="10" y="0" on="0"/>
        <pt x="10" y="52" on="0"/>
        <pt x="34" y="52" on="1"/>
        <pt x="59" y="52" on="1"/>
        <pt x="225" y="585" on="1"/>
        <pt x="185" y="585" on="1"/>
        <pt x="162" y="585" on="0"/>
        <pt x="162" y="638" on="0"/>
        <pt x="185" y="638" on="1"/>
        <pt x="288" y="638" on="1"/>
        <pt x="310" y="638" on="0"/>
        <pt x="315" y="624" on="1"/>
        <pt x="497" y="52" on="1"/>
      </contour>
      <contour>
        <pt x="152" y="191" on="1"/>
        <pt x="394" y="191" on="1"/>
        <pt x="272" y="581" on="1"/>
      </contour>
      <contour>
        <pt x="390" y="727" on="0"/>
        <pt x="318" y="672" on="0"/>
        <pt x="187" y="672" on="0"/>
        <pt x="115" y="727" on="0"/>
        <pt x="115" y="769" on="1"/>
        <pt x="115" y="793" on="0"/>
        <pt x="137" y="816" on="0"/>
        <pt x="150" y="816" on="1"/>
        <pt x="175" y="816" on="0"/>
        <pt x="175" y="788" on="1"/>
        <pt x="175" y="782" on="0"/>
        <pt x="163" y="762" on="0"/>
        <pt x="155" y="758" on="1"/>
        <pt x="159" y="718" on="0"/>
        <pt x="346" y="718" on="0"/>
        <pt x="350" y="758" on="1"/>
        <pt x="342" y="762" on="0"/>
        <pt x="330" y="782" on="0"/>
        <pt x="330" y="788" on="1"/>
        <pt x="330" y="816" on="0"/>
        <pt x="355" y="816" on="1"/>
        <pt x="368" y="816" on="0"/>
        <pt x="390" y="793" on="0"/>
        <pt x="390" y="769" on="1"/>
      </contour>
    </TTGlyph>
    <TTGlyph name="Acircumflex" xMin="10" yMin="0" xMax="545" yMax="806">
      <contour>
        <pt x="522" y="52" on="1"/>
        <pt x="545" y="52" on="0"/>
        <pt x="545" y="0" on="0"/>
        <pt x="522" y="0" on="1"/>
        <pt x="412" y="0" on="1"/>
        <pt x="388" y="0" on="0"/>
        <pt x="388" y="52" on="0"/>
        <pt x="412" y="52" on="1"/>
        <pt x="435" y="52" on="1"/>
        <pt x="406" y="143" on="1"/>
        <pt x="139" y="143" on="1"/>
        <pt x="111" y="52" on="1"/>
        <pt x="135" y="52" on="1"/>
        <pt x="159" y="52" on="0"/>
        <pt x="159" y="0" on="0"/>
        <pt x="135" y="0" on="1"/>
        <pt x="34" y="0" on="1"/>
        <pt x="10" y="0" on="0"/>
        <pt x="10" y="52" on="0"/>
        <pt x="34" y="52" on="1"/>
        <pt x="59" y="52" on="1"/>
        <pt x="225" y="585" on="1"/>
        <pt x="185" y="585" on="1"/>
        <pt x="162" y="585" on="0"/>
        <pt x="162" y="638" on="0"/>
        <pt x="185" y="638" on="1"/>
        <pt x="288" y="638" on="1"/>
        <pt x="310" y="638" on="0"/>
        <pt x="315" y="624" on="1"/>
        <pt x="497" y="52" on="1"/>
      </contour>
      <contour>
        <pt x="152" y="191" on="1"/>
        <pt x="394" y="191" on="1"/>
        <pt x="272" y="581" on="1"/>
      </contour>
      <contour>
        <pt x="373" y="716" on="1"/>
        <pt x="382" y="708" on="0"/>
        <pt x="382" y="688" on="0"/>
        <pt x="368" y="676" on="0"/>
        <pt x="348" y="676" on="0"/>
        <pt x="339" y="682" on="1"/>
        <pt x="250" y="747" on="1"/>
        <pt x="162" y="682" on="1"/>
        <pt x="155" y="676" on="0"/>
        <pt x="134" y="676" on="0"/>
        <pt x="120" y="689" on="0"/>
        <pt x="120" y="711" on="0"/>
        <pt x="128" y="716" on="1"/>
        <pt x="250" y="806" on="1"/>
      </contour>
    </TTGlyph>
    <TTGlyph name="Adieresis" xMin="10" yMin="0" xMax="545" yMax="765">
      <contour>
        <pt x="522" y="52" on="1"/>
        <pt x="545" y="52" on="0"/>
        <pt x="545" y="0" on="0"/>
        <pt x="522" y="0" on="1"/>
        <pt x="412" y="0" on="1"/>
        <pt x="388" y="0" on="0"/>
        <pt x="388" y="52" on="0"/>
        <pt x="412" y="52" on="1"/>
        <pt x="435" y="52" on="1"/>
        <pt x="406" y="143" on="1"/>
        <pt x="139" y="143" on="1"/>
        <pt x="111" y="52" on="1"/>
        <pt x="135" y="52" on="1"/>
        <pt x="159" y="52" on="0"/>
        <pt x="159" y="0" on="0"/>
        <pt x="135" y="0" on="1"/>
        <pt x="34" y="0" on="1"/>
        <pt x="10" y="0" on="0"/>
        <pt x="10" y="52" on="0"/>
        <pt x="34" y="52" on="1"/>
        <pt x="59" y="52" on="1"/>
        <pt x="225" y="585" on="1"/>
        <pt x="185" y="585" on="1"/>
        <pt x="162" y="585" on="0"/>
        <pt x="162" y="638" on="0"/>
        <pt x="185" y="638" on="1"/>
        <pt x="288" y="638" on="1"/>
        <pt x="310" y="638" on="0"/>
        <pt x="315" y="624" on="1"/>
        <pt x="497" y="52" on="1"/>
      </contour>
      <contour>
        <pt x="152" y="191" on="1"/>
        <pt x="394" y="191" on="1"/>
        <pt x="272" y="581" on="1"/>
      </contour>
      <contour>
        <pt x="181" y="765" on="0"/>
        <pt x="206" y="742" on="0"/>
        <pt x="206" y="707" on="0"/>
        <pt x="180" y="683" on="0"/>
        <pt x="144" y="683" on="0"/>
        <pt x="120" y="707" on="0"/>
        <pt x="120" y="742" on="0"/>
        <pt x="144" y="765" on="0"/>
      </contour>
      <contour>
        <pt x="372" y="765" on="0"/>
        <pt x="397" y="742" on="0"/>
        <pt x="397" y="707" on="0"/>
        <pt x="371" y="683" on="0"/>
        <pt x="335" y="683" on="0"/>
        <pt x="311" y="707" on="0"/>
        <pt x="311" y="742" on="0"/>
        <pt x="335" y="765" on="0"/>
      </contour>
    </TTGlyph>
    <TTGlyph name="Agrave" xMin="10" yMin="0" xMax="545" yMax="817">
      <contour>
        <pt x="522" y="52" on="1"/>
        <pt x="545" y="52" on="0"/>
        <pt x="545" y="0" on="0"/>
        <pt x="522" y="0" on="1"/>
        <pt x="412" y="0" on="1"/>
        <pt x="388" y="0" on="0"/>
        <pt x="388" y="52" on="0"/>
        <pt x="412" y="52" on="1"/>
        <pt x="435" y="52" on="1"/>
        <pt x="406" y="143" on="1"/>
        <pt x="139" y="143" on="1"/>
        <pt x="111" y="52" on="1"/>
        <pt x="135" y="52" on="1"/>
        <pt x="159" y="52" on="0"/>
        <pt x="159" y="0" on="0"/>
        <pt x="135" y="0" on="1"/>
        <pt x="34" y="0" on="1"/>
        <pt x="10" y="0" on="0"/>
        <pt x="10" y="52" on="0"/>
        <pt x="34" y="52" on="1"/>
        <pt x="59" y="52" on="1"/>
        <pt x="225" y="585" on="1"/>
        <pt x="185" y="585" on="1"/>
        <pt x="162" y="585" on="0"/>
        <pt x="162" y="638" on="0"/>
        <pt x="185" y="638" on="1"/>
        <pt x="288" y="638" on="1"/>
        <pt x="310" y="638" on="0"/>
        <pt x="315" y="624" on="1"/>
        <pt x="497" y="52" on="1"/>
      </contour>
      <contour>
        <pt x="152" y="191" on="1"/>
        <pt x="394" y="191" on="1"/>
        <pt x="272" y="581" on="1"/>
      </contour>
      <contour>
        <pt x="297" y="668" on="1"/>
        <pt x="291" y="668" on="0"/>
        <pt x="287" y="672" on="1"/>
        <pt x="195" y="757" on="1"/>
        <pt x="179" y="772" on="0"/>
        <pt x="179" y="800" on="0"/>
        <pt x="198" y="817" on="0"/>
        <pt x="233" y="817" on="0"/>
        <pt x="245" y="795" on="1"/>
        <pt x="308" y="687" on="1"/>
        <pt x="310" y="683" on="0"/>
        <pt x="310" y="681" on="1"/>
        <pt x="310" y="668" on="0"/>
      </contour>
    </TTGlyph>
    <TTGlyph name="Amacron" xMin="10" yMin="0" xMax="545" yMax="748">
      <contour>
        <pt x="522" y="52" on="1"/>
        <pt x="545" y="52" on="0"/>
        <pt x="545" y="0" on="0"/>
        <pt x="522" y="0" on="1"/>
        <pt x="412" y="0" on="1"/>
        <pt x="388" y="0" on="0"/>
        <pt x="388" y="52" on="0"/>
        <pt x="412" y="52" on="1"/>
        <pt x="435" y="52" on="1"/>
        <pt x="406" y="143" on="1"/>
        <pt x="139" y="143" on="1"/>
        <pt x="111" y="52" on="1"/>
        <pt x="135" y="52" on="1"/>
        <pt x="159" y="52" on="0"/>
        <pt x="159" y="0" on="0"/>
        <pt x="135" y="0" on="1"/>
        <pt x="34" y="0" on="1"/>
        <pt x="10" y="0" on="0"/>
        <pt x="10" y="52" on="0"/>
        <pt x="34" y="52" on="1"/>
        <pt x="59" y="52" on="1"/>
        <pt x="225" y="585" on="1"/>
        <pt x="185" y="585" on="1"/>
        <pt x="162" y="585" on="0"/>
        <pt x="162" y="638" on="0"/>
        <pt x="185" y="638" on="1"/>
        <pt x="288" y="638" on="1"/>
        <pt x="310" y="638" on="0"/>
        <pt x="315" y="624" on="1"/>
        <pt x="497" y="52" on="1"/>
      </contour>
      <contour>
        <pt x="152" y="191" on="1"/>
        <pt x="394" y="191" on="1"/>
        <pt x="272" y="581" on="1"/>
      </contour>
      <contour>
        <pt x="339" y="699" on="1"/>
        <pt x="165" y="699" on="1"/>
        <pt x="143" y="699" on="0"/>
        <pt x="143" y="748" on="0"/>
        <pt x="165" y="748" on="1"/>
        <pt x="339" y="748" on="1"/>
        <pt x="362" y="748" on="0"/>
        <pt x="362" y="699" on="0"/>
      </contour>
    </TTGlyph>
    <TTGlyph name="Aogonek" xMin="10" yMin="-172" xMax="545" yMax="638">
      <contour>
        <pt x="522" y="52" on="1"/>
        <pt x="545" y="52" on="0"/>
        <pt x="545" y="0" on="0"/>
        <pt x="522" y="0" on="1"/>
        <pt x="506" y="0" on="1"/>
        <pt x="430" y="-48" on="0"/>
        <pt x="430" y="-95" on="1"/>
        <pt x="430" y="-114" on="0"/>
        <pt x="449" y="-138" on="0"/>
        <pt x="470" y="-138" on="0"/>
        <pt x="474" y="-136" on="1"/>
        <pt x="470" y="-128" on="0"/>
        <pt x="470" y="-118" on="1"/>
        <pt x="470" y="-87" on="0"/>
        <pt x="497" y="-87" on="1"/>
        <pt x="511" y="-87" on="0"/>
        <pt x="525" y="-108" on="0"/>
        <pt x="525" y="-142" on="0"/>
        <pt x="489" y="-172" on="0"/>
        <pt x="430" y="-172" on="0"/>
        <pt x="387" y="-127" on="0"/>
        <pt x="387" y="-96" on="1"/>
        <pt x="387" y="-39" on="0"/>
        <pt x="451" y="0" on="1"/>
        <pt x="412" y="0" on="1"/>
        <pt x="388" y="0" on="0"/>
        <pt x="388" y="52" on="0"/>
        <pt x="412" y="52" on="1"/>
        <pt x="435" y="52" on="1"/>
        <pt x="406" y="143" on="1"/>
        <pt x="139" y="143" on="1"/>
        <pt x="111" y="52" on="1"/>
        <pt x="135" y="52" on="1"/>
        <pt x="159" y="52" on="0"/>
        <pt x="159" y="0" on="0"/>
        <pt x="135" y="0" on="1"/>
        <pt x="34" y="0" on="1"/>
        <pt x="10" y="0" on="0"/>
        <pt x="10" y="52" on="0"/>
        <pt x="34" y="52" on="1"/>
        <pt x="59" y="52" on="1"/>
        <pt x="225" y="585" on="1"/>
        <pt x="185" y="585" on="1"/>
        <pt x="162" y="585" on="0"/>
        <pt x="162" y="638" on="0"/>
        <pt x="185" y="638" on="1"/>
        <pt x="288" y="638" on="1"/>
        <pt x="310" y="638" on="0"/>
        <pt x="315" y="624" on="1"/>
        <pt x="497" y="52" on="1"/>
      </contour>
      <contour>
        <pt x="152" y="191" on="1"/>
        <pt x="394" y="191" on="1"/>
        <pt x="272" y="581" on="1"/>
      </contour>
    </TTGlyph>
    <TTGlyph name="Aring" xMin="10" yMin="0" xMax="545" yMax="834">
      <contour>
        <pt x="522" y="52" on="1"/>
        <pt x="545" y="52" on="0"/>
        <pt x="545" y="0" on="0"/>
        <pt x="522" y="0" on="1"/>
        <pt x="412" y="0" on="1"/>
        <pt x="388" y="0" on="0"/>
        <pt x="388" y="52" on="0"/>
        <pt x="412" y="52" on="1"/>
        <pt x="435" y="52" on="1"/>
        <pt x="406" y="143" on="1"/>
        <pt x="139" y="143" on="1"/>
        <pt x="111" y="52" on="1"/>
        <pt x="135" y="52" on="1"/>
        <pt x="159" y="52" on="0"/>
        <pt x="159" y="0" on="0"/>
        <pt x="135" y="0" on="1"/>
        <pt x="34" y="0" on="1"/>
        <pt x="10" y="0" on="0"/>
        <pt x="10" y="52" on="0"/>
        <pt x="34" y="52" on="1"/>
        <pt x="59" y="52" on="1"/>
        <pt x="225" y="585" on="1"/>
        <pt x="185" y="585" on="1"/>
        <pt x="162" y="585" on="0"/>
        <pt x="162" y="638" on="0"/>
        <pt x="185" y="638" on="1"/>
        <pt x="288" y="638" on="1"/>
        <pt x="310" y="638" on="0"/>
        <pt x="315" y="624" on="1"/>
        <pt x="497" y="52" on="1"/>
      </contour>
      <contour>
        <pt x="152" y="191" on="1"/>
        <pt x="394" y="191" on="1"/>
        <pt x="272" y="581" on="1"/>
      </contour>
      <contour>
        <pt x="215" y="668" on="0"/>
        <pt x="170" y="715" on="0"/>
        <pt x="170" y="787" on="0"/>
        <pt x="213" y="834" on="0"/>
        <pt x="297" y="834" on="0"/>
        <pt x="341" y="786" on="0"/>
        <pt x="341" y="715" on="0"/>
        <pt x="297" y="668" on="0"/>
      </contour>
      <contour>
        <pt x="296" y="750" on="1"/>
        <pt x="296" y="773" on="0"/>
        <pt x="274" y="804" on="0"/>
        <pt x="255" y="804" on="1"/>
        <pt x="215" y="804" on="0"/>
        <pt x="215" y="698" on="0"/>
        <pt x="296" y="698" on="0"/>
      </contour>
    </TTGlyph>
    <TTGlyph name="Atilde" xMin="10" yMin="0" xMax="545" yMax="789">
      <contour>
        <pt x="522" y="52" on="1"/>
        <pt x="545" y="52" on="0"/>
        <pt x="545" y="0" on="0"/>
        <pt x="522" y="0" on="1"/>
        <pt x="412" y="0" on="1"/>
        <pt x="388" y="0" on="0"/>
        <pt x="388" y="52" on="0"/>
        <pt x="412" y="52" on="1"/>
        <pt x="435" y="52" on="1"/>
        <pt x="406" y="143" on="1"/>
        <pt x="139" y="143" on="1"/>
        <pt x="111" y="52" on="1"/>
        <pt x="135" y="52" on="1"/>
        <pt x="159" y="52" on="0"/>
        <pt x="159" y="0" on="0"/>
        <pt x="135" y="0" on="1"/>
        <pt x="34" y="0" on="1"/>
        <pt x="10" y="0" on="0"/>
        <pt x="10" y="52" on="0"/>
        <pt x="34" y="52" on="1"/>
        <pt x="59" y="52" on="1"/>
        <pt x="225" y="585" on="1"/>
        <pt x="185" y="585" on="1"/>
        <pt x="162" y="585" on="0"/>
        <pt x="162" y="638" on="0"/>
        <pt x="185" y="638" on="1"/>
        <pt x="288" y="638" on="1"/>
        <pt x="310" y="638" on="0"/>
        <pt x="315" y="624" on="1"/>
        <pt x="497" y="52" on="1"/>
      </contour>
      <contour>
        <pt x="152" y="191" on="1"/>
        <pt x="394" y="191" on="1"/>
        <pt x="272" y="581" on="1"/>
      </contour>
      <contour>
        <pt x="129" y="679" on="0"/>
        <pt x="107" y="706" on="0"/>
        <pt x="107" y="756" on="0"/>
        <pt x="156" y="789" on="0"/>
        <pt x="210" y="789" on="0"/>
        <pt x="257" y="769" on="0"/>
        <pt x="279" y="751" on="0"/>
        <pt x="297" y="734" on="1"/>
        <pt x="324" y="705" on="0"/>
        <pt x="349" y="705" on="0"/>
        <pt x="366" y="720" on="0"/>
        <pt x="367" y="731" on="1"/>
        <pt x="352" y="741" on="0"/>
        <pt x="352" y="759" on="1"/>
        <pt x="352" y="783" on="0"/>
        <pt x="375" y="783" on="1"/>
        <pt x="389" y="783" on="0"/>
        <pt x="413" y="760" on="0"/>
        <pt x="413" y="707" on="0"/>
        <pt x="365" y="673" on="0"/>
        <pt x="310" y="673" on="0"/>
        <pt x="266" y="692" on="0"/>
        <pt x="247" y="710" on="0"/>
        <pt x="231" y="727" on="1"/>
        <pt x="203" y="759" on="0"/>
        <pt x="180" y="759" on="1"/>
        <pt x="170" y="759" on="0"/>
        <pt x="153" y="745" on="0"/>
        <pt x="152" y="734" on="1"/>
        <pt x="167" y="724" on="0"/>
        <pt x="167" y="679" on="0"/>
        <pt x="145" y="679" on="1"/>
      </contour>
    </TTGlyph>
    <TTGlyph name="B" xMin="25" yMin="0" xMax="426" yMax="638">
      <contour>
        <pt x="73" y="585" on="1"/>
        <pt x="49" y="585" on="1"/>
        <pt x="25" y="585" on="0"/>
        <pt x="25" y="638" on="0"/>
        <pt x="49" y="638" on="1"/>
        <pt x="166" y="638" on="1"/>
        <pt x="363" y="638" on="0"/>
        <pt x="363" y="529" on="1"/>
        <pt x="363" y="495" on="0"/>
        <pt x="331" y="445" on="0"/>
        <pt x="303" y="438" on="1"/>
        <pt x="355" y="426" on="0"/>
        <pt x="426" y="306" on="0"/>
        <pt x="426" y="232" on="1"/>
        <pt x="426" y="132" on="0"/>
        <pt x="309" y="0" on="0"/>
        <pt x="181" y="0" on="1"/>
        <pt x="49" y="0" on="1"/>
        <pt x="39" y="0" on="0"/>
        <pt x="25" y="15" on="0"/>
        <pt x="25" y="26" on="1"/>
        <pt x="25" y="52" on="0"/>
        <pt x="49" y="52" on="1"/>
        <pt x="73" y="52" on="1"/>
      </contour>
      <contour>
        <pt x="130" y="461" on="1"/>
        <pt x="203" y="461" on="1"/>
        <pt x="255" y="461" on="0"/>
        <pt x="312" y="488" on="0"/>
        <pt x="312" y="524" on="1"/>
        <pt x="312" y="594" on="0"/>
        <pt x="183" y="594" on="1"/>
        <pt x="130" y="594" on="0"/>
        <pt x="130" y="586" on="1"/>
      </contour>
      <contour>
        <pt x="130" y="412" on="1"/>
        <pt x="130" y="53" on="1"/>
        <pt x="130" y="45" on="0"/>
        <pt x="178" y="45" on="1"/>
        <pt x="275" y="45" on="0"/>
        <pt x="369" y="139" on="0"/>
        <pt x="369" y="325" on="0"/>
        <pt x="274" y="412" on="0"/>
        <pt x="200" y="412" on="1"/>
      </contour>
    </TTGlyph>
    <TTGlyph name="C" xMin="15" yMin="-10" xMax="486" yMax="648">
      <contour>
        <pt x="428" y="156" on="0"/>
        <pt x="448" y="171" on="0"/>
        <pt x="469" y="171" on="0"/>
        <pt x="486" y="152" on="0"/>
        <pt x="486" y="141" on="1"/>
        <pt x="486" y="92" on="0"/>
        <pt x="362" y="-10" on="0"/>
        <pt x="280" y="-10" on="1"/>
        <pt x="166" y="-10" on="0"/>
        <pt x="15" y="159" on="0"/>
        <pt x="15" y="473" on="0"/>
        <pt x="168" y="648" on="0"/>
        <pt x="271" y="648" on="1"/>
        <pt x="325" y="648" on="0"/>
        <pt x="406" y="604" on="0"/>
        <pt x="406" y="560" on="1"/>
        <pt x="406" y="544" on="0"/>
        <pt x="387" y="520" on="0"/>
        <pt x="345" y="520" on="0"/>
        <pt x="308" y="556" on="0"/>
        <pt x="308" y="576" on="1"/>
        <pt x="308" y="580" on="0"/>
        <pt x="313" y="593" on="1"/>
        <pt x="297" y="600" on="0"/>
        <pt x="267" y="600" on="1"/>
        <pt x="190" y="600" on="0"/>
        <pt x="74" y="442" on="0"/>
        <pt x="74" y="325" on="1"/>
        <pt x="74" y="258" on="0"/>
        <pt x="120" y="130" on="0"/>
        <pt x="215" y="40" on="0"/>
        <pt x="327" y="40" on="0"/>
        <pt x="411" y="101" on="0"/>
        <pt x="425" y="146" on="1"/>
      </contour>
    </TTGlyph>
    <TTGlyph name="C_H" xMin="10" yMin="-7" xMax="842" yMax="643">
      <contour>
        <pt x="519" y="0" on="1"/>
        <pt x="463" y="0" on="1"/>
        <pt x="451" y="0" on="0"/>
        <pt x="441" y="9" on="0"/>
        <pt x="441" y="22" on="1"/>
        <pt x="441" y="65" on="1"/>
        <pt x="379" y="-7" on="0"/>
        <pt x="170" y="-7" on="0"/>
        <pt x="10" y="173" on="0"/>
        <pt x="10" y="481" on="0"/>
        <pt x="140" y="643" on="0"/>
        <pt x="238" y="643" on="1"/>
        <pt x="290" y="643" on="0"/>
        <pt x="372" y="599" on="0"/>
        <pt x="372" y="516" on="0"/>
        <pt x="333" y="516" on="1"/>
        <pt x="308" y="516" on="0"/>
        <pt x="273" y="553" on="0"/>
        <pt x="273" y="572" on="1"/>
        <pt x="277" y="588" on="1"/>
        <pt x="277" y="589" on="0"/>
        <pt x="279" y="588" on="0"/>
        <pt x="279" y="589" on="1"/>
        <pt x="258" y="596" on="0"/>
        <pt x="234" y="596" on="1"/>
        <pt x="161" y="596" on="0"/>
        <pt x="70" y="446" on="0"/>
        <pt x="70" y="212" on="0"/>
        <pt x="194" y="40" on="0"/>
        <pt x="280" y="40" on="1"/>
        <pt x="339" y="40" on="0"/>
        <pt x="437" y="119" on="0"/>
        <pt x="437" y="180" on="1"/>
        <pt x="437" y="584" on="1"/>
        <pt x="414" y="584" on="1"/>
        <pt x="389" y="584" on="0"/>
        <pt x="389" y="637" on="0"/>
        <pt x="414" y="637" on="1"/>
        <pt x="520" y="637" on="1"/>
        <pt x="531" y="637" on="0"/>
        <pt x="545" y="621" on="0"/>
        <pt x="545" y="609" on="1"/>
        <pt x="545" y="584" on="0"/>
        <pt x="520" y="584" on="1"/>
        <pt x="497" y="584" on="1"/>
        <pt x="497" y="478" on="1"/>
        <pt x="733" y="478" on="1"/>
        <pt x="733" y="584" on="1"/>
        <pt x="711" y="584" on="1"/>
        <pt x="686" y="584" on="0"/>
        <pt x="686" y="637" on="0"/>
        <pt x="711" y="637" on="1"/>
        <pt x="816" y="637" on="1"/>
        <pt x="842" y="637" on="0"/>
        <pt x="842" y="584" on="0"/>
        <pt x="816" y="584" on="1"/>
        <pt x="794" y="584" on="1"/>
        <pt x="794" y="53" on="1"/>
        <pt x="817" y="53" on="1"/>
        <pt x="828" y="53" on="0"/>
        <pt x="842" y="37" on="0"/>
        <pt x="842" y="15" on="0"/>
        <pt x="828" y="0" on="0"/>
        <pt x="817" y="0" on="1"/>
        <pt x="711" y="0" on="1"/>
        <pt x="701" y="0" on="0"/>
        <pt x="687" y="15" on="0"/>
        <pt x="687" y="37" on="0"/>
        <pt x="701" y="53" on="0"/>
        <pt x="711" y="53" on="1"/>
        <pt x="733" y="53" on="1"/>
        <pt x="733" y="428" on="1"/>
        <pt x="497" y="428" on="1"/>
        <pt x="497" y="53" on="1"/>
        <pt x="519" y="53" on="1"/>
        <pt x="544" y="53" on="0"/>
        <pt x="544" y="0" on="0"/>
      </contour>
    </TTGlyph>
    <TTGlyph name="Cacute" xMin="15" yMin="-10" xMax="486" yMax="817">
      <contour>
        <pt x="428" y="156" on="0"/>
        <pt x="448" y="171" on="0"/>
        <pt x="469" y="171" on="0"/>
        <pt x="486" y="152" on="0"/>
        <pt x="486" y="141" on="1"/>
        <pt x="486" y="92" on="0"/>
        <pt x="362" y="-10" on="0"/>
        <pt x="280" y="-10" on="1"/>
        <pt x="166" y="-10" on="0"/>
        <pt x="15" y="159" on="0"/>
        <pt x="15" y="473" on="0"/>
        <pt x="168" y="648" on="0"/>
        <pt x="271" y="648" on="1"/>
        <pt x="325" y="648" on="0"/>
        <pt x="406" y="604" on="0"/>
        <pt x="406" y="560" on="1"/>
        <pt x="406" y="544" on="0"/>
        <pt x="387" y="520" on="0"/>
        <pt x="345" y="520" on="0"/>
        <pt x="308" y="556" on="0"/>
        <pt x="308" y="576" on="1"/>
        <pt x="308" y="580" on="0"/>
        <pt x="313" y="593" on="1"/>
        <pt x="297" y="600" on="0"/>
        <pt x="267" y="600" on="1"/>
        <pt x="190" y="600" on="0"/>
        <pt x="74" y="442" on="0"/>
        <pt x="74" y="325" on="1"/>
        <pt x="74" y="258" on="0"/>
        <pt x="120" y="130" on="0"/>
        <pt x="215" y="40" on="0"/>
        <pt x="327" y="40" on="0"/>
        <pt x="411" y="101" on="0"/>
        <pt x="425" y="146" on="1"/>
      </contour>
      <contour>
        <pt x="214" y="668" on="1"/>
        <pt x="201" y="668" on="0"/>
        <pt x="201" y="681" on="1"/>
        <pt x="201" y="683" on="0"/>
        <pt x="203" y="687" on="1"/>
        <pt x="266" y="795" on="1"/>
        <pt x="278" y="817" on="0"/>
        <pt x="313" y="817" on="0"/>
        <pt x="332" y="800" on="0"/>
        <pt x="332" y="772" on="0"/>
        <pt x="316" y="757" on="1"/>
        <pt x="224" y="672" on="1"/>
        <pt x="220" y="668" on="0"/>
      </contour>
    </TTGlyph>
    <TTGlyph name="Ccaron" xMin="15" yMin="-10" xMax="486" yMax="809">
      <contour>
        <pt x="428" y="156" on="0"/>
        <pt x="448" y="171" on="0"/>
        <pt x="469" y="171" on="0"/>
        <pt x="486" y="152" on="0"/>
        <pt x="486" y="141" on="1"/>
        <pt x="486" y="92" on="0"/>
        <pt x="362" y="-10" on="0"/>
        <pt x="280" y="-10" on="1"/>
        <pt x="166" y="-10" on="0"/>
        <pt x="15" y="159" on="0"/>
        <pt x="15" y="473" on="0"/>
        <pt x="168" y="648" on="0"/>
        <pt x="271" y="648" on="1"/>
        <pt x="325" y="648" on="0"/>
        <pt x="406" y="604" on="0"/>
        <pt x="406" y="560" on="1"/>
        <pt x="406" y="544" on="0"/>
        <pt x="387" y="520" on="0"/>
        <pt x="345" y="520" on="0"/>
        <pt x="308" y="556" on="0"/>
        <pt x="308" y="576" on="1"/>
        <pt x="308" y="580" on="0"/>
        <pt x="313" y="593" on="1"/>
        <pt x="297" y="600" on="0"/>
        <pt x="267" y="600" on="1"/>
        <pt x="190" y="600" on="0"/>
        <pt x="74" y="442" on="0"/>
        <pt x="74" y="325" on="1"/>
        <pt x="74" y="258" on="0"/>
        <pt x="120" y="130" on="0"/>
        <pt x="215" y="40" on="0"/>
        <pt x="327" y="40" on="0"/>
        <pt x="411" y="101" on="0"/>
        <pt x="425" y="146" on="1"/>
      </contour>
      <contour>
        <pt x="152" y="769" on="1"/>
        <pt x="144" y="774" on="0"/>
        <pt x="144" y="796" on="0"/>
        <pt x="158" y="809" on="0"/>
        <pt x="178" y="809" on="0"/>
        <pt x="186" y="803" on="1"/>
        <pt x="274" y="738" on="1"/>
        <pt x="363" y="803" on="1"/>
        <pt x="372" y="809" on="0"/>
        <pt x="392" y="809" on="0"/>
        <pt x="406" y="797" on="0"/>
        <pt x="406" y="776" on="0"/>
        <pt x="397" y="769" on="1"/>
        <pt x="274" y="679" on="1"/>
      </contour>
    </TTGlyph>
    <TTGlyph name="Ccedilla" xMin="15" yMin="-200" xMax="486" yMax="648">
      <contour>
        <pt x="250" y="-70" on="1"/>
        <pt x="250" y="-8" on="1"/>
        <pt x="147" y="3" on="0"/>
        <pt x="15" y="170" on="0"/>
        <pt x="15" y="473" on="0"/>
        <pt x="168" y="648" on="0"/>
        <pt x="271" y="648" on="1"/>
        <pt x="325" y="648" on="0"/>
        <pt x="406" y="604" on="0"/>
        <pt x="406" y="560" on="1"/>
        <pt x="406" y="544" on="0"/>
        <pt x="387" y="520" on="0"/>
        <pt x="345" y="520" on="0"/>
        <pt x="308" y="556" on="0"/>
        <pt x="308" y="576" on="1"/>
        <pt x="308" y="580" on="0"/>
        <pt x="313" y="593" on="1"/>
        <pt x="297" y="600" on="0"/>
        <pt x="267" y="600" on="1"/>
        <pt x="190" y="600" on="0"/>
        <pt x="74" y="442" on="0"/>
        <pt x="74" y="325" on="1"/>
        <pt x="74" y="258" on="0"/>
        <pt x="120" y="130" on="0"/>
        <pt x="215" y="40" on="0"/>
        <pt x="327" y="40" on="0"/>
        <pt x="411" y="101" on="0"/>
        <pt x="425" y="146" on="1"/>
        <pt x="428" y="156" on="0"/>
        <pt x="448" y="171" on="0"/>
        <pt x="469" y="171" on="0"/>
        <pt x="486" y="152" on="0"/>
        <pt x="486" y="141" on="1"/>
        <pt x="486" y="95" on="0"/>
        <pt x="373" y="-3" on="0"/>
        <pt x="296" y="-9" on="1"/>
        <pt x="296" y="-42" on="1"/>
        <pt x="327" y="-43" on="0"/>
        <pt x="373" y="-84" on="0"/>
        <pt x="373" y="-154" on="0"/>
        <pt x="328" y="-200" on="0"/>
        <pt x="268" y="-200" on="0"/>
        <pt x="232" y="-171" on="0"/>
        <pt x="232" y="-150" on="1"/>
        <pt x="232" y="-117" on="0"/>
        <pt x="260" y="-117" on="1"/>
        <pt x="284" y="-119" on="0"/>
        <pt x="284" y="-150" on="1"/>
        <pt x="284" y="-157" on="0"/>
        <pt x="278" y="-166" on="1"/>
        <pt x="283" y="-170" on="0"/>
        <pt x="294" y="-170" on="1"/>
        <pt x="333" y="-170" on="0"/>
        <pt x="333" y="-123" on="1"/>
        <pt x="333" y="-100" on="0"/>
        <pt x="310" y="-79" on="0"/>
        <pt x="297" y="-78" on="1"/>
        <pt x="290" y="-92" on="0"/>
        <pt x="274" y="-92" on="1"/>
        <pt x="250" y="-92" on="0"/>
      </contour>
    </TTGlyph>
    <TTGlyph name="Ccircumflex" xMin="15" yMin="-10" xMax="486" yMax="806">
      <contour>
        <pt x="428" y="156" on="0"/>
        <pt x="448" y="171" on="0"/>
        <pt x="469" y="171" on="0"/>
        <pt x="486" y="152" on="0"/>
        <pt x="486" y="141" on="1"/>
        <pt x="486" y="92" on="0"/>
        <pt x="362" y="-10" on="0"/>
        <pt x="280" y="-10" on="1"/>
        <pt x="166" y="-10" on="0"/>
        <pt x="15" y="159" on="0"/>
        <pt x="15" y="473" on="0"/>
        <pt x="168" y="648" on="0"/>
        <pt x="271" y="648" on="1"/>
        <pt x="325" y="648" on="0"/>
        <pt x="406" y="604" on="0"/>
        <pt x="406" y="560" on="1"/>
        <pt x="406" y="544" on="0"/>
        <pt x="387" y="520" on="0"/>
        <pt x="345" y="520" on="0"/>
        <pt x="308" y="556" on="0"/>
        <pt x="308" y="576" on="1"/>
        <pt x="308" y="580" on="0"/>
        <pt x="313" y="593" on="1"/>
        <pt x="297" y="600" on="0"/>
        <pt x="267" y="600" on="1"/>
        <pt x="190" y="600" on="0"/>
        <pt x="74" y="442" on="0"/>
        <pt x="74" y="325" on="1"/>
        <pt x="74" y="258" on="0"/>
        <pt x="120" y="130" on="0"/>
        <pt x="215" y="40" on="0"/>
        <pt x="327" y="40" on="0"/>
        <pt x="411" y="101" on="0"/>
        <pt x="425" y="146" on="1"/>
      </contour>
      <contour>
        <pt x="385" y="716" on="1"/>
        <pt x="394" y="708" on="0"/>
        <pt x="394" y="688" on="0"/>
        <pt x="380" y="676" on="0"/>
        <pt x="360" y="676" on="0"/>
        <pt x="351" y="682" on="1"/>
        <pt x="262" y="747" on="1"/>
        <pt x="174" y="682" on="1"/>
        <pt x="167" y="676" on="0"/>
        <pt x="146" y="676" on="0"/>
        <pt x="132" y="689" on="0"/>
        <pt x="132" y="711" on="0"/>
        <pt x="140" y="716" on="1"/>
        <pt x="262" y="806" on="1"/>
      </contour>
    </TTGlyph>
    <TTGlyph name="Cdotaccent" xMin="15" yMin="-10" xMax="486" yMax="793">
      <contour>
        <pt x="428" y="156" on="0"/>
        <pt x="448" y="171" on="0"/>
        <pt x="469" y="171" on="0"/>
        <pt x="486" y="152" on="0"/>
        <pt x="486" y="141" on="1"/>
        <pt x="486" y="92" on="0"/>
        <pt x="362" y="-10" on="0"/>
        <pt x="280" y="-10" on="1"/>
        <pt x="166" y="-10" on="0"/>
        <pt x="15" y="159" on="0"/>
        <pt x="15" y="473" on="0"/>
        <pt x="168" y="648" on="0"/>
        <pt x="271" y="648" on="1"/>
        <pt x="325" y="648" on="0"/>
        <pt x="406" y="604" on="0"/>
        <pt x="406" y="560" on="1"/>
        <pt x="406" y="544" on="0"/>
        <pt x="387" y="520" on="0"/>
        <pt x="345" y="520" on="0"/>
        <pt x="308" y="556" on="0"/>
        <pt x="308" y="576" on="1"/>
        <pt x="308" y="580" on="0"/>
        <pt x="313" y="593" on="1"/>
        <pt x="297" y="600" on="0"/>
        <pt x="267" y="600" on="1"/>
        <pt x="190" y="600" on="0"/>
        <pt x="74" y="442" on="0"/>
        <pt x="74" y="325" on="1"/>
        <pt x="74" y="258" on="0"/>
        <pt x="120" y="130" on="0"/>
        <pt x="215" y="40" on="0"/>
        <pt x="327" y="40" on="0"/>
        <pt x="411" y="101" on="0"/>
        <pt x="425" y="146" on="1"/>
      </contour>
      <contour>
        <pt x="283" y="793" on="0"/>
        <pt x="310" y="767" on="0"/>
        <pt x="310" y="730" on="0"/>
        <pt x="283" y="704" on="0"/>
        <pt x="244" y="704" on="0"/>
        <pt x="217" y="730" on="0"/>
        <pt x="217" y="767" on="0"/>
        <pt x="243" y="793" on="0"/>
      </contour>
    </TTGlyph>
    <TTGlyph name="D" xMin="25" yMin="0" xMax="536" yMax="638">
      <contour>
        <pt x="130" y="580" on="1"/>
        <pt x="130" y="57" on="1"/>
        <pt x="130" y="45" on="0"/>
        <pt x="229" y="45" on="0"/>
        <pt x="336" y="76" on="0"/>
        <pt x="427" y="137" on="0"/>
        <pt x="481" y="244" on="0"/>
        <pt x="481" y="404" on="0"/>
        <pt x="436" y="469" on="1"/>
        <pt x="351" y="592" on="0"/>
        <pt x="174" y="592" on="1"/>
        <pt x="130" y="592" on="0"/>
      </contour>
      <contour>
        <pt x="73" y="585" on="1"/>
        <pt x="50" y="585" on="1"/>
        <pt x="25" y="585" on="0"/>
        <pt x="25" y="638" on="0"/>
        <pt x="49" y="638" on="1"/>
        <pt x="168" y="638" on="1"/>
        <pt x="329" y="637" on="0"/>
        <pt x="536" y="468" on="0"/>
        <pt x="536" y="162" on="0"/>
        <pt x="331" y="0" on="0"/>
        <pt x="163" y="0" on="1"/>
        <pt x="49" y="0" on="1"/>
        <pt x="25" y="0" on="0"/>
        <pt x="25" y="52" on="0"/>
        <pt x="49" y="52" on="1"/>
        <pt x="73" y="52" on="1"/>
      </contour>
    </TTGlyph>
    <TTGlyph name="Dcaron" xMin="25" yMin="0" xMax="536" yMax="809">
      <contour>
        <pt x="130" y="580" on="1"/>
        <pt x="130" y="57" on="1"/>
        <pt x="130" y="45" on="0"/>
        <pt x="229" y="45" on="0"/>
        <pt x="336" y="76" on="0"/>
        <pt x="427" y="137" on="0"/>
        <pt x="481" y="244" on="0"/>
        <pt x="481" y="404" on="0"/>
        <pt x="436" y="469" on="1"/>
        <pt x="351" y="592" on="0"/>
        <pt x="174" y="592" on="1"/>
        <pt x="130" y="592" on="0"/>
      </contour>
      <contour>
        <pt x="73" y="585" on="1"/>
        <pt x="50" y="585" on="1"/>
        <pt x="25" y="585" on="0"/>
        <pt x="25" y="638" on="0"/>
        <pt x="49" y="638" on="1"/>
        <pt x="168" y="638" on="1"/>
        <pt x="329" y="637" on="0"/>
        <pt x="536" y="468" on="0"/>
        <pt x="536" y="162" on="0"/>
        <pt x="331" y="0" on="0"/>
        <pt x="163" y="0" on="1"/>
        <pt x="49" y="0" on="1"/>
        <pt x="25" y="0" on="0"/>
        <pt x="25" y="52" on="0"/>
        <pt x="49" y="52" on="1"/>
        <pt x="73" y="52" on="1"/>
      </contour>
      <contour>
        <pt x="48" y="769" on="1"/>
        <pt x="40" y="774" on="0"/>
        <pt x="40" y="796" on="0"/>
        <pt x="54" y="809" on="0"/>
        <pt x="74" y="809" on="0"/>
        <pt x="82" y="803" on="1"/>
        <pt x="170" y="738" on="1"/>
        <pt x="259" y="803" on="1"/>
        <pt x="268" y="809" on="0"/>
        <pt x="288" y="809" on="0"/>
        <pt x="302" y="797" on="0"/>
        <pt x="302" y="776" on="0"/>
        <pt x="293" y="769" on="1"/>
        <pt x="170" y="679" on="1"/>
      </contour>
    </TTGlyph>
    <TTGlyph name="Dcroat" xMin="13" yMin="0" xMax="536" yMax="638">
      <contour>
        <pt x="73" y="585" on="1"/>
        <pt x="50" y="585" on="1"/>
        <pt x="25" y="585" on="0"/>
        <pt x="25" y="638" on="0"/>
        <pt x="49" y="638" on="1"/>
        <pt x="168" y="638" on="1"/>
        <pt x="329" y="637" on="0"/>
        <pt x="536" y="468" on="0"/>
        <pt x="536" y="162" on="0"/>
        <pt x="331" y="0" on="0"/>
        <pt x="163" y="0" on="1"/>
        <pt x="49" y="0" on="1"/>
        <pt x="25" y="0" on="0"/>
        <pt x="25" y="52" on="0"/>
        <pt x="49" y="52" on="1"/>
        <pt x="73" y="52" on="1"/>
        <pt x="73" y="283" on="1"/>
        <pt x="35" y="283" on="1"/>
        <pt x="13" y="283" on="0"/>
        <pt x="13" y="332" on="0"/>
        <pt x="35" y="332" on="1"/>
        <pt x="73" y="332" on="1"/>
      </contour>
      <contour>
        <pt x="209" y="283" on="1"/>
        <pt x="130" y="283" on="1"/>
        <pt x="130" y="57" on="1"/>
        <pt x="130" y="45" on="0"/>
        <pt x="229" y="45" on="0"/>
        <pt x="336" y="76" on="0"/>
        <pt x="427" y="137" on="0"/>
        <pt x="481" y="244" on="0"/>
        <pt x="481" y="404" on="0"/>
        <pt x="436" y="469" on="1"/>
        <pt x="351" y="592" on="0"/>
        <pt x="174" y="592" on="1"/>
        <pt x="130" y="592" on="0"/>
        <pt x="130" y="580" on="1"/>
        <pt x="130" y="332" on="1"/>
        <pt x="209" y="332" on="1"/>
        <pt x="232" y="332" on="0"/>
        <pt x="232" y="283" on="0"/>
      </contour>
    </TTGlyph>
    <TTGlyph name="E" xMin="25" yMin="0" xMax="491" yMax="638">
      <contour>
        <pt x="130" y="52" on="1"/>
        <pt x="352" y="52" on="1"/>
        <pt x="455" y="152" on="1"/>
        <pt x="462" y="159" on="0"/>
        <pt x="470" y="159" on="1"/>
        <pt x="491" y="159" on="0"/>
        <pt x="491" y="141" on="1"/>
        <pt x="491" y="135" on="0"/>
        <pt x="485" y="125" on="1"/>
        <pt x="413" y="13" on="1"/>
        <pt x="405" y="0" on="0"/>
        <pt x="386" y="0" on="1"/>
        <pt x="49" y="0" on="1"/>
        <pt x="25" y="0" on="0"/>
        <pt x="25" y="52" on="0"/>
        <pt x="49" y="52" on="1"/>
        <pt x="73" y="52" on="1"/>
        <pt x="73" y="585" on="1"/>
        <pt x="49" y="585" on="1"/>
        <pt x="25" y="585" on="0"/>
        <pt x="25" y="638" on="0"/>
        <pt x="49" y="638" on="1"/>
        <pt x="286" y="638" on="1"/>
        <pt x="305" y="638" on="0"/>
        <pt x="315" y="628" on="1"/>
        <pt x="378" y="555" on="1"/>
        <pt x="385" y="547" on="0"/>
        <pt x="385" y="531" on="0"/>
        <pt x="374" y="520" on="0"/>
        <pt x="354" y="520" on="0"/>
        <pt x="346" y="528" on="1"/>
        <pt x="275" y="590" on="1"/>
        <pt x="130" y="590" on="1"/>
        <pt x="130" y="477" on="1"/>
        <pt x="235" y="477" on="1"/>
        <pt x="229" y="486" on="0"/>
        <pt x="229" y="506" on="0"/>
        <pt x="244" y="521" on="0"/>
        <pt x="270" y="521" on="0"/>
        <pt x="277" y="510" on="1"/>
        <pt x="320" y="439" on="1"/>
        <pt x="324" y="432" on="0"/>
        <pt x="324" y="416" on="0"/>
        <pt x="313" y="403" on="0"/>
        <pt x="292" y="403" on="0"/>
        <pt x="284" y="414" on="1"/>
        <pt x="271" y="429" on="1"/>
        <pt x="130" y="429" on="1"/>
      </contour>
    </TTGlyph>
    <TTGlyph name="Eacute" xMin="25" yMin="0" xMax="491" yMax="817">
      <contour>
        <pt x="130" y="52" on="1"/>
        <pt x="352" y="52" on="1"/>
        <pt x="455" y="152" on="1"/>
        <pt x="462" y="159" on="0"/>
        <pt x="470" y="159" on="1"/>
        <pt x="491" y="159" on="0"/>
        <pt x="491" y="141" on="1"/>
        <pt x="491" y="135" on="0"/>
        <pt x="485" y="125" on="1"/>
        <pt x="413" y="13" on="1"/>
        <pt x="405" y="0" on="0"/>
        <pt x="386" y="0" on="1"/>
        <pt x="49" y="0" on="1"/>
        <pt x="25" y="0" on="0"/>
        <pt x="25" y="52" on="0"/>
        <pt x="49" y="52" on="1"/>
        <pt x="73" y="52" on="1"/>
        <pt x="73" y="585" on="1"/>
        <pt x="49" y="585" on="1"/>
        <pt x="25" y="585" on="0"/>
        <pt x="25" y="638" on="0"/>
        <pt x="49" y="638" on="1"/>
        <pt x="286" y="638" on="1"/>
        <pt x="305" y="638" on="0"/>
        <pt x="315" y="628" on="1"/>
        <pt x="378" y="555" on="1"/>
        <pt x="385" y="547" on="0"/>
        <pt x="385" y="531" on="0"/>
        <pt x="374" y="520" on="0"/>
        <pt x="354" y="520" on="0"/>
        <pt x="346" y="528" on="1"/>
        <pt x="275" y="590" on="1"/>
        <pt x="130" y="590" on="1"/>
        <pt x="130" y="477" on="1"/>
        <pt x="235" y="477" on="1"/>
        <pt x="229" y="486" on="0"/>
        <pt x="229" y="506" on="0"/>
        <pt x="244" y="521" on="0"/>
        <pt x="270" y="521" on="0"/>
        <pt x="277" y="510" on="1"/>
        <pt x="320" y="439" on="1"/>
        <pt x="324" y="432" on="0"/>
        <pt x="324" y="416" on="0"/>
        <pt x="313" y="403" on="0"/>
        <pt x="292" y="403" on="0"/>
        <pt x="284" y="414" on="1"/>
        <pt x="271" y="429" on="1"/>
        <pt x="130" y="429" on="1"/>
      </contour>
      <contour>
        <pt x="132" y="668" on="1"/>
        <pt x="119" y="668" on="0"/>
        <pt x="119" y="681" on="1"/>
        <pt x="119" y="683" on="0"/>
        <pt x="121" y="687" on="1"/>
        <pt x="184" y="795" on="1"/>
        <pt x="196" y="817" on="0"/>
        <pt x="231" y="817" on="0"/>
        <pt x="250" y="800" on="0"/>
        <pt x="250" y="772" on="0"/>
        <pt x="234" y="757" on="1"/>
        <pt x="142" y="672" on="1"/>
        <pt x="138" y="668" on="0"/>
      </contour>
    </TTGlyph>
    <TTGlyph name="Ebreve" xMin="25" yMin="0" xMax="491" yMax="816">
      <contour>
        <pt x="130" y="52" on="1"/>
        <pt x="352" y="52" on="1"/>
        <pt x="455" y="152" on="1"/>
        <pt x="462" y="159" on="0"/>
        <pt x="470" y="159" on="1"/>
        <pt x="491" y="159" on="0"/>
        <pt x="491" y="141" on="1"/>
        <pt x="491" y="135" on="0"/>
        <pt x="485" y="125" on="1"/>
        <pt x="413" y="13" on="1"/>
        <pt x="405" y="0" on="0"/>
        <pt x="386" y="0" on="1"/>
        <pt x="49" y="0" on="1"/>
        <pt x="25" y="0" on="0"/>
        <pt x="25" y="52" on="0"/>
        <pt x="49" y="52" on="1"/>
        <pt x="73" y="52" on="1"/>
        <pt x="73" y="585" on="1"/>
        <pt x="49" y="585" on="1"/>
        <pt x="25" y="585" on="0"/>
        <pt x="25" y="638" on="0"/>
        <pt x="49" y="638" on="1"/>
        <pt x="286" y="638" on="1"/>
        <pt x="305" y="638" on="0"/>
        <pt x="315" y="628" on="1"/>
        <pt x="378" y="555" on="1"/>
        <pt x="385" y="547" on="0"/>
        <pt x="385" y="531" on="0"/>
        <pt x="374" y="520" on="0"/>
        <pt x="354" y="520" on="0"/>
        <pt x="346" y="528" on="1"/>
        <pt x="275" y="590" on="1"/>
        <pt x="130" y="590" on="1"/>
        <pt x="130" y="477" on="1"/>
        <pt x="235" y="477" on="1"/>
        <pt x="229" y="486" on="0"/>
        <pt x="229" y="506" on="0"/>
        <pt x="244" y="521" on="0"/>
        <pt x="270" y="521" on="0"/>
        <pt x="277" y="510" on="1"/>
        <pt x="320" y="439" on="1"/>
        <pt x="324" y="432" on="0"/>
        <pt x="324" y="416" on="0"/>
        <pt x="313" y="403" on="0"/>
        <pt x="292" y="403" on="0"/>
        <pt x="284" y="414" on="1"/>
        <pt x="271" y="429" on="1"/>
        <pt x="130" y="429" on="1"/>
      </contour>
      <contour>
        <pt x="326" y="727" on="0"/>
        <pt x="254" y="672" on="0"/>
        <pt x="123" y="672" on="0"/>
        <pt x="51" y="727" on="0"/>
        <pt x="51" y="769" on="1"/>
        <pt x="51" y="793" on="0"/>
        <pt x="73" y="816" on="0"/>
        <pt x="86" y="816" on="1"/>
        <pt x="111" y="816" on="0"/>
        <pt x="111" y="788" on="1"/>
        <pt x="111" y="782" on="0"/>
        <pt x="99" y="762" on="0"/>
        <pt x="91" y="758" on="1"/>
        <pt x="95" y="718" on="0"/>
        <pt x="282" y="718" on="0"/>
        <pt x="286" y="758" on="1"/>
        <pt x="278" y="762" on="0"/>
        <pt x="266" y="782" on="0"/>
        <pt x="266" y="788" on="1"/>
        <pt x="266" y="816" on="0"/>
        <pt x="291" y="816" on="1"/>
        <pt x="304" y="816" on="0"/>
        <pt x="326" y="793" on="0"/>
        <pt x="326" y="769" on="1"/>
      </contour>
    </TTGlyph>
    <TTGlyph name="Ecaron" xMin="25" yMin="0" xMax="491" yMax="809">
      <contour>
        <pt x="130" y="52" on="1"/>
        <pt x="352" y="52" on="1"/>
        <pt x="455" y="152" on="1"/>
        <pt x="462" y="159" on="0"/>
        <pt x="470" y="159" on="1"/>
        <pt x="491" y="159" on="0"/>
        <pt x="491" y="141" on="1"/>
        <pt x="491" y="135" on="0"/>
        <pt x="485" y="125" on="1"/>
        <pt x="413" y="13" on="1"/>
        <pt x="405" y="0" on="0"/>
        <pt x="386" y="0" on="1"/>
        <pt x="49" y="0" on="1"/>
        <pt x="25" y="0" on="0"/>
        <pt x="25" y="52" on="0"/>
        <pt x="49" y="52" on="1"/>
        <pt x="73" y="52" on="1"/>
        <pt x="73" y="585" on="1"/>
        <pt x="49" y="585" on="1"/>
        <pt x="25" y="585" on="0"/>
        <pt x="25" y="638" on="0"/>
        <pt x="49" y="638" on="1"/>
        <pt x="286" y="638" on="1"/>
        <pt x="305" y="638" on="0"/>
        <pt x="315" y="628" on="1"/>
        <pt x="378" y="555" on="1"/>
        <pt x="385" y="547" on="0"/>
        <pt x="385" y="531" on="0"/>
        <pt x="374" y="520" on="0"/>
        <pt x="354" y="520" on="0"/>
        <pt x="346" y="528" on="1"/>
        <pt x="275" y="590" on="1"/>
        <pt x="130" y="590" on="1"/>
        <pt x="130" y="477" on="1"/>
        <pt x="235" y="477" on="1"/>
        <pt x="229" y="486" on="0"/>
        <pt x="229" y="506" on="0"/>
        <pt x="244" y="521" on="0"/>
        <pt x="270" y="521" on="0"/>
        <pt x="277" y="510" on="1"/>
        <pt x="320" y="439" on="1"/>
        <pt x="324" y="432" on="0"/>
        <pt x="324" y="416" on="0"/>
        <pt x="313" y="403" on="0"/>
        <pt x="292" y="403" on="0"/>
        <pt x="284" y="414" on="1"/>
        <pt x="271" y="429" on="1"/>
        <pt x="130" y="429" on="1"/>
      </contour>
      <contour>
        <pt x="51" y="769" on="1"/>
        <pt x="43" y="774" on="0"/>
        <pt x="43" y="796" on="0"/>
        <pt x="57" y="809" on="0"/>
        <pt x="78" y="809" on="0"/>
        <pt x="85" y="803" on="1"/>
        <pt x="173" y="738" on="1"/>
        <pt x="262" y="803" on="1"/>
        <pt x="271" y="809" on="0"/>
        <pt x="291" y="809" on="0"/>
        <pt x="305" y="797" on="0"/>
        <pt x="305" y="776" on="0"/>
        <pt x="296" y="769" on="1"/>
        <pt x="173" y="679" on="1"/>
      </contour>
    </TTGlyph>
    <TTGlyph name="Ecircumflex" xMin="25" yMin="0" xMax="491" yMax="806">
      <contour>
        <pt x="130" y="52" on="1"/>
        <pt x="352" y="52" on="1"/>
        <pt x="455" y="152" on="1"/>
        <pt x="462" y="159" on="0"/>
        <pt x="470" y="159" on="1"/>
        <pt x="491" y="159" on="0"/>
        <pt x="491" y="141" on="1"/>
        <pt x="491" y="135" on="0"/>
        <pt x="485" y="125" on="1"/>
        <pt x="413" y="13" on="1"/>
        <pt x="405" y="0" on="0"/>
        <pt x="386" y="0" on="1"/>
        <pt x="49" y="0" on="1"/>
        <pt x="25" y="0" on="0"/>
        <pt x="25" y="52" on="0"/>
        <pt x="49" y="52" on="1"/>
        <pt x="73" y="52" on="1"/>
        <pt x="73" y="585" on="1"/>
        <pt x="49" y="585" on="1"/>
        <pt x="25" y="585" on="0"/>
        <pt x="25" y="638" on="0"/>
        <pt x="49" y="638" on="1"/>
        <pt x="286" y="638" on="1"/>
        <pt x="305" y="638" on="0"/>
        <pt x="315" y="628" on="1"/>
        <pt x="378" y="555" on="1"/>
        <pt x="385" y="547" on="0"/>
        <pt x="385" y="531" on="0"/>
        <pt x="374" y="520" on="0"/>
        <pt x="354" y="520" on="0"/>
        <pt x="346" y="528" on="1"/>
        <pt x="275" y="590" on="1"/>
        <pt x="130" y="590" on="1"/>
        <pt x="130" y="477" on="1"/>
        <pt x="235" y="477" on="1"/>
        <pt x="229" y="486" on="0"/>
        <pt x="229" y="506" on="0"/>
        <pt x="244" y="521" on="0"/>
        <pt x="270" y="521" on="0"/>
        <pt x="277" y="510" on="1"/>
        <pt x="320" y="439" on="1"/>
        <pt x="324" y="432" on="0"/>
        <pt x="324" y="416" on="0"/>
        <pt x="313" y="403" on="0"/>
        <pt x="292" y="403" on="0"/>
        <pt x="284" y="414" on="1"/>
        <pt x="271" y="429" on="1"/>
        <pt x="130" y="429" on="1"/>
      </contour>
      <contour>
        <pt x="301" y="716" on="1"/>
        <pt x="310" y="708" on="0"/>
        <pt x="310" y="688" on="0"/>
        <pt x="296" y="676" on="0"/>
        <pt x="276" y="676" on="0"/>
        <pt x="267" y="682" on="1"/>
        <pt x="178" y="747" on="1"/>
        <pt x="90" y="682" on="1"/>
        <pt x="82" y="676" on="0"/>
        <pt x="62" y="676" on="0"/>
        <pt x="48" y="689" on="0"/>
        <pt x="48" y="711" on="0"/>
        <pt x="56" y="716" on="1"/>
        <pt x="178" y="806" on="1"/>
      </contour>
    </TTGlyph>
    <TTGlyph name="Edieresis" xMin="25" yMin="0" xMax="491" yMax="765">
      <contour>
        <pt x="130" y="52" on="1"/>
        <pt x="352" y="52" on="1"/>
        <pt x="455" y="152" on="1"/>
        <pt x="462" y="159" on="0"/>
        <pt x="470" y="159" on="1"/>
        <pt x="491" y="159" on="0"/>
        <pt x="491" y="141" on="1"/>
        <pt x="491" y="135" on="0"/>
        <pt x="485" y="125" on="1"/>
        <pt x="413" y="13" on="1"/>
        <pt x="405" y="0" on="0"/>
        <pt x="386" y="0" on="1"/>
        <pt x="49" y="0" on="1"/>
        <pt x="25" y="0" on="0"/>
        <pt x="25" y="52" on="0"/>
        <pt x="49" y="52" on="1"/>
        <pt x="73" y="52" on="1"/>
        <pt x="73" y="585" on="1"/>
        <pt x="49" y="585" on="1"/>
        <pt x="25" y="585" on="0"/>
        <pt x="25" y="638" on="0"/>
        <pt x="49" y="638" on="1"/>
        <pt x="286" y="638" on="1"/>
        <pt x="305" y="638" on="0"/>
        <pt x="315" y="628" on="1"/>
        <pt x="378" y="555" on="1"/>
        <pt x="385" y="547" on="0"/>
        <pt x="385" y="531" on="0"/>
        <pt x="374" y="520" on="0"/>
        <pt x="354" y="520" on="0"/>
        <pt x="346" y="528" on="1"/>
        <pt x="275" y="590" on="1"/>
        <pt x="130" y="590" on="1"/>
        <pt x="130" y="477" on="1"/>
        <pt x="235" y="477" on="1"/>
        <pt x="229" y="486" on="0"/>
        <pt x="229" y="506" on="0"/>
        <pt x="244" y="521" on="0"/>
        <pt x="270" y="521" on="0"/>
        <pt x="277" y="510" on="1"/>
        <pt x="320" y="439" on="1"/>
        <pt x="324" y="432" on="0"/>
        <pt x="324" y="416" on="0"/>
        <pt x="313" y="403" on="0"/>
        <pt x="292" y="403" on="0"/>
        <pt x="284" y="414" on="1"/>
        <pt x="271" y="429" on="1"/>
        <pt x="130" y="429" on="1"/>
      </contour>
      <contour>
        <pt x="100" y="765" on="0"/>
        <pt x="125" y="742" on="0"/>
        <pt x="125" y="707" on="0"/>
        <pt x="99" y="683" on="0"/>
        <pt x="63" y="683" on="0"/>
        <pt x="39" y="707" on="0"/>
        <pt x="39" y="742" on="0"/>
        <pt x="63" y="765" on="0"/>
      </contour>
      <contour>
        <pt x="291" y="765" on="0"/>
        <pt x="316" y="742" on="0"/>
        <pt x="316" y="707" on="0"/>
        <pt x="290" y="683" on="0"/>
        <pt x="254" y="683" on="0"/>
        <pt x="230" y="707" on="0"/>
        <pt x="230" y="742" on="0"/>
        <pt x="254" y="765" on="0"/>
      </contour>
    </TTGlyph>
    <TTGlyph name="Edotaccent" xMin="25" yMin="0" xMax="491" yMax="793">
      <contour>
        <pt x="130" y="52" on="1"/>
        <pt x="352" y="52" on="1"/>
        <pt x="455" y="152" on="1"/>
        <pt x="462" y="159" on="0"/>
        <pt x="470" y="159" on="1"/>
        <pt x="491" y="159" on="0"/>
        <pt x="491" y="141" on="1"/>
        <pt x="491" y="135" on="0"/>
        <pt x="485" y="125" on="1"/>
        <pt x="413" y="13" on="1"/>
        <pt x="405" y="0" on="0"/>
        <pt x="386" y="0" on="1"/>
        <pt x="49" y="0" on="1"/>
        <pt x="25" y="0" on="0"/>
        <pt x="25" y="52" on="0"/>
        <pt x="49" y="52" on="1"/>
        <pt x="73" y="52" on="1"/>
        <pt x="73" y="585" on="1"/>
        <pt x="49" y="585" on="1"/>
        <pt x="25" y="585" on="0"/>
        <pt x="25" y="638" on="0"/>
        <pt x="49" y="638" on="1"/>
        <pt x="286" y="638" on="1"/>
        <pt x="305" y="638" on="0"/>
        <pt x="315" y="628" on="1"/>
        <pt x="378" y="555" on="1"/>
        <pt x="385" y="547" on="0"/>
        <pt x="385" y="531" on="0"/>
        <pt x="374" y="520" on="0"/>
        <pt x="354" y="520" on="0"/>
        <pt x="346" y="528" on="1"/>
        <pt x="275" y="590" on="1"/>
        <pt x="130" y="590" on="1"/>
        <pt x="130" y="477" on="1"/>
        <pt x="235" y="477" on="1"/>
        <pt x="229" y="486" on="0"/>
        <pt x="229" y="506" on="0"/>
        <pt x="244" y="521" on="0"/>
        <pt x="270" y="521" on="0"/>
        <pt x="277" y="510" on="1"/>
        <pt x="320" y="439" on="1"/>
        <pt x="324" y="432" on="0"/>
        <pt x="324" y="416" on="0"/>
        <pt x="313" y="403" on="0"/>
        <pt x="292" y="403" on="0"/>
        <pt x="284" y="414" on="1"/>
        <pt x="271" y="429" on="1"/>
        <pt x="130" y="429" on="1"/>
      </contour>
      <contour>
        <pt x="202" y="793" on="0"/>
        <pt x="229" y="767" on="0"/>
        <pt x="229" y="730" on="0"/>
        <pt x="202" y="704" on="0"/>
        <pt x="163" y="704" on="0"/>
        <pt x="136" y="730" on="0"/>
        <pt x="136" y="767" on="0"/>
        <pt x="162" y="793" on="0"/>
      </contour>
    </TTGlyph>
    <TTGlyph name="Egrave" xMin="25" yMin="0" xMax="491" yMax="817">
      <contour>
        <pt x="130" y="52" on="1"/>
        <pt x="352" y="52" on="1"/>
        <pt x="455" y="152" on="1"/>
        <pt x="462" y="159" on="0"/>
        <pt x="470" y="159" on="1"/>
        <pt x="491" y="159" on="0"/>
        <pt x="491" y="141" on="1"/>
        <pt x="491" y="135" on="0"/>
        <pt x="485" y="125" on="1"/>
        <pt x="413" y="13" on="1"/>
        <pt x="405" y="0" on="0"/>
        <pt x="386" y="0" on="1"/>
        <pt x="49" y="0" on="1"/>
        <pt x="25" y="0" on="0"/>
        <pt x="25" y="52" on="0"/>
        <pt x="49" y="52" on="1"/>
        <pt x="73" y="52" on="1"/>
        <pt x="73" y="585" on="1"/>
        <pt x="49" y="585" on="1"/>
        <pt x="25" y="585" on="0"/>
        <pt x="25" y="638" on="0"/>
        <pt x="49" y="638" on="1"/>
        <pt x="286" y="638" on="1"/>
        <pt x="305" y="638" on="0"/>
        <pt x="315" y="628" on="1"/>
        <pt x="378" y="555" on="1"/>
        <pt x="385" y="547" on="0"/>
        <pt x="385" y="531" on="0"/>
        <pt x="374" y="520" on="0"/>
        <pt x="354" y="520" on="0"/>
        <pt x="346" y="528" on="1"/>
        <pt x="275" y="590" on="1"/>
        <pt x="130" y="590" on="1"/>
        <pt x="130" y="477" on="1"/>
        <pt x="235" y="477" on="1"/>
        <pt x="229" y="486" on="0"/>
        <pt x="229" y="506" on="0"/>
        <pt x="244" y="521" on="0"/>
        <pt x="270" y="521" on="0"/>
        <pt x="277" y="510" on="1"/>
        <pt x="320" y="439" on="1"/>
        <pt x="324" y="432" on="0"/>
        <pt x="324" y="416" on="0"/>
        <pt x="313" y="403" on="0"/>
        <pt x="292" y="403" on="0"/>
        <pt x="284" y="414" on="1"/>
        <pt x="271" y="429" on="1"/>
        <pt x="130" y="429" on="1"/>
      </contour>
      <contour>
        <pt x="222" y="668" on="1"/>
        <pt x="216" y="668" on="0"/>
        <pt x="212" y="672" on="1"/>
        <pt x="120" y="757" on="1"/>
        <pt x="104" y="772" on="0"/>
        <pt x="104" y="800" on="0"/>
        <pt x="123" y="817" on="0"/>
        <pt x="158" y="817" on="0"/>
        <pt x="170" y="795" on="1"/>
        <pt x="233" y="687" on="1"/>
        <pt x="235" y="683" on="0"/>
        <pt x="235" y="681" on="1"/>
        <pt x="235" y="668" on="0"/>
      </contour>
    </TTGlyph>
    <TTGlyph name="Emacron" xMin="25" yMin="0" xMax="491" yMax="748">
      <contour>
        <pt x="130" y="52" on="1"/>
        <pt x="352" y="52" on="1"/>
        <pt x="455" y="152" on="1"/>
        <pt x="462" y="159" on="0"/>
        <pt x="470" y="159" on="1"/>
        <pt x="491" y="159" on="0"/>
        <pt x="491" y="141" on="1"/>
        <pt x="491" y="135" on="0"/>
        <pt x="485" y="125" on="1"/>
        <pt x="413" y="13" on="1"/>
        <pt x="405" y="0" on="0"/>
        <pt x="386" y="0" on="1"/>
        <pt x="49" y="0" on="1"/>
        <pt x="25" y="0" on="0"/>
        <pt x="25" y="52" on="0"/>
        <pt x="49" y="52" on="1"/>
        <pt x="73" y="52" on="1"/>
        <pt x="73" y="585" on="1"/>
        <pt x="49" y="585" on="1"/>
        <pt x="25" y="585" on="0"/>
        <pt x="25" y="638" on="0"/>
        <pt x="49" y="638" on="1"/>
        <pt x="286" y="638" on="1"/>
        <pt x="305" y="638" on="0"/>
        <pt x="315" y="628" on="1"/>
        <pt x="378" y="555" on="1"/>
        <pt x="385" y="547" on="0"/>
        <pt x="385" y="531" on="0"/>
        <pt x="374" y="520" on="0"/>
        <pt x="354" y="520" on="0"/>
        <pt x="346" y="528" on="1"/>
        <pt x="275" y="590" on="1"/>
        <pt x="130" y="590" on="1"/>
        <pt x="130" y="477" on="1"/>
        <pt x="235" y="477" on="1"/>
        <pt x="229" y="486" on="0"/>
        <pt x="229" y="506" on="0"/>
        <pt x="244" y="521" on="0"/>
        <pt x="270" y="521" on="0"/>
        <pt x="277" y="510" on="1"/>
        <pt x="320" y="439" on="1"/>
        <pt x="324" y="432" on="0"/>
        <pt x="324" y="416" on="0"/>
        <pt x="313" y="403" on="0"/>
        <pt x="292" y="403" on="0"/>
        <pt x="284" y="414" on="1"/>
        <pt x="271" y="429" on="1"/>
        <pt x="130" y="429" on="1"/>
      </contour>
      <contour>
        <pt x="269" y="699" on="1"/>
        <pt x="95" y="699" on="1"/>
        <pt x="73" y="699" on="0"/>
        <pt x="73" y="748" on="0"/>
        <pt x="95" y="748" on="1"/>
        <pt x="269" y="748" on="1"/>
        <pt x="292" y="748" on="0"/>
        <pt x="292" y="699" on="0"/>
      </contour>
    </TTGlyph>
    <TTGlyph name="Eng" xMin="25" yMin="-127" xMax="505" yMax="638">
      <contour>
        <pt x="401" y="585" on="1"/>
        <pt x="375" y="585" on="1"/>
        <pt x="351" y="585" on="0"/>
        <pt x="351" y="638" on="0"/>
        <pt x="375" y="638" on="1"/>
        <pt x="480" y="638" on="1"/>
        <pt x="505" y="638" on="0"/>
        <pt x="505" y="585" on="0"/>
        <pt x="480" y="585" on="1"/>
        <pt x="453" y="585" on="1"/>
        <pt x="453" y="125" on="1"/>
        <pt x="453" y="-9" on="0"/>
        <pt x="438" y="-46" on="1"/>
        <pt x="417" y="-103" on="0"/>
        <pt x="385" y="-118" on="1"/>
        <pt x="364" y="-127" on="0"/>
        <pt x="306" y="-127" on="0"/>
        <pt x="261" y="-88" on="0"/>
        <pt x="261" y="-62" on="1"/>
        <pt x="261" y="-29" on="0"/>
        <pt x="295" y="-29" on="1"/>
        <pt x="321" y="-29" on="0"/>
        <pt x="349" y="-67" on="0"/>
        <pt x="351" y="-87" on="1"/>
        <pt x="378" y="-77" on="0"/>
        <pt x="399" y="-17" on="0"/>
        <pt x="401" y="51" on="1"/>
        <pt x="125" y="528" on="1"/>
        <pt x="125" y="52" on="1"/>
        <pt x="148" y="52" on="1"/>
        <pt x="172" y="52" on="0"/>
        <pt x="172" y="0" on="0"/>
        <pt x="148" y="0" on="1"/>
        <pt x="49" y="0" on="1"/>
        <pt x="25" y="0" on="0"/>
        <pt x="25" y="52" on="0"/>
        <pt x="49" y="52" on="1"/>
        <pt x="73" y="52" on="1"/>
        <pt x="73" y="585" on="1"/>
        <pt x="49" y="585" on="1"/>
        <pt x="25" y="585" on="0"/>
        <pt x="25" y="638" on="0"/>
        <pt x="49" y="638" on="1"/>
        <pt x="116" y="638" on="1"/>
        <pt x="126" y="638" on="0"/>
        <pt x="133" y="632" on="0"/>
        <pt x="139" y="622" on="1"/>
        <pt x="401" y="158" on="1"/>
      </contour>
    </TTGlyph>
    <TTGlyph name="Eogonek" xMin="25" yMin="-173" xMax="491" yMax="638">
      <contour>
        <pt x="130" y="52" on="1"/>
        <pt x="352" y="52" on="1"/>
        <pt x="455" y="152" on="1"/>
        <pt x="462" y="159" on="0"/>
        <pt x="470" y="159" on="1"/>
        <pt x="491" y="159" on="0"/>
        <pt x="491" y="141" on="1"/>
        <pt x="491" y="135" on="0"/>
        <pt x="485" y="125" on="1"/>
        <pt x="413" y="13" on="1"/>
        <pt x="405" y="0" on="0"/>
        <pt x="386" y="0" on="1"/>
        <pt x="377" y="0" on="1"/>
        <pt x="299" y="-49" on="0"/>
        <pt x="299" y="-96" on="1"/>
        <pt x="299" y="-115" on="0"/>
        <pt x="318" y="-139" on="0"/>
        <pt x="339" y="-139" on="0"/>
        <pt x="343" y="-137" on="1"/>
        <pt x="339" y="-129" on="0"/>
        <pt x="339" y="-119" on="1"/>
        <pt x="339" y="-88" on="0"/>
        <pt x="366" y="-88" on="1"/>
        <pt x="380" y="-88" on="0"/>
        <pt x="394" y="-109" on="0"/>
        <pt x="394" y="-143" on="0"/>
        <pt x="358" y="-173" on="0"/>
        <pt x="299" y="-173" on="0"/>
        <pt x="256" y="-128" on="0"/>
        <pt x="256" y="-97" on="1"/>
        <pt x="256" y="-37" on="0"/>
        <pt x="322" y="0" on="1"/>
        <pt x="49" y="0" on="1"/>
        <pt x="25" y="0" on="0"/>
        <pt x="25" y="52" on="0"/>
        <pt x="49" y="52" on="1"/>
        <pt x="73" y="52" on="1"/>
        <pt x="73" y="585" on="1"/>
        <pt x="49" y="585" on="1"/>
        <pt x="25" y="585" on="0"/>
        <pt x="25" y="638" on="0"/>
        <pt x="49" y="638" on="1"/>
        <pt x="286" y="638" on="1"/>
        <pt x="305" y="638" on="0"/>
        <pt x="315" y="628" on="1"/>
        <pt x="378" y="555" on="1"/>
        <pt x="385" y="547" on="0"/>
        <pt x="385" y="531" on="0"/>
        <pt x="374" y="520" on="0"/>
        <pt x="354" y="520" on="0"/>
        <pt x="346" y="528" on="1"/>
        <pt x="275" y="590" on="1"/>
        <pt x="130" y="590" on="1"/>
        <pt x="130" y="477" on="1"/>
        <pt x="235" y="477" on="1"/>
        <pt x="229" y="486" on="0"/>
        <pt x="229" y="506" on="0"/>
        <pt x="244" y="521" on="0"/>
        <pt x="270" y="521" on="0"/>
        <pt x="277" y="510" on="1"/>
        <pt x="320" y="439" on="1"/>
        <pt x="324" y="432" on="0"/>
        <pt x="324" y="416" on="0"/>
        <pt x="313" y="403" on="0"/>
        <pt x="292" y="403" on="0"/>
        <pt x="284" y="414" on="1"/>
        <pt x="271" y="429" on="1"/>
        <pt x="130" y="429" on="1"/>
      </contour>
    </TTGlyph>
    <TTGlyph name="Eth" xMin="13" yMin="0" xMax="536" yMax="638">
      <contour>
        <pt x="73" y="585" on="1"/>
        <pt x="50" y="585" on="1"/>
        <pt x="25" y="585" on="0"/>
        <pt x="25" y="638" on="0"/>
        <pt x="49" y="638" on="1"/>
        <pt x="168" y="638" on="1"/>
        <pt x="329" y="637" on="0"/>
        <pt x="536" y="468" on="0"/>
        <pt x="536" y="162" on="0"/>
        <pt x="331" y="0" on="0"/>
        <pt x="163" y="0" on="1"/>
        <pt x="49" y="0" on="1"/>
        <pt x="25" y="0" on="0"/>
        <pt x="25" y="52" on="0"/>
        <pt x="49" y="52" on="1"/>
        <pt x="73" y="52" on="1"/>
        <pt x="73" y="283" on="1"/>
        <pt x="35" y="283" on="1"/>
        <pt x="13" y="283" on="0"/>
        <pt x="13" y="332" on="0"/>
        <pt x="35" y="332" on="1"/>
        <pt x="73" y="332" on="1"/>
      </contour>
      <contour>
        <pt x="209" y="283" on="1"/>
        <pt x="130" y="283" on="1"/>
        <pt x="130" y="57" on="1"/>
        <pt x="130" y="45" on="0"/>
        <pt x="229" y="45" on="0"/>
        <pt x="336" y="76" on="0"/>
        <pt x="427" y="137" on="0"/>
        <pt x="481" y="244" on="0"/>
        <pt x="481" y="404" on="0"/>
        <pt x="436" y="469" on="1"/>
        <pt x="351" y="592" on="0"/>
        <pt x="174" y="592" on="1"/>
        <pt x="130" y="592" on="0"/>
        <pt x="130" y="580" on="1"/>
        <pt x="130" y="332" on="1"/>
        <pt x="209" y="332" on="1"/>
        <pt x="232" y="332" on="0"/>
        <pt x="232" y="283" on="0"/>
      </contour>
    </TTGlyph>
    <TTGlyph name="Euro" xMin="15" yMin="-10" xMax="542" yMax="648">
      <contour>
        <pt x="516" y="169" on="1"/>
        <pt x="526" y="169" on="0"/>
        <pt x="542" y="152" on="0"/>
        <pt x="542" y="141" on="1"/>
        <pt x="542" y="90" on="0"/>
        <pt x="432" y="-10" on="0"/>
        <pt x="260" y="-10" on="0"/>
        <pt x="122" y="103" on="0"/>
        <pt x="98" y="211" on="1"/>
        <pt x="40" y="211" on="1"/>
        <pt x="15" y="211" on="0"/>
        <pt x="15" y="265" on="0"/>
        <pt x="40" y="265" on="1"/>
        <pt x="90" y="265" on="1"/>
        <pt x="88" y="297" on="0"/>
        <pt x="88" y="317" on="1"/>
        <pt x="88" y="338" on="1"/>
        <pt x="56" y="338" on="1"/>
        <pt x="31" y="338" on="0"/>
        <pt x="31" y="392" on="0"/>
        <pt x="56" y="392" on="1"/>
        <pt x="93" y="392" on="1"/>
        <pt x="105" y="474" on="0"/>
        <pt x="146" y="534" on="1"/>
        <pt x="225" y="648" on="0"/>
        <pt x="349" y="648" on="1"/>
        <pt x="403" y="648" on="0"/>
        <pt x="488" y="604" on="0"/>
        <pt x="488" y="562" on="1"/>
        <pt x="488" y="547" on="0"/>
        <pt x="469" y="524" on="0"/>
        <pt x="429" y="524" on="0"/>
        <pt x="393" y="559" on="0"/>
        <pt x="393" y="587" on="0"/>
        <pt x="397" y="594" on="1"/>
        <pt x="380" y="604" on="0"/>
        <pt x="345" y="604" on="1"/>
        <pt x="278" y="604" on="0"/>
        <pt x="164" y="485" on="0"/>
        <pt x="148" y="392" on="1"/>
        <pt x="354" y="392" on="1"/>
        <pt x="379" y="392" on="0"/>
        <pt x="379" y="338" on="0"/>
        <pt x="354" y="338" on="1"/>
        <pt x="143" y="338" on="1"/>
        <pt x="143" y="325" on="1"/>
        <pt x="143" y="298" on="0"/>
        <pt x="148" y="265" on="1"/>
        <pt x="303" y="265" on="1"/>
        <pt x="328" y="265" on="0"/>
        <pt x="328" y="211" on="0"/>
        <pt x="303" y="211" on="1"/>
        <pt x="160" y="211" on="1"/>
        <pt x="183" y="135" on="0"/>
        <pt x="282" y="36" on="0"/>
        <pt x="401" y="36" on="0"/>
        <pt x="472" y="96" on="0"/>
        <pt x="485" y="146" on="1"/>
        <pt x="490" y="169" on="0"/>
      </contour>
    </TTGlyph>
    <TTGlyph name="F" xMin="25" yMin="0" xMax="462" yMax="638">
      <contour>
        <pt x="130" y="52" on="1"/>
        <pt x="160" y="52" on="1"/>
        <pt x="185" y="52" on="0"/>
        <pt x="185" y="0" on="0"/>
        <pt x="160" y="0" on="1"/>
        <pt x="49" y="0" on="1"/>
        <pt x="25" y="0" on="0"/>
        <pt x="25" y="52" on="0"/>
        <pt x="49" y="52" on="1"/>
        <pt x="73" y="52" on="1"/>
        <pt x="73" y="585" on="1"/>
        <pt x="49" y="585" on="1"/>
        <pt x="25" y="585" on="0"/>
        <pt x="25" y="638" on="0"/>
        <pt x="49" y="638" on="1"/>
        <pt x="359" y="638" on="1"/>
        <pt x="385" y="638" on="0"/>
        <pt x="395" y="625" on="1"/>
        <pt x="455" y="555" on="1"/>
        <pt x="462" y="546" on="0"/>
        <pt x="462" y="538" on="1"/>
        <pt x="462" y="520" on="0"/>
        <pt x="443" y="520" on="1"/>
        <pt x="431" y="520" on="0"/>
        <pt x="423" y="528" on="1"/>
        <pt x="351" y="590" on="1"/>
        <pt x="130" y="590" on="1"/>
        <pt x="130" y="477" on="1"/>
        <pt x="313" y="477" on="1"/>
        <pt x="306" y="488" on="0"/>
        <pt x="306" y="506" on="0"/>
        <pt x="321" y="521" on="0"/>
        <pt x="347" y="521" on="0"/>
        <pt x="354" y="510" on="1"/>
        <pt x="398" y="439" on="1"/>
        <pt x="403" y="431" on="0"/>
        <pt x="403" y="424" on="1"/>
        <pt x="403" y="402" on="0"/>
        <pt x="382" y="402" on="1"/>
        <pt x="369" y="402" on="0"/>
        <pt x="360" y="414" on="1"/>
        <pt x="348" y="429" on="1"/>
        <pt x="130" y="429" on="1"/>
      </contour>
    </TTGlyph>
    <TTGlyph name="G" xMin="15" yMin="-10" xMax="539" yMax="648">
      <contour>
        <pt x="159" y="-10" on="0"/>
        <pt x="15" y="164" on="0"/>
        <pt x="15" y="470" on="0"/>
        <pt x="169" y="648" on="0"/>
        <pt x="274" y="648" on="1"/>
        <pt x="328" y="648" on="0"/>
        <pt x="412" y="603" on="0"/>
        <pt x="412" y="562" on="1"/>
        <pt x="412" y="543" on="0"/>
        <pt x="392" y="519" on="0"/>
        <pt x="350" y="519" on="0"/>
        <pt x="313" y="553" on="0"/>
        <pt x="313" y="582" on="0"/>
        <pt x="318" y="592" on="1"/>
        <pt x="300" y="600" on="0"/>
        <pt x="275" y="600" on="1"/>
        <pt x="192" y="600" on="0"/>
        <pt x="73" y="440" on="0"/>
        <pt x="73" y="323" on="1"/>
        <pt x="73" y="253" on="0"/>
        <pt x="118" y="125" on="0"/>
        <pt x="209" y="40" on="0"/>
        <pt x="339" y="40" on="0"/>
        <pt x="409" y="145" on="0"/>
        <pt x="409" y="210" on="1"/>
        <pt x="409" y="269" on="1"/>
        <pt x="290" y="269" on="1"/>
        <pt x="267" y="269" on="0"/>
        <pt x="267" y="321" on="0"/>
        <pt x="290" y="321" on="1"/>
        <pt x="518" y="321" on="1"/>
        <pt x="539" y="321" on="0"/>
        <pt x="539" y="269" on="0"/>
        <pt x="518" y="269" on="1"/>
        <pt x="466" y="269" on="1"/>
        <pt x="466" y="215" on="1"/>
        <pt x="466" y="139" on="0"/>
        <pt x="498" y="101" on="1"/>
        <pt x="518" y="81" on="0"/>
        <pt x="518" y="55" on="0"/>
        <pt x="499" y="38" on="0"/>
        <pt x="488" y="38" on="1"/>
        <pt x="461" y="38" on="0"/>
        <pt x="435" y="92" on="1"/>
        <pt x="418" y="50" on="0"/>
        <pt x="330" y="-10" on="0"/>
        <pt x="266" y="-10" on="1"/>
      </contour>
    </TTGlyph>
    <TTGlyph name="Gbreve" xMin="15" yMin="-10" xMax="539" yMax="816">
      <contour>
        <pt x="159" y="-10" on="0"/>
        <pt x="15" y="164" on="0"/>
        <pt x="15" y="470" on="0"/>
        <pt x="169" y="648" on="0"/>
        <pt x="274" y="648" on="1"/>
        <pt x="328" y="648" on="0"/>
        <pt x="412" y="603" on="0"/>
        <pt x="412" y="562" on="1"/>
        <pt x="412" y="543" on="0"/>
        <pt x="392" y="519" on="0"/>
        <pt x="350" y="519" on="0"/>
        <pt x="313" y="553" on="0"/>
        <pt x="313" y="582" on="0"/>
        <pt x="318" y="592" on="1"/>
        <pt x="300" y="600" on="0"/>
        <pt x="275" y="600" on="1"/>
        <pt x="192" y="600" on="0"/>
        <pt x="73" y="440" on="0"/>
        <pt x="73" y="323" on="1"/>
        <pt x="73" y="253" on="0"/>
        <pt x="118" y="125" on="0"/>
        <pt x="209" y="40" on="0"/>
        <pt x="339" y="40" on="0"/>
        <pt x="409" y="145" on="0"/>
        <pt x="409" y="210" on="1"/>
        <pt x="409" y="269" on="1"/>
        <pt x="290" y="269" on="1"/>
        <pt x="267" y="269" on="0"/>
        <pt x="267" y="321" on="0"/>
        <pt x="290" y="321" on="1"/>
        <pt x="518" y="321" on="1"/>
        <pt x="539" y="321" on="0"/>
        <pt x="539" y="269" on="0"/>
        <pt x="518" y="269" on="1"/>
        <pt x="466" y="269" on="1"/>
        <pt x="466" y="215" on="1"/>
        <pt x="466" y="139" on="0"/>
        <pt x="498" y="101" on="1"/>
        <pt x="518" y="81" on="0"/>
        <pt x="518" y="55" on="0"/>
        <pt x="499" y="38" on="0"/>
        <pt x="488" y="38" on="1"/>
        <pt x="461" y="38" on="0"/>
        <pt x="435" y="92" on="1"/>
        <pt x="418" y="50" on="0"/>
        <pt x="330" y="-10" on="0"/>
        <pt x="266" y="-10" on="1"/>
      </contour>
      <contour>
        <pt x="411" y="727" on="0"/>
        <pt x="339" y="672" on="0"/>
        <pt x="208" y="672" on="0"/>
        <pt x="136" y="727" on="0"/>
        <pt x="136" y="769" on="1"/>
        <pt x="136" y="793" on="0"/>
        <pt x="158" y="816" on="0"/>
        <pt x="171" y="816" on="1"/>
        <pt x="196" y="816" on="0"/>
        <pt x="196" y="788" on="1"/>
        <pt x="196" y="782" on="0"/>
        <pt x="184" y="762" on="0"/>
        <pt x="176" y="758" on="1"/>
        <pt x="180" y="718" on="0"/>
        <pt x="367" y="718" on="0"/>
        <pt x="371" y="758" on="1"/>
        <pt x="363" y="762" on="0"/>
        <pt x="351" y="782" on="0"/>
        <pt x="351" y="788" on="1"/>
        <pt x="351" y="816" on="0"/>
        <pt x="376" y="816" on="1"/>
        <pt x="389" y="816" on="0"/>
        <pt x="411" y="793" on="0"/>
        <pt x="411" y="769" on="1"/>
      </contour>
    </TTGlyph>
    <TTGlyph name="Gcircumflex" xMin="15" yMin="-10" xMax="539" yMax="806">
      <contour>
        <pt x="159" y="-10" on="0"/>
        <pt x="15" y="164" on="0"/>
        <pt x="15" y="470" on="0"/>
        <pt x="169" y="648" on="0"/>
        <pt x="274" y="648" on="1"/>
        <pt x="328" y="648" on="0"/>
        <pt x="412" y="603" on="0"/>
        <pt x="412" y="562" on="1"/>
        <pt x="412" y="543" on="0"/>
        <pt x="392" y="519" on="0"/>
        <pt x="350" y="519" on="0"/>
        <pt x="313" y="553" on="0"/>
        <pt x="313" y="582" on="0"/>
        <pt x="318" y="592" on="1"/>
        <pt x="300" y="600" on="0"/>
        <pt x="275" y="600" on="1"/>
        <pt x="192" y="600" on="0"/>
        <pt x="73" y="440" on="0"/>
        <pt x="73" y="323" on="1"/>
        <pt x="73" y="253" on="0"/>
        <pt x="118" y="125" on="0"/>
        <pt x="209" y="40" on="0"/>
        <pt x="339" y="40" on="0"/>
        <pt x="409" y="145" on="0"/>
        <pt x="409" y="210" on="1"/>
        <pt x="409" y="269" on="1"/>
        <pt x="290" y="269" on="1"/>
        <pt x="267" y="269" on="0"/>
        <pt x="267" y="321" on="0"/>
        <pt x="290" y="321" on="1"/>
        <pt x="518" y="321" on="1"/>
        <pt x="539" y="321" on="0"/>
        <pt x="539" y="269" on="0"/>
        <pt x="518" y="269" on="1"/>
        <pt x="466" y="269" on="1"/>
        <pt x="466" y="215" on="1"/>
        <pt x="466" y="139" on="0"/>
        <pt x="498" y="101" on="1"/>
        <pt x="518" y="81" on="0"/>
        <pt x="518" y="55" on="0"/>
        <pt x="499" y="38" on="0"/>
        <pt x="488" y="38" on="1"/>
        <pt x="461" y="38" on="0"/>
        <pt x="435" y="92" on="1"/>
        <pt x="418" y="50" on="0"/>
        <pt x="330" y="-10" on="0"/>
        <pt x="266" y="-10" on="1"/>
      </contour>
      <contour>
        <pt x="396" y="716" on="1"/>
        <pt x="405" y="708" on="0"/>
        <pt x="405" y="688" on="0"/>
        <pt x="391" y="676" on="0"/>
        <pt x="371" y="676" on="0"/>
        <pt x="362" y="682" on="1"/>
        <pt x="273" y="747" on="1"/>
        <pt x="185" y="682" on="1"/>
        <pt x="178" y="676" on="0"/>
        <pt x="157" y="676" on="0"/>
        <pt x="143" y="689" on="0"/>
        <pt x="143" y="711" on="0"/>
        <pt x="151" y="716" on="1"/>
        <pt x="273" y="806" on="1"/>
      </contour>
    </TTGlyph>
    <TTGlyph name="Gcommaaccent" xMin="15" yMin="-200" xMax="539" yMax="648">
      <contour>
        <pt x="159" y="-10" on="0"/>
        <pt x="15" y="164" on="0"/>
        <pt x="15" y="470" on="0"/>
        <pt x="169" y="648" on="0"/>
        <pt x="274" y="648" on="1"/>
        <pt x="328" y="648" on="0"/>
        <pt x="412" y="603" on="0"/>
        <pt x="412" y="562" on="1"/>
        <pt x="412" y="543" on="0"/>
        <pt x="392" y="519" on="0"/>
        <pt x="350" y="519" on="0"/>
        <pt x="313" y="553" on="0"/>
        <pt x="313" y="582" on="0"/>
        <pt x="318" y="592" on="1"/>
        <pt x="300" y="600" on="0"/>
        <pt x="275" y="600" on="1"/>
        <pt x="192" y="600" on="0"/>
        <pt x="73" y="440" on="0"/>
        <pt x="73" y="323" on="1"/>
        <pt x="73" y="253" on="0"/>
        <pt x="118" y="125" on="0"/>
        <pt x="209" y="40" on="0"/>
        <pt x="339" y="40" on="0"/>
        <pt x="409" y="145" on="0"/>
        <pt x="409" y="210" on="1"/>
        <pt x="409" y="269" on="1"/>
        <pt x="290" y="269" on="1"/>
        <pt x="267" y="269" on="0"/>
        <pt x="267" y="321" on="0"/>
        <pt x="290" y="321" on="1"/>
        <pt x="518" y="321" on="1"/>
        <pt x="539" y="321" on="0"/>
        <pt x="539" y="269" on="0"/>
        <pt x="518" y="269" on="1"/>
        <pt x="466" y="269" on="1"/>
        <pt x="466" y="215" on="1"/>
        <pt x="466" y="139" on="0"/>
        <pt x="498" y="101" on="1"/>
        <pt x="518" y="81" on="0"/>
        <pt x="518" y="55" on="0"/>
        <pt x="499" y="38" on="0"/>
        <pt x="488" y="38" on="1"/>
        <pt x="461" y="38" on="0"/>
        <pt x="435" y="92" on="1"/>
        <pt x="418" y="50" on="0"/>
        <pt x="330" y="-10" on="0"/>
        <pt x="266" y="-10" on="1"/>
      </contour>
      <contour>
        <pt x="250" y="-133" on="0"/>
        <pt x="223" y="-108" on="0"/>
        <pt x="223" y="-71" on="0"/>
        <pt x="251" y="-41" on="0"/>
        <pt x="297" y="-41" on="0"/>
        <pt x="324" y="-81" on="0"/>
        <pt x="324" y="-138" on="0"/>
        <pt x="271" y="-200" on="0"/>
        <pt x="245" y="-200" on="1"/>
        <pt x="236" y="-200" on="0"/>
        <pt x="236" y="-194" on="0"/>
        <pt x="250" y="-181" on="0"/>
        <pt x="256" y="-174" on="0"/>
        <pt x="265" y="-162" on="0"/>
        <pt x="270" y="-149" on="0"/>
        <pt x="270" y="-137" on="0"/>
        <pt x="269" y="-134" on="1"/>
      </contour>
    </TTGlyph>
    <TTGlyph name="Gdotaccent" xMin="15" yMin="-10" xMax="539" yMax="793">
      <contour>
        <pt x="159" y="-10" on="0"/>
        <pt x="15" y="164" on="0"/>
        <pt x="15" y="470" on="0"/>
        <pt x="169" y="648" on="0"/>
        <pt x="274" y="648" on="1"/>
        <pt x="328" y="648" on="0"/>
        <pt x="412" y="603" on="0"/>
        <pt x="412" y="562" on="1"/>
        <pt x="412" y="543" on="0"/>
        <pt x="392" y="519" on="0"/>
        <pt x="350" y="519" on="0"/>
        <pt x="313" y="553" on="0"/>
        <pt x="313" y="582" on="0"/>
        <pt x="318" y="592" on="1"/>
        <pt x="300" y="600" on="0"/>
        <pt x="275" y="600" on="1"/>
        <pt x="192" y="600" on="0"/>
        <pt x="73" y="440" on="0"/>
        <pt x="73" y="323" on="1"/>
        <pt x="73" y="253" on="0"/>
        <pt x="118" y="125" on="0"/>
        <pt x="209" y="40" on="0"/>
        <pt x="339" y="40" on="0"/>
        <pt x="409" y="145" on="0"/>
        <pt x="409" y="210" on="1"/>
        <pt x="409" y="269" on="1"/>
        <pt x="290" y="269" on="1"/>
        <pt x="267" y="269" on="0"/>
        <pt x="267" y="321" on="0"/>
        <pt x="290" y="321" on="1"/>
        <pt x="518" y="321" on="1"/>
        <pt x="539" y="321" on="0"/>
        <pt x="539" y="269" on="0"/>
        <pt x="518" y="269" on="1"/>
        <pt x="466" y="269" on="1"/>
        <pt x="466" y="215" on="1"/>
        <pt x="466" y="139" on="0"/>
        <pt x="498" y="101" on="1"/>
        <pt x="518" y="81" on="0"/>
        <pt x="518" y="55" on="0"/>
        <pt x="499" y="38" on="0"/>
        <pt x="488" y="38" on="1"/>
        <pt x="461" y="38" on="0"/>
        <pt x="435" y="92" on="1"/>
        <pt x="418" y="50" on="0"/>
        <pt x="330" y="-10" on="0"/>
        <pt x="266" y="-10" on="1"/>
      </contour>
      <contour>
        <pt x="293" y="793" on="0"/>
        <pt x="320" y="767" on="0"/>
        <pt x="320" y="730" on="0"/>
        <pt x="293" y="704" on="0"/>
        <pt x="254" y="704" on="0"/>
        <pt x="227" y="730" on="0"/>
        <pt x="227" y="767" on="0"/>
        <pt x="253" y="793" on="0"/>
      </contour>
    </TTGlyph>
    <TTGlyph name="H" xMin="17" yMin="0" xMax="471" yMax="638">
      <contour>
        <pt x="447" y="52" on="1"/>
        <pt x="471" y="52" on="0"/>
        <pt x="471" y="0" on="0"/>
        <pt x="447" y="0" on="1"/>
        <pt x="340" y="0" on="1"/>
        <pt x="330" y="0" on="0"/>
        <pt x="316" y="15" on="0"/>
        <pt x="316" y="26" on="1"/>
        <pt x="316" y="52" on="0"/>
        <pt x="340" y="52" on="1"/>
        <pt x="364" y="52" on="1"/>
        <pt x="364" y="430" on="1"/>
        <pt x="124" y="430" on="1"/>
        <pt x="124" y="52" on="1"/>
        <pt x="148" y="52" on="1"/>
        <pt x="172" y="52" on="0"/>
        <pt x="172" y="0" on="0"/>
        <pt x="148" y="0" on="1"/>
        <pt x="41" y="0" on="1"/>
        <pt x="17" y="0" on="0"/>
        <pt x="17" y="52" on="0"/>
        <pt x="41" y="52" on="1"/>
        <pt x="67" y="52" on="1"/>
        <pt x="67" y="585" on="1"/>
        <pt x="42" y="585" on="1"/>
        <pt x="17" y="585" on="0"/>
        <pt x="17" y="638" on="0"/>
        <pt x="42" y="638" on="1"/>
        <pt x="149" y="638" on="1"/>
        <pt x="173" y="638" on="0"/>
        <pt x="173" y="585" on="0"/>
        <pt x="149" y="585" on="1"/>
        <pt x="124" y="585" on="1"/>
        <pt x="124" y="478" on="1"/>
        <pt x="364" y="478" on="1"/>
        <pt x="364" y="585" on="1"/>
        <pt x="339" y="585" on="1"/>
        <pt x="315" y="585" on="0"/>
        <pt x="315" y="638" on="0"/>
        <pt x="339" y="638" on="1"/>
        <pt x="446" y="638" on="1"/>
        <pt x="471" y="638" on="0"/>
        <pt x="471" y="585" on="0"/>
        <pt x="446" y="585" on="1"/>
        <pt x="421" y="585" on="1"/>
        <pt x="421" y="52" on="1"/>
      </contour>
    </TTGlyph>
    <TTGlyph name="Hbar" xMin="17" yMin="0" xMax="474" yMax="638">
      <contour>
        <pt x="452" y="432" on="1"/>
        <pt x="421" y="432" on="1"/>
        <pt x="421" y="52" on="1"/>
        <pt x="447" y="52" on="1"/>
        <pt x="471" y="52" on="0"/>
        <pt x="471" y="0" on="0"/>
        <pt x="447" y="0" on="1"/>
        <pt x="340" y="0" on="1"/>
        <pt x="330" y="0" on="0"/>
        <pt x="316" y="15" on="0"/>
        <pt x="316" y="26" on="1"/>
        <pt x="316" y="52" on="0"/>
        <pt x="340" y="52" on="1"/>
        <pt x="364" y="52" on="1"/>
        <pt x="364" y="288" on="1"/>
        <pt x="124" y="288" on="1"/>
        <pt x="124" y="52" on="1"/>
        <pt x="148" y="52" on="1"/>
        <pt x="172" y="52" on="0"/>
        <pt x="172" y="0" on="0"/>
        <pt x="148" y="0" on="1"/>
        <pt x="41" y="0" on="1"/>
        <pt x="17" y="0" on="0"/>
        <pt x="17" y="52" on="0"/>
        <pt x="41" y="52" on="1"/>
        <pt x="67" y="52" on="1"/>
        <pt x="67" y="432" on="1"/>
        <pt x="39" y="432" on="1"/>
        <pt x="18" y="432" on="0"/>
        <pt x="18" y="479" on="0"/>
        <pt x="39" y="479" on="1"/>
        <pt x="67" y="479" on="1"/>
        <pt x="67" y="585" on="1"/>
        <pt x="42" y="585" on="1"/>
        <pt x="17" y="585" on="0"/>
        <pt x="17" y="638" on="0"/>
        <pt x="42" y="638" on="1"/>
        <pt x="149" y="638" on="1"/>
        <pt x="173" y="638" on="0"/>
        <pt x="173" y="585" on="0"/>
        <pt x="149" y="585" on="1"/>
        <pt x="124" y="585" on="1"/>
        <pt x="124" y="479" on="1"/>
        <pt x="364" y="479" on="1"/>
        <pt x="364" y="585" on="1"/>
        <pt x="339" y="585" on="1"/>
        <pt x="315" y="585" on="0"/>
        <pt x="315" y="638" on="0"/>
        <pt x="339" y="638" on="1"/>
        <pt x="446" y="638" on="1"/>
        <pt x="471" y="638" on="0"/>
        <pt x="471" y="585" on="0"/>
        <pt x="446" y="585" on="1"/>
        <pt x="421" y="585" on="1"/>
        <pt x="421" y="479" on="1"/>
        <pt x="452" y="479" on="1"/>
        <pt x="474" y="479" on="0"/>
        <pt x="474" y="455" on="1"/>
        <pt x="474" y="446" on="0"/>
        <pt x="462" y="432" on="0"/>
      </contour>
      <contour>
        <pt x="124" y="336" on="1"/>
        <pt x="364" y="336" on="1"/>
        <pt x="364" y="432" on="1"/>
        <pt x="124" y="432" on="1"/>
      </contour>
    </TTGlyph>
    <TTGlyph name="Hcircumflex" xMin="17" yMin="0" xMax="471" yMax="806">
      <contour>
        <pt x="447" y="52" on="1"/>
        <pt x="471" y="52" on="0"/>
        <pt x="471" y="0" on="0"/>
        <pt x="447" y="0" on="1"/>
        <pt x="340" y="0" on="1"/>
        <pt x="330" y="0" on="0"/>
        <pt x="316" y="15" on="0"/>
        <pt x="316" y="26" on="1"/>
        <pt x="316" y="52" on="0"/>
        <pt x="340" y="52" on="1"/>
        <pt x="364" y="52" on="1"/>
        <pt x="364" y="430" on="1"/>
        <pt x="124" y="430" on="1"/>
        <pt x="124" y="52" on="1"/>
        <pt x="148" y="52" on="1"/>
        <pt x="172" y="52" on="0"/>
        <pt x="172" y="0" on="0"/>
        <pt x="148" y="0" on="1"/>
        <pt x="41" y="0" on="1"/>
        <pt x="17" y="0" on="0"/>
        <pt x="17" y="52" on="0"/>
        <pt x="41" y="52" on="1"/>
        <pt x="67" y="52" on="1"/>
        <pt x="67" y="585" on="1"/>
        <pt x="42" y="585" on="1"/>
        <pt x="17" y="585" on="0"/>
        <pt x="17" y="638" on="0"/>
        <pt x="42" y="638" on="1"/>
        <pt x="149" y="638" on="1"/>
        <pt x="173" y="638" on="0"/>
        <pt x="173" y="585" on="0"/>
        <pt x="149" y="585" on="1"/>
        <pt x="124" y="585" on="1"/>
        <pt x="124" y="478" on="1"/>
        <pt x="364" y="478" on="1"/>
        <pt x="364" y="585" on="1"/>
        <pt x="339" y="585" on="1"/>
        <pt x="315" y="585" on="0"/>
        <pt x="315" y="638" on="0"/>
        <pt x="339" y="638" on="1"/>
        <pt x="446" y="638" on="1"/>
        <pt x="471" y="638" on="0"/>
        <pt x="471" y="585" on="0"/>
        <pt x="446" y="585" on="1"/>
        <pt x="421" y="585" on="1"/>
        <pt x="421" y="52" on="1"/>
      </contour>
      <contour>
        <pt x="372" y="716" on="1"/>
        <pt x="381" y="708" on="0"/>
        <pt x="381" y="688" on="0"/>
        <pt x="367" y="676" on="0"/>
        <pt x="347" y="676" on="0"/>
        <pt x="338" y="682" on="1"/>
        <pt x="249" y="747" on="1"/>
        <pt x="161" y="682" on="1"/>
        <pt x="153" y="676" on="0"/>
        <pt x="133" y="676" on="0"/>
        <pt x="119" y="689" on="0"/>
        <pt x="119" y="711" on="0"/>
        <pt x="127" y="716" on="1"/>
        <pt x="249" y="806" on="1"/>
      </contour>
    </TTGlyph>
    <TTGlyph name="I" xMin="25" yMin="0" xMax="189" yMax="638">
      <contour>
        <pt x="78" y="52" on="1"/>
        <pt x="78" y="585" on="1"/>
        <pt x="49" y="585" on="1"/>
        <pt x="25" y="585" on="0"/>
        <pt x="25" y="638" on="0"/>
        <pt x="49" y="638" on="1"/>
        <pt x="164" y="638" on="1"/>
        <pt x="189" y="638" on="0"/>
        <pt x="189" y="585" on="0"/>
        <pt x="164" y="585" on="1"/>
        <pt x="135" y="585" on="1"/>
        <pt x="135" y="52" on="1"/>
        <pt x="164" y="52" on="1"/>
        <pt x="188" y="52" on="0"/>
        <pt x="188" y="0" on="0"/>
        <pt x="164" y="0" on="1"/>
        <pt x="49" y="0" on="1"/>
        <pt x="25" y="0" on="0"/>
        <pt x="25" y="52" on="0"/>
        <pt x="49" y="52" on="1"/>
      </contour>
    </TTGlyph>
    <TTGlyph name="Iacute" xMin="25" yMin="0" xMax="189" yMax="817">
      <contour>
        <pt x="78" y="52" on="1"/>
        <pt x="78" y="585" on="1"/>
        <pt x="49" y="585" on="1"/>
        <pt x="25" y="585" on="0"/>
        <pt x="25" y="638" on="0"/>
        <pt x="49" y="638" on="1"/>
        <pt x="164" y="638" on="1"/>
        <pt x="189" y="638" on="0"/>
        <pt x="189" y="585" on="0"/>
        <pt x="164" y="585" on="1"/>
        <pt x="135" y="585" on="1"/>
        <pt x="135" y="52" on="1"/>
        <pt x="164" y="52" on="1"/>
        <pt x="188" y="52" on="0"/>
        <pt x="188" y="0" on="0"/>
        <pt x="164" y="0" on="1"/>
        <pt x="49" y="0" on="1"/>
        <pt x="25" y="0" on="0"/>
        <pt x="25" y="52" on="0"/>
        <pt x="49" y="52" on="1"/>
      </contour>
      <contour>
        <pt x="54" y="668" on="1"/>
        <pt x="41" y="668" on="0"/>
        <pt x="41" y="681" on="1"/>
        <pt x="41" y="683" on="0"/>
        <pt x="43" y="687" on="1"/>
        <pt x="106" y="795" on="1"/>
        <pt x="118" y="817" on="0"/>
        <pt x="153" y="817" on="0"/>
        <pt x="172" y="800" on="0"/>
        <pt x="172" y="772" on="0"/>
        <pt x="156" y="757" on="1"/>
        <pt x="64" y="672" on="1"/>
        <pt x="60" y="668" on="0"/>
      </contour>
    </TTGlyph>
    <TTGlyph name="Ibreve" xMin="-30" yMin="0" xMax="245" yMax="816">
      <contour>
        <pt x="78" y="52" on="1"/>
        <pt x="78" y="585" on="1"/>
        <pt x="49" y="585" on="1"/>
        <pt x="25" y="585" on="0"/>
        <pt x="25" y="638" on="0"/>
        <pt x="49" y="638" on="1"/>
        <pt x="164" y="638" on="1"/>
        <pt x="189" y="638" on="0"/>
        <pt x="189" y="585" on="0"/>
        <pt x="164" y="585" on="1"/>
        <pt x="135" y="585" on="1"/>
        <pt x="135" y="52" on="1"/>
        <pt x="164" y="52" on="1"/>
        <pt x="188" y="52" on="0"/>
        <pt x="188" y="0" on="0"/>
        <pt x="164" y="0" on="1"/>
        <pt x="49" y="0" on="1"/>
        <pt x="25" y="0" on="0"/>
        <pt x="25" y="52" on="0"/>
        <pt x="49" y="52" on="1"/>
      </contour>
      <contour>
        <pt x="245" y="727" on="0"/>
        <pt x="173" y="672" on="0"/>
        <pt x="42" y="672" on="0"/>
        <pt x="-30" y="727" on="0"/>
        <pt x="-30" y="769" on="1"/>
        <pt x="-30" y="793" on="0"/>
        <pt x="-8" y="816" on="0"/>
        <pt x="5" y="816" on="1"/>
        <pt x="30" y="816" on="0"/>
        <pt x="30" y="788" on="1"/>
        <pt x="30" y="782" on="0"/>
        <pt x="18" y="762" on="0"/>
        <pt x="10" y="758" on="1"/>
        <pt x="14" y="718" on="0"/>
        <pt x="201" y="718" on="0"/>
        <pt x="205" y="758" on="1"/>
        <pt x="197" y="762" on="0"/>
        <pt x="185" y="782" on="0"/>
        <pt x="185" y="788" on="1"/>
        <pt x="185" y="816" on="0"/>
        <pt x="210" y="816" on="1"/>
        <pt x="223" y="816" on="0"/>
        <pt x="245" y="793" on="0"/>
        <pt x="245" y="769" on="1"/>
      </contour>
    </TTGlyph>
    <TTGlyph name="Icircumflex" xMin="-24" yMin="0" xMax="238" yMax="806">
      <contour>
        <pt x="78" y="52" on="1"/>
        <pt x="78" y="585" on="1"/>
        <pt x="49" y="585" on="1"/>
        <pt x="25" y="585" on="0"/>
        <pt x="25" y="638" on="0"/>
        <pt x="49" y="638" on="1"/>
        <pt x="164" y="638" on="1"/>
        <pt x="189" y="638" on="0"/>
        <pt x="189" y="585" on="0"/>
        <pt x="164" y="585" on="1"/>
        <pt x="135" y="585" on="1"/>
        <pt x="135" y="52" on="1"/>
        <pt x="164" y="52" on="1"/>
        <pt x="188" y="52" on="0"/>
        <pt x="188" y="0" on="0"/>
        <pt x="164" y="0" on="1"/>
        <pt x="49" y="0" on="1"/>
        <pt x="25" y="0" on="0"/>
        <pt x="25" y="52" on="0"/>
        <pt x="49" y="52" on="1"/>
      </contour>
      <contour>
        <pt x="229" y="716" on="1"/>
        <pt x="238" y="708" on="0"/>
        <pt x="238" y="688" on="0"/>
        <pt x="224" y="676" on="0"/>
        <pt x="204" y="676" on="0"/>
        <pt x="195" y="682" on="1"/>
        <pt x="106" y="747" on="1"/>
        <pt x="18" y="682" on="1"/>
        <pt x="10" y="676" on="0"/>
        <pt x="-10" y="676" on="0"/>
        <pt x="-24" y="689" on="0"/>
        <pt x="-24" y="711" on="0"/>
        <pt x="-16" y="716" on="1"/>
        <pt x="106" y="806" on="1"/>
      </contour>
    </TTGlyph>
    <TTGlyph name="Idieresis" xMin="-31" yMin="0" xMax="246" yMax="765">
      <contour>
        <pt x="78" y="52" on="1"/>
        <pt x="78" y="585" on="1"/>
        <pt x="49" y="585" on="1"/>
        <pt x="25" y="585" on="0"/>
        <pt x="25" y="638" on="0"/>
        <pt x="49" y="638" on="1"/>
        <pt x="164" y="638" on="1"/>
        <pt x="189" y="638" on="0"/>
        <pt x="189" y="585" on="0"/>
        <pt x="164" y="585" on="1"/>
        <pt x="135" y="585" on="1"/>
        <pt x="135" y="52" on="1"/>
        <pt x="164" y="52" on="1"/>
        <pt x="188" y="52" on="0"/>
        <pt x="188" y="0" on="0"/>
        <pt x="164" y="0" on="1"/>
        <pt x="49" y="0" on="1"/>
        <pt x="25" y="0" on="0"/>
        <pt x="25" y="52" on="0"/>
        <pt x="49" y="52" on="1"/>
      </contour>
      <contour>
        <pt x="30" y="765" on="0"/>
        <pt x="55" y="742" on="0"/>
        <pt x="55" y="707" on="0"/>
        <pt x="29" y="683" on="0"/>
        <pt x="-7" y="683" on="0"/>
        <pt x="-31" y="707" on="0"/>
        <pt x="-31" y="742" on="0"/>
        <pt x="-7" y="765" on="0"/>
      </contour>
      <contour>
        <pt x="221" y="765" on="0"/>
        <pt x="246" y="742" on="0"/>
        <pt x="246" y="707" on="0"/>
        <pt x="220" y="683" on="0"/>
        <pt x="184" y="683" on="0"/>
        <pt x="160" y="707" on="0"/>
        <pt x="160" y="742" on="0"/>
        <pt x="184" y="765" on="0"/>
      </contour>
    </TTGlyph>
    <TTGlyph name="Idotaccent" xMin="25" yMin="0" xMax="189" yMax="793">
      <contour>
        <pt x="78" y="52" on="1"/>
        <pt x="78" y="585" on="1"/>
        <pt x="49" y="585" on="1"/>
        <pt x="25" y="585" on="0"/>
        <pt x="25" y="638" on="0"/>
        <pt x="49" y="638" on="1"/>
        <pt x="164" y="638" on="1"/>
        <pt x="189" y="638" on="0"/>
        <pt x="189" y="585" on="0"/>
        <pt x="164" y="585" on="1"/>
        <pt x="135" y="585" on="1"/>
        <pt x="135" y="52" on="1"/>
        <pt x="164" y="52" on="1"/>
        <pt x="188" y="52" on="0"/>
        <pt x="188" y="0" on="0"/>
        <pt x="164" y="0" on="1"/>
        <pt x="49" y="0" on="1"/>
        <pt x="25" y="0" on="0"/>
        <pt x="25" y="52" on="0"/>
        <pt x="49" y="52" on="1"/>
      </contour>
      <contour>
        <pt x="126" y="793" on="0"/>
        <pt x="153" y="767" on="0"/>
        <pt x="153" y="730" on="0"/>
        <pt x="126" y="704" on="0"/>
        <pt x="87" y="704" on="0"/>
        <pt x="60" y="730" on="0"/>
        <pt x="60" y="767" on="0"/>
        <pt x="86" y="793" on="0"/>
      </contour>
    </TTGlyph>
    <TTGlyph name="Igrave" xMin="25" yMin="0" xMax="189" yMax="817">
      <contour>
        <pt x="78" y="52" on="1"/>
        <pt x="78" y="585" on="1"/>
        <pt x="49" y="585" on="1"/>
        <pt x="25" y="585" on="0"/>
        <pt x="25" y="638" on="0"/>
        <pt x="49" y="638" on="1"/>
        <pt x="164" y="638" on="1"/>
        <pt x="189" y="638" on="0"/>
        <pt x="189" y="585" on="0"/>
        <pt x="164" y="585" on="1"/>
        <pt x="135" y="585" on="1"/>
        <pt x="135" y="52" on="1"/>
        <pt x="164" y="52" on="1"/>
        <pt x="188" y="52" on="0"/>
        <pt x="188" y="0" on="0"/>
        <pt x="164" y="0" on="1"/>
        <pt x="49" y="0" on="1"/>
        <pt x="25" y="0" on="0"/>
        <pt x="25" y="52" on="0"/>
        <pt x="49" y="52" on="1"/>
      </contour>
      <contour>
        <pt x="152" y="668" on="1"/>
        <pt x="146" y="668" on="0"/>
        <pt x="142" y="672" on="1"/>
        <pt x="50" y="757" on="1"/>
        <pt x="34" y="772" on="0"/>
        <pt x="34" y="800" on="0"/>
        <pt x="53" y="817" on="0"/>
        <pt x="88" y="817" on="0"/>
        <pt x="100" y="795" on="1"/>
        <pt x="163" y="687" on="1"/>
        <pt x="165" y="683" on="0"/>
        <pt x="165" y="681" on="1"/>
        <pt x="165" y="668" on="0"/>
      </contour>
    </TTGlyph>
    <TTGlyph name="Imacron" xMin="-2" yMin="0" xMax="217" yMax="748">
      <contour>
        <pt x="78" y="52" on="1"/>
        <pt x="78" y="585" on="1"/>
        <pt x="49" y="585" on="1"/>
        <pt x="25" y="585" on="0"/>
        <pt x="25" y="638" on="0"/>
        <pt x="49" y="638" on="1"/>
        <pt x="164" y="638" on="1"/>
        <pt x="189" y="638" on="0"/>
        <pt x="189" y="585" on="0"/>
        <pt x="164" y="585" on="1"/>
        <pt x="135" y="585" on="1"/>
        <pt x="135" y="52" on="1"/>
        <pt x="164" y="52" on="1"/>
        <pt x="188" y="52" on="0"/>
        <pt x="188" y="0" on="0"/>
        <pt x="164" y="0" on="1"/>
        <pt x="49" y="0" on="1"/>
        <pt x="25" y="0" on="0"/>
        <pt x="25" y="52" on="0"/>
        <pt x="49" y="52" on="1"/>
      </contour>
      <contour>
        <pt x="194" y="699" on="1"/>
        <pt x="20" y="699" on="1"/>
        <pt x="-2" y="699" on="0"/>
        <pt x="-2" y="748" on="0"/>
        <pt x="20" y="748" on="1"/>
        <pt x="194" y="748" on="1"/>
        <pt x="217" y="748" on="0"/>
        <pt x="217" y="699" on="0"/>
      </contour>
    </TTGlyph>
    <TTGlyph name="Iogonek" xMin="25" yMin="-168" xMax="189" yMax="638">
      <contour>
        <pt x="78" y="52" on="1"/>
        <pt x="78" y="585" on="1"/>
        <pt x="49" y="585" on="1"/>
        <pt x="25" y="585" on="0"/>
        <pt x="25" y="638" on="0"/>
        <pt x="49" y="638" on="1"/>
        <pt x="164" y="638" on="1"/>
        <pt x="189" y="638" on="0"/>
        <pt x="189" y="585" on="0"/>
        <pt x="164" y="585" on="1"/>
        <pt x="135" y="585" on="1"/>
        <pt x="135" y="52" on="1"/>
        <pt x="164" y="52" on="1"/>
        <pt x="188" y="52" on="0"/>
        <pt x="188" y="0" on="0"/>
        <pt x="164" y="0" on="1"/>
        <pt x="148" y="0" on="1"/>
        <pt x="78" y="-45" on="0"/>
        <pt x="78" y="-91" on="1"/>
        <pt x="78" y="-110" on="0"/>
        <pt x="97" y="-134" on="0"/>
        <pt x="118" y="-134" on="0"/>
        <pt x="122" y="-132" on="1"/>
        <pt x="118" y="-124" on="0"/>
        <pt x="118" y="-114" on="1"/>
        <pt x="118" y="-83" on="0"/>
        <pt x="145" y="-83" on="1"/>
        <pt x="159" y="-83" on="0"/>
        <pt x="173" y="-104" on="0"/>
        <pt x="173" y="-138" on="0"/>
        <pt x="137" y="-168" on="0"/>
        <pt x="78" y="-168" on="0"/>
        <pt x="35" y="-123" on="0"/>
        <pt x="35" y="-92" on="1"/>
        <pt x="35" y="-37" on="0"/>
        <pt x="92" y="0" on="1"/>
        <pt x="49" y="0" on="1"/>
        <pt x="25" y="0" on="0"/>
        <pt x="25" y="52" on="0"/>
        <pt x="49" y="52" on="1"/>
      </contour>
    </TTGlyph>
    <TTGlyph name="Itilde" xMin="-46" yMin="0" xMax="260" yMax="789">
      <contour>
        <pt x="78" y="52" on="1"/>
        <pt x="78" y="585" on="1"/>
        <pt x="49" y="585" on="1"/>
        <pt x="25" y="585" on="0"/>
        <pt x="25" y="638" on="0"/>
        <pt x="49" y="638" on="1"/>
        <pt x="164" y="638" on="1"/>
        <pt x="189" y="638" on="0"/>
        <pt x="189" y="585" on="0"/>
        <pt x="164" y="585" on="1"/>
        <pt x="135" y="585" on="1"/>
        <pt x="135" y="52" on="1"/>
        <pt x="164" y="52" on="1"/>
        <pt x="188" y="52" on="0"/>
        <pt x="188" y="0" on="0"/>
        <pt x="164" y="0" on="1"/>
        <pt x="49" y="0" on="1"/>
        <pt x="25" y="0" on="0"/>
        <pt x="25" y="52" on="0"/>
        <pt x="49" y="52" on="1"/>
      </contour>
      <contour>
        <pt x="-24" y="679" on="0"/>
        <pt x="-46" y="706" on="0"/>
        <pt x="-46" y="756" on="0"/>
        <pt x="3" y="789" on="0"/>
        <pt x="57" y="789" on="0"/>
        <pt x="104" y="769" on="0"/>
        <pt x="126" y="751" on="0"/>
        <pt x="144" y="734" on="1"/>
        <pt x="171" y="705" on="0"/>
        <pt x="196" y="705" on="0"/>
        <pt x="213" y="720" on="0"/>
        <pt x="214" y="731" on="1"/>
        <pt x="199" y="741" on="0"/>
        <pt x="199" y="759" on="1"/>
        <pt x="199" y="783" on="0"/>
        <pt x="222" y="783" on="1"/>
        <pt x="236" y="783" on="0"/>
        <pt x="260" y="760" on="0"/>
        <pt x="260" y="707" on="0"/>
        <pt x="212" y="673" on="0"/>
        <pt x="157" y="673" on="0"/>
        <pt x="113" y="692" on="0"/>
        <pt x="94" y="710" on="0"/>
        <pt x="78" y="727" on="1"/>
        <pt x="50" y="759" on="0"/>
        <pt x="27" y="759" on="1"/>
        <pt x="18" y="759" on="0"/>
        <pt x="0" y="745" on="0"/>
        <pt x="-1" y="734" on="1"/>
        <pt x="14" y="724" on="0"/>
        <pt x="14" y="679" on="0"/>
        <pt x="-8" y="679" on="1"/>
      </contour>
    </TTGlyph>
    <TTGlyph name="J" xMin="5" yMin="-10" xMax="336" yMax="638">
      <contour>
        <pt x="311" y="638" on="1"/>
        <pt x="336" y="638" on="0"/>
        <pt x="336" y="585" on="0"/>
        <pt x="311" y="585" on="1"/>
        <pt x="281" y="585" on="1"/>
        <pt x="281" y="146" on="1"/>
        <pt x="281" y="72" on="0"/>
        <pt x="203" y="-10" on="0"/>
        <pt x="85" y="-10" on="0"/>
        <pt x="5" y="58" on="0"/>
        <pt x="5" y="105" on="1"/>
        <pt x="5" y="135" on="0"/>
        <pt x="34" y="174" on="0"/>
        <pt x="53" y="174" on="1"/>
        <pt x="90" y="174" on="0"/>
        <pt x="90" y="110" on="0"/>
        <pt x="63" y="89" on="1"/>
        <pt x="70" y="68" on="0"/>
        <pt x="114" y="36" on="0"/>
        <pt x="180" y="36" on="0"/>
        <pt x="224" y="93" on="0"/>
        <pt x="224" y="146" on="1"/>
        <pt x="224" y="585" on="1"/>
        <pt x="192" y="585" on="1"/>
        <pt x="168" y="585" on="0"/>
        <pt x="168" y="638" on="0"/>
        <pt x="192" y="638" on="1"/>
      </contour>
    </TTGlyph>
    <TTGlyph name="Jcircumflex" xMin="5" yMin="-10" xMax="379" yMax="806">
      <contour>
        <pt x="311" y="638" on="1"/>
        <pt x="336" y="638" on="0"/>
        <pt x="336" y="585" on="0"/>
        <pt x="311" y="585" on="1"/>
        <pt x="281" y="585" on="1"/>
        <pt x="281" y="146" on="1"/>
        <pt x="281" y="72" on="0"/>
        <pt x="203" y="-10" on="0"/>
        <pt x="85" y="-10" on="0"/>
        <pt x="5" y="58" on="0"/>
        <pt x="5" y="105" on="1"/>
        <pt x="5" y="135" on="0"/>
        <pt x="34" y="174" on="0"/>
        <pt x="53" y="174" on="1"/>
        <pt x="90" y="174" on="0"/>
        <pt x="90" y="110" on="0"/>
        <pt x="63" y="89" on="1"/>
        <pt x="70" y="68" on="0"/>
        <pt x="114" y="36" on="0"/>
        <pt x="180" y="36" on="0"/>
        <pt x="224" y="93" on="0"/>
        <pt x="224" y="146" on="1"/>
        <pt x="224" y="585" on="1"/>
        <pt x="192" y="585" on="1"/>
        <pt x="168" y="585" on="0"/>
        <pt x="168" y="638" on="0"/>
        <pt x="192" y="638" on="1"/>
      </contour>
      <contour>
        <pt x="370" y="716" on="1"/>
        <pt x="379" y="708" on="0"/>
        <pt x="379" y="688" on="0"/>
        <pt x="365" y="676" on="0"/>
        <pt x="345" y="676" on="0"/>
        <pt x="336" y="682" on="1"/>
        <pt x="247" y="747" on="1"/>
        <pt x="159" y="682" on="1"/>
        <pt x="152" y="676" on="0"/>
        <pt x="131" y="676" on="0"/>
        <pt x="117" y="689" on="0"/>
        <pt x="117" y="711" on="0"/>
        <pt x="125" y="716" on="1"/>
        <pt x="247" y="806" on="1"/>
      </contour>
    </TTGlyph>
    <TTGlyph name="K" xMin="25" yMin="0" xMax="513" yMax="638">
      <contour>
        <pt x="489" y="52" on="1"/>
        <pt x="513" y="52" on="0"/>
        <pt x="513" y="0" on="0"/>
        <pt x="489" y="0" on="1"/>
        <pt x="372" y="0" on="1"/>
        <pt x="348" y="0" on="0"/>
        <pt x="348" y="52" on="0"/>
        <pt x="372" y="52" on="1"/>
        <pt x="393" y="52" on="1"/>
        <pt x="228" y="421" on="1"/>
        <pt x="130" y="344" on="1"/>
        <pt x="130" y="52" on="1"/>
        <pt x="154" y="52" on="1"/>
        <pt x="178" y="52" on="0"/>
        <pt x="178" y="0" on="0"/>
        <pt x="154" y="0" on="1"/>
        <pt x="49" y="0" on="1"/>
        <pt x="39" y="0" on="0"/>
        <pt x="25" y="15" on="0"/>
        <pt x="25" y="26" on="1"/>
        <pt x="25" y="52" on="0"/>
        <pt x="49" y="52" on="1"/>
        <pt x="73" y="52" on="1"/>
        <pt x="73" y="585" on="1"/>
        <pt x="49" y="585" on="1"/>
        <pt x="38" y="585" on="0"/>
        <pt x="25" y="600" on="0"/>
        <pt x="25" y="622" on="0"/>
        <pt x="38" y="638" on="0"/>
        <pt x="49" y="638" on="1"/>
        <pt x="154" y="638" on="1"/>
        <pt x="179" y="638" on="0"/>
        <pt x="179" y="585" on="0"/>
        <pt x="154" y="585" on="1"/>
        <pt x="130" y="585" on="1"/>
        <pt x="130" y="404" on="1"/>
        <pt x="362" y="585" on="1"/>
        <pt x="350" y="585" on="1"/>
        <pt x="326" y="585" on="0"/>
        <pt x="326" y="638" on="0"/>
        <pt x="350" y="638" on="1"/>
        <pt x="468" y="638" on="1"/>
        <pt x="493" y="638" on="0"/>
        <pt x="493" y="585" on="0"/>
        <pt x="468" y="585" on="1"/>
        <pt x="438" y="585" on="1"/>
        <pt x="275" y="455" on="1"/>
        <pt x="457" y="52" on="1"/>
      </contour>
    </TTGlyph>
    <TTGlyph name="Kcommaaccent" xMin="25" yMin="-200" xMax="513" yMax="638">
      <contour>
        <pt x="489" y="52" on="1"/>
        <pt x="513" y="52" on="0"/>
        <pt x="513" y="0" on="0"/>
        <pt x="489" y="0" on="1"/>
        <pt x="372" y="0" on="1"/>
        <pt x="348" y="0" on="0"/>
        <pt x="348" y="52" on="0"/>
        <pt x="372" y="52" on="1"/>
        <pt x="393" y="52" on="1"/>
        <pt x="228" y="421" on="1"/>
        <pt x="130" y="344" on="1"/>
        <pt x="130" y="52" on="1"/>
        <pt x="154" y="52" on="1"/>
        <pt x="178" y="52" on="0"/>
        <pt x="178" y="0" on="0"/>
        <pt x="154" y="0" on="1"/>
        <pt x="49" y="0" on="1"/>
        <pt x="39" y="0" on="0"/>
        <pt x="25" y="15" on="0"/>
        <pt x="25" y="26" on="1"/>
        <pt x="25" y="52" on="0"/>
        <pt x="49" y="52" on="1"/>
        <pt x="73" y="52" on="1"/>
        <pt x="73" y="585" on="1"/>
        <pt x="49" y="585" on="1"/>
        <pt x="38" y="585" on="0"/>
        <pt x="25" y="600" on="0"/>
        <pt x="25" y="622" on="0"/>
        <pt x="38" y="638" on="0"/>
        <pt x="49" y="638" on="1"/>
        <pt x="154" y="638" on="1"/>
        <pt x="179" y="638" on="0"/>
        <pt x="179" y="585" on="0"/>
        <pt x="154" y="585" on="1"/>
        <pt x="130" y="585" on="1"/>
        <pt x="130" y="404" on="1"/>
        <pt x="362" y="585" on="1"/>
        <pt x="350" y="585" on="1"/>
        <pt x="326" y="585" on="0"/>
        <pt x="326" y="638" on="0"/>
        <pt x="350" y="638" on="1"/>
        <pt x="468" y="638" on="1"/>
        <pt x="493" y="638" on="0"/>
        <pt x="493" y="585" on="0"/>
        <pt x="468" y="585" on="1"/>
        <pt x="438" y="585" on="1"/>
        <pt x="275" y="455" on="1"/>
        <pt x="457" y="52" on="1"/>
      </contour>
      <contour>
        <pt x="235" y="-133" on="0"/>
        <pt x="208" y="-108" on="0"/>
        <pt x="208" y="-71" on="0"/>
        <pt x="236" y="-41" on="0"/>
        <pt x="282" y="-41" on="0"/>
        <pt x="309" y="-81" on="0"/>
        <pt x="309" y="-138" on="0"/>
        <pt x="256" y="-200" on="0"/>
        <pt x="230" y="-200" on="1"/>
        <pt x="221" y="-200" on="0"/>
        <pt x="221" y="-194" on="0"/>
        <pt x="235" y="-181" on="0"/>
        <pt x="241" y="-174" on="0"/>
        <pt x="250" y="-162" on="0"/>
        <pt x="255" y="-149" on="0"/>
        <pt x="255" y="-137" on="0"/>
        <pt x="254" y="-134" on="1"/>
      </contour>
    </TTGlyph>
    <TTGlyph name="L" xMin="25" yMin="0" xMax="419" yMax="638">
      <contour>
        <pt x="130" y="52" on="1"/>
        <pt x="283" y="52" on="1"/>
        <pt x="386" y="194" on="1"/>
        <pt x="391" y="201" on="0"/>
        <pt x="408" y="201" on="0"/>
        <pt x="419" y="191" on="0"/>
        <pt x="419" y="178" on="0"/>
        <pt x="415" y="170" on="1"/>
        <pt x="342" y="16" on="1"/>
        <pt x="333" y="0" on="0"/>
        <pt x="314" y="0" on="1"/>
        <pt x="49" y="0" on="1"/>
        <pt x="25" y="0" on="0"/>
        <pt x="25" y="52" on="0"/>
        <pt x="49" y="52" on="1"/>
        <pt x="73" y="52" on="1"/>
        <pt x="73" y="585" on="1"/>
        <pt x="49" y="585" on="1"/>
        <pt x="25" y="585" on="0"/>
        <pt x="25" y="638" on="0"/>
        <pt x="49" y="638" on="1"/>
        <pt x="154" y="638" on="1"/>
        <pt x="179" y="638" on="0"/>
        <pt x="179" y="585" on="0"/>
        <pt x="154" y="585" on="1"/>
        <pt x="130" y="585" on="1"/>
      </contour>
    </TTGlyph>
    <TTGlyph name="Lacute" xMin="25" yMin="0" xMax="419" yMax="817">
      <contour>
        <pt x="130" y="52" on="1"/>
        <pt x="283" y="52" on="1"/>
        <pt x="386" y="194" on="1"/>
        <pt x="391" y="201" on="0"/>
        <pt x="408" y="201" on="0"/>
        <pt x="419" y="191" on="0"/>
        <pt x="419" y="178" on="0"/>
        <pt x="415" y="170" on="1"/>
        <pt x="342" y="16" on="1"/>
        <pt x="333" y="0" on="0"/>
        <pt x="314" y="0" on="1"/>
        <pt x="49" y="0" on="1"/>
        <pt x="25" y="0" on="0"/>
        <pt x="25" y="52" on="0"/>
        <pt x="49" y="52" on="1"/>
        <pt x="73" y="52" on="1"/>
        <pt x="73" y="585" on="1"/>
        <pt x="49" y="585" on="1"/>
        <pt x="25" y="585" on="0"/>
        <pt x="25" y="638" on="0"/>
        <pt x="49" y="638" on="1"/>
        <pt x="154" y="638" on="1"/>
        <pt x="179" y="638" on="0"/>
        <pt x="179" y="585" on="0"/>
        <pt x="154" y="585" on="1"/>
        <pt x="130" y="585" on="1"/>
      </contour>
      <contour>
        <pt x="61" y="668" on="1"/>
        <pt x="48" y="668" on="0"/>
        <pt x="48" y="681" on="1"/>
        <pt x="48" y="683" on="0"/>
        <pt x="50" y="687" on="1"/>
        <pt x="113" y="795" on="1"/>
        <pt x="125" y="817" on="0"/>
        <pt x="160" y="817" on="0"/>
        <pt x="179" y="800" on="0"/>
        <pt x="179" y="772" on="0"/>
        <pt x="163" y="757" on="1"/>
        <pt x="71" y="672" on="1"/>
        <pt x="67" y="668" on="0"/>
      </contour>
    </TTGlyph>
    <TTGlyph name="Lcaron" xMin="-29" yMin="0" xMax="419" yMax="805">
      <contour>
        <pt x="-21" y="765" on="1"/>
        <pt x="-29" y="770" on="0"/>
        <pt x="-29" y="792" on="0"/>
        <pt x="-15" y="805" on="0"/>
        <pt x="6" y="805" on="0"/>
        <pt x="13" y="799" on="1"/>
        <pt x="101" y="734" on="1"/>
        <pt x="190" y="799" on="1"/>
        <pt x="199" y="805" on="0"/>
        <pt x="219" y="805" on="0"/>
        <pt x="233" y="793" on="0"/>
        <pt x="233" y="772" on="0"/>
        <pt x="224" y="765" on="1"/>
        <pt x="101" y="675" on="1"/>
      </contour>
      <contour>
        <pt x="130" y="52" on="1"/>
        <pt x="283" y="52" on="1"/>
        <pt x="386" y="194" on="1"/>
        <pt x="391" y="201" on="0"/>
        <pt x="408" y="201" on="0"/>
        <pt x="419" y="191" on="0"/>
        <pt x="419" y="178" on="0"/>
        <pt x="415" y="170" on="1"/>
        <pt x="342" y="16" on="1"/>
        <pt x="333" y="0" on="0"/>
        <pt x="314" y="0" on="1"/>
        <pt x="49" y="0" on="1"/>
        <pt x="25" y="0" on="0"/>
        <pt x="25" y="52" on="0"/>
        <pt x="49" y="52" on="1"/>
        <pt x="73" y="52" on="1"/>
        <pt x="73" y="585" on="1"/>
        <pt x="49" y="585" on="1"/>
        <pt x="25" y="585" on="0"/>
        <pt x="25" y="638" on="0"/>
        <pt x="49" y="638" on="1"/>
        <pt x="154" y="638" on="1"/>
        <pt x="179" y="638" on="0"/>
        <pt x="179" y="585" on="0"/>
        <pt x="154" y="585" on="1"/>
        <pt x="130" y="585" on="1"/>
      </contour>
    </TTGlyph>
    <TTGlyph name="Lcommaaccent" xMin="25" yMin="-200" xMax="419" yMax="638">
      <contour>
        <pt x="130" y="52" on="1"/>
        <pt x="283" y="52" on="1"/>
        <pt x="386" y="194" on="1"/>
        <pt x="391" y="201" on="0"/>
        <pt x="408" y="201" on="0"/>
        <pt x="419" y="191" on="0"/>
        <pt x="419" y="178" on="0"/>
        <pt x="415" y="170" on="1"/>
        <pt x="342" y="16" on="1"/>
        <pt x="333" y="0" on="0"/>
        <pt x="314" y="0" on="1"/>
        <pt x="49" y="0" on="1"/>
        <pt x="25" y="0" on="0"/>
        <pt x="25" y="52" on="0"/>
        <pt x="49" y="52" on="1"/>
        <pt x="73" y="52" on="1"/>
        <pt x="73" y="585" on="1"/>
        <pt x="49" y="585" on="1"/>
        <pt x="25" y="585" on="0"/>
        <pt x="25" y="638" on="0"/>
        <pt x="49" y="638" on="1"/>
        <pt x="154" y="638" on="1"/>
        <pt x="179" y="638" on="0"/>
        <pt x="179" y="585" on="0"/>
        <pt x="154" y="585" on="1"/>
        <pt x="130" y="585" on="1"/>
      </contour>
      <contour>
        <pt x="188" y="-133" on="0"/>
        <pt x="161" y="-108" on="0"/>
        <pt x="161" y="-71" on="0"/>
        <pt x="189" y="-41" on="0"/>
        <pt x="235" y="-41" on="0"/>
        <pt x="262" y="-81" on="0"/>
        <pt x="262" y="-138" on="0"/>
        <pt x="209" y="-200" on="0"/>
        <pt x="183" y="-200" on="1"/>
        <pt x="174" y="-200" on="0"/>
        <pt x="174" y="-194" on="0"/>
        <pt x="188" y="-181" on="0"/>
        <pt x="194" y="-174" on="0"/>
        <pt x="203" y="-162" on="0"/>
        <pt x="208" y="-149" on="0"/>
        <pt x="208" y="-137" on="0"/>
        <pt x="207" y="-134" on="1"/>
      </contour>
    </TTGlyph>
    <TTGlyph name="Ldot" xMin="25" yMin="0" xMax="419" yMax="638">
      <contour>
        <pt x="130" y="52" on="1"/>
        <pt x="283" y="52" on="1"/>
        <pt x="386" y="194" on="1"/>
        <pt x="391" y="201" on="0"/>
        <pt x="408" y="201" on="0"/>
        <pt x="419" y="191" on="0"/>
        <pt x="419" y="178" on="0"/>
        <pt x="415" y="170" on="1"/>
        <pt x="342" y="16" on="1"/>
        <pt x="333" y="0" on="0"/>
        <pt x="314" y="0" on="1"/>
        <pt x="49" y="0" on="1"/>
        <pt x="25" y="0" on="0"/>
        <pt x="25" y="52" on="0"/>
        <pt x="49" y="52" on="1"/>
        <pt x="73" y="52" on="1"/>
        <pt x="73" y="585" on="1"/>
        <pt x="49" y="585" on="1"/>
        <pt x="25" y="585" on="0"/>
        <pt x="25" y="638" on="0"/>
        <pt x="49" y="638" on="1"/>
        <pt x="154" y="638" on="1"/>
        <pt x="179" y="638" on="0"/>
        <pt x="179" y="585" on="0"/>
        <pt x="154" y="585" on="1"/>
        <pt x="130" y="585" on="1"/>
      </contour>
      <contour>
        <pt x="195" y="262" on="0"/>
        <pt x="223" y="289" on="0"/>
        <pt x="266" y="289" on="0"/>
        <pt x="295" y="262" on="0"/>
        <pt x="295" y="219" on="0"/>
        <pt x="266" y="193" on="0"/>
        <pt x="223" y="193" on="0"/>
        <pt x="195" y="219" on="0"/>
      </contour>
    </TTGlyph>
    <TTGlyph name="Lslash" xMin="5" yMin="0" xMax="419" yMax="638">
      <contour>
        <pt x="130" y="52" on="1"/>
        <pt x="283" y="52" on="1"/>
        <pt x="386" y="194" on="1"/>
        <pt x="391" y="201" on="0"/>
        <pt x="408" y="201" on="0"/>
        <pt x="419" y="191" on="0"/>
        <pt x="419" y="178" on="0"/>
        <pt x="415" y="170" on="1"/>
        <pt x="342" y="16" on="1"/>
        <pt x="333" y="0" on="0"/>
        <pt x="314" y="0" on="1"/>
        <pt x="49" y="0" on="1"/>
        <pt x="25" y="0" on="0"/>
        <pt x="25" y="52" on="0"/>
        <pt x="49" y="52" on="1"/>
        <pt x="73" y="52" on="1"/>
        <pt x="73" y="131" on="1"/>
        <pt x="48" y="103" on="1"/>
        <pt x="41" y="95" on="0"/>
        <pt x="22" y="95" on="0"/>
        <pt x="5" y="110" on="0"/>
        <pt x="5" y="128" on="0"/>
        <pt x="11" y="136" on="1"/>
        <pt x="73" y="207" on="1"/>
        <pt x="73" y="585" on="1"/>
        <pt x="49" y="585" on="1"/>
        <pt x="25" y="585" on="0"/>
        <pt x="25" y="638" on="0"/>
        <pt x="49" y="638" on="1"/>
        <pt x="154" y="638" on="1"/>
        <pt x="179" y="638" on="0"/>
        <pt x="179" y="585" on="0"/>
        <pt x="154" y="585" on="1"/>
        <pt x="130" y="585" on="1"/>
        <pt x="130" y="272" on="1"/>
        <pt x="178" y="327" on="1"/>
        <pt x="186" y="336" on="0"/>
        <pt x="204" y="336" on="0"/>
        <pt x="222" y="320" on="0"/>
        <pt x="222" y="302" on="0"/>
        <pt x="216" y="294" on="1"/>
        <pt x="130" y="196" on="1"/>
      </contour>
    </TTGlyph>
    <TTGlyph name="M" xMin="25" yMin="0" xMax="694" yMax="638">
      <contour>
        <pt x="644" y="52" on="1"/>
        <pt x="670" y="52" on="1"/>
        <pt x="694" y="52" on="0"/>
        <pt x="694" y="0" on="0"/>
        <pt x="670" y="0" on="1"/>
        <pt x="563" y="0" on="1"/>
        <pt x="552" y="0" on="0"/>
        <pt x="539" y="15" on="0"/>
        <pt x="539" y="26" on="1"/>
        <pt x="539" y="52" on="0"/>
        <pt x="563" y="52" on="1"/>
        <pt x="587" y="52" on="1"/>
        <pt x="587" y="581" on="1"/>
        <pt x="376" y="428" on="1"/>
        <pt x="366" y="420" on="0"/>
        <pt x="346" y="420" on="0"/>
        <pt x="334" y="427" on="1"/>
        <pt x="132" y="551" on="1"/>
        <pt x="132" y="52" on="1"/>
        <pt x="155" y="52" on="1"/>
        <pt x="179" y="52" on="0"/>
        <pt x="179" y="0" on="0"/>
        <pt x="155" y="0" on="1"/>
        <pt x="54" y="0" on="1"/>
        <pt x="30" y="0" on="0"/>
        <pt x="30" y="52" on="0"/>
        <pt x="54" y="52" on="1"/>
        <pt x="79" y="52" on="1"/>
        <pt x="79" y="585" on="1"/>
        <pt x="49" y="585" on="1"/>
        <pt x="25" y="585" on="0"/>
        <pt x="25" y="611" on="1"/>
        <pt x="25" y="623" on="0"/>
        <pt x="38" y="638" on="0"/>
        <pt x="49" y="638" on="1"/>
        <pt x="80" y="638" on="1"/>
        <pt x="98" y="638" on="0"/>
        <pt x="117" y="627" on="1"/>
        <pt x="362" y="477" on="1"/>
        <pt x="567" y="627" on="1"/>
        <pt x="583" y="638" on="0"/>
        <pt x="594" y="638" on="1"/>
        <pt x="669" y="638" on="1"/>
        <pt x="694" y="638" on="0"/>
        <pt x="694" y="585" on="0"/>
        <pt x="669" y="585" on="1"/>
        <pt x="644" y="585" on="1"/>
      </contour>
    </TTGlyph>
    <TTGlyph name="N" xMin="25" yMin="-4" xMax="505" yMax="638">
      <contour>
        <pt x="480" y="638" on="1"/>
        <pt x="505" y="638" on="0"/>
        <pt x="505" y="585" on="0"/>
        <pt x="480" y="585" on="1"/>
        <pt x="453" y="585" on="1"/>
        <pt x="453" y="23" on="1"/>
        <pt x="453" y="-4" on="0"/>
        <pt x="426" y="-4" on="1"/>
        <pt x="402" y="-4" on="0"/>
        <pt x="393" y="15" on="1"/>
        <pt x="125" y="528" on="1"/>
        <pt x="125" y="52" on="1"/>
        <pt x="148" y="52" on="1"/>
        <pt x="172" y="52" on="0"/>
        <pt x="172" y="0" on="0"/>
        <pt x="148" y="0" on="1"/>
        <pt x="49" y="0" on="1"/>
        <pt x="25" y="0" on="0"/>
        <pt x="25" y="52" on="0"/>
        <pt x="49" y="52" on="1"/>
        <pt x="73" y="52" on="1"/>
        <pt x="73" y="585" on="1"/>
        <pt x="49" y="585" on="1"/>
        <pt x="25" y="585" on="0"/>
        <pt x="25" y="638" on="0"/>
        <pt x="49" y="638" on="1"/>
        <pt x="116" y="638" on="1"/>
        <pt x="131" y="638" on="0"/>
        <pt x="139" y="622" on="1"/>
        <pt x="401" y="121" on="1"/>
        <pt x="401" y="585" on="1"/>
        <pt x="375" y="585" on="1"/>
        <pt x="351" y="585" on="0"/>
        <pt x="351" y="638" on="0"/>
        <pt x="375" y="638" on="1"/>
      </contour>
    </TTGlyph>
    <TTGlyph name="Nacute" xMin="25" yMin="-4" xMax="505" yMax="817">
      <contour>
        <pt x="480" y="638" on="1"/>
        <pt x="505" y="638" on="0"/>
        <pt x="505" y="585" on="0"/>
        <pt x="480" y="585" on="1"/>
        <pt x="453" y="585" on="1"/>
        <pt x="453" y="23" on="1"/>
        <pt x="453" y="-4" on="0"/>
        <pt x="426" y="-4" on="1"/>
        <pt x="402" y="-4" on="0"/>
        <pt x="393" y="15" on="1"/>
        <pt x="125" y="528" on="1"/>
        <pt x="125" y="52" on="1"/>
        <pt x="148" y="52" on="1"/>
        <pt x="172" y="52" on="0"/>
        <pt x="172" y="0" on="0"/>
        <pt x="148" y="0" on="1"/>
        <pt x="49" y="0" on="1"/>
        <pt x="25" y="0" on="0"/>
        <pt x="25" y="52" on="0"/>
        <pt x="49" y="52" on="1"/>
        <pt x="73" y="52" on="1"/>
        <pt x="73" y="585" on="1"/>
        <pt x="49" y="585" on="1"/>
        <pt x="25" y="585" on="0"/>
        <pt x="25" y="638" on="0"/>
        <pt x="49" y="638" on="1"/>
        <pt x="116" y="638" on="1"/>
        <pt x="131" y="638" on="0"/>
        <pt x="139" y="622" on="1"/>
        <pt x="401" y="121" on="1"/>
        <pt x="401" y="585" on="1"/>
        <pt x="375" y="585" on="1"/>
        <pt x="351" y="585" on="0"/>
        <pt x="351" y="638" on="0"/>
        <pt x="375" y="638" on="1"/>
      </contour>
      <contour>
        <pt x="212" y="668" on="1"/>
        <pt x="199" y="668" on="0"/>
        <pt x="199" y="681" on="1"/>
        <pt x="199" y="683" on="0"/>
        <pt x="201" y="687" on="1"/>
        <pt x="264" y="795" on="1"/>
        <pt x="276" y="817" on="0"/>
        <pt x="311" y="817" on="0"/>
        <pt x="330" y="800" on="0"/>
        <pt x="330" y="772" on="0"/>
        <pt x="314" y="757" on="1"/>
        <pt x="222" y="672" on="1"/>
        <pt x="218" y="668" on="0"/>
      </contour>
    </TTGlyph>
    <TTGlyph name="Ncaron" xMin="25" yMin="-4" xMax="505" yMax="809">
      <contour>
        <pt x="480" y="638" on="1"/>
        <pt x="505" y="638" on="0"/>
        <pt x="505" y="585" on="0"/>
        <pt x="480" y="585" on="1"/>
        <pt x="453" y="585" on="1"/>
        <pt x="453" y="23" on="1"/>
        <pt x="453" y="-4" on="0"/>
        <pt x="426" y="-4" on="1"/>
        <pt x="402" y="-4" on="0"/>
        <pt x="393" y="15" on="1"/>
        <pt x="125" y="528" on="1"/>
        <pt x="125" y="52" on="1"/>
        <pt x="148" y="52" on="1"/>
        <pt x="172" y="52" on="0"/>
        <pt x="172" y="0" on="0"/>
        <pt x="148" y="0" on="1"/>
        <pt x="49" y="0" on="1"/>
        <pt x="25" y="0" on="0"/>
        <pt x="25" y="52" on="0"/>
        <pt x="49" y="52" on="1"/>
        <pt x="73" y="52" on="1"/>
        <pt x="73" y="585" on="1"/>
        <pt x="49" y="585" on="1"/>
        <pt x="25" y="585" on="0"/>
        <pt x="25" y="638" on="0"/>
        <pt x="49" y="638" on="1"/>
        <pt x="116" y="638" on="1"/>
        <pt x="131" y="638" on="0"/>
        <pt x="139" y="622" on="1"/>
        <pt x="401" y="121" on="1"/>
        <pt x="401" y="585" on="1"/>
        <pt x="375" y="585" on="1"/>
        <pt x="351" y="585" on="0"/>
        <pt x="351" y="638" on="0"/>
        <pt x="375" y="638" on="1"/>
      </contour>
      <contour>
        <pt x="142" y="769" on="1"/>
        <pt x="134" y="774" on="0"/>
        <pt x="134" y="796" on="0"/>
        <pt x="148" y="809" on="0"/>
        <pt x="168" y="809" on="0"/>
        <pt x="176" y="803" on="1"/>
        <pt x="264" y="738" on="1"/>
        <pt x="353" y="803" on="1"/>
        <pt x="362" y="809" on="0"/>
        <pt x="382" y="809" on="0"/>
        <pt x="396" y="797" on="0"/>
        <pt x="396" y="776" on="0"/>
        <pt x="387" y="769" on="1"/>
        <pt x="264" y="679" on="1"/>
      </contour>
    </TTGlyph>
    <TTGlyph name="Ncommaaccent" xMin="25" yMin="-200" xMax="505" yMax="638">
      <contour>
        <pt x="480" y="638" on="1"/>
        <pt x="505" y="638" on="0"/>
        <pt x="505" y="585" on="0"/>
        <pt x="480" y="585" on="1"/>
        <pt x="453" y="585" on="1"/>
        <pt x="453" y="23" on="1"/>
        <pt x="453" y="-4" on="0"/>
        <pt x="426" y="-4" on="1"/>
        <pt x="402" y="-4" on="0"/>
        <pt x="393" y="15" on="1"/>
        <pt x="125" y="528" on="1"/>
        <pt x="125" y="52" on="1"/>
        <pt x="148" y="52" on="1"/>
        <pt x="172" y="52" on="0"/>
        <pt x="172" y="0" on="0"/>
        <pt x="148" y="0" on="1"/>
        <pt x="49" y="0" on="1"/>
        <pt x="25" y="0" on="0"/>
        <pt x="25" y="52" on="0"/>
        <pt x="49" y="52" on="1"/>
        <pt x="73" y="52" on="1"/>
        <pt x="73" y="585" on="1"/>
        <pt x="49" y="585" on="1"/>
        <pt x="25" y="585" on="0"/>
        <pt x="25" y="638" on="0"/>
        <pt x="49" y="638" on="1"/>
        <pt x="116" y="638" on="1"/>
        <pt x="131" y="638" on="0"/>
        <pt x="139" y="622" on="1"/>
        <pt x="401" y="121" on="1"/>
        <pt x="401" y="585" on="1"/>
        <pt x="375" y="585" on="1"/>
        <pt x="351" y="585" on="0"/>
        <pt x="351" y="638" on="0"/>
        <pt x="375" y="638" on="1"/>
      </contour>
      <contour>
        <pt x="241" y="-133" on="0"/>
        <pt x="214" y="-108" on="0"/>
        <pt x="214" y="-71" on="0"/>
        <pt x="242" y="-41" on="0"/>
        <pt x="288" y="-41" on="0"/>
        <pt x="315" y="-81" on="0"/>
        <pt x="315" y="-138" on="0"/>
        <pt x="262" y="-200" on="0"/>
        <pt x="236" y="-200" on="1"/>
        <pt x="227" y="-200" on="0"/>
        <pt x="227" y="-194" on="0"/>
        <pt x="241" y="-181" on="0"/>
        <pt x="247" y="-174" on="0"/>
        <pt x="256" y="-162" on="0"/>
        <pt x="261" y="-149" on="0"/>
        <pt x="261" y="-137" on="0"/>
        <pt x="260" y="-134" on="1"/>
      </contour>
    </TTGlyph>
    <TTGlyph name="Ntilde" xMin="25" yMin="-4" xMax="505" yMax="789">
      <contour>
        <pt x="480" y="638" on="1"/>
        <pt x="505" y="638" on="0"/>
        <pt x="505" y="585" on="0"/>
        <pt x="480" y="585" on="1"/>
        <pt x="453" y="585" on="1"/>
        <pt x="453" y="23" on="1"/>
        <pt x="453" y="-4" on="0"/>
        <pt x="426" y="-4" on="1"/>
        <pt x="402" y="-4" on="0"/>
        <pt x="393" y="15" on="1"/>
        <pt x="125" y="528" on="1"/>
        <pt x="125" y="52" on="1"/>
        <pt x="148" y="52" on="1"/>
        <pt x="172" y="52" on="0"/>
        <pt x="172" y="0" on="0"/>
        <pt x="148" y="0" on="1"/>
        <pt x="49" y="0" on="1"/>
        <pt x="25" y="0" on="0"/>
        <pt x="25" y="52" on="0"/>
        <pt x="49" y="52" on="1"/>
        <pt x="73" y="52" on="1"/>
        <pt x="73" y="585" on="1"/>
        <pt x="49" y="585" on="1"/>
        <pt x="25" y="585" on="0"/>
        <pt x="25" y="638" on="0"/>
        <pt x="49" y="638" on="1"/>
        <pt x="116" y="638" on="1"/>
        <pt x="131" y="638" on="0"/>
        <pt x="139" y="622" on="1"/>
        <pt x="401" y="121" on="1"/>
        <pt x="401" y="585" on="1"/>
        <pt x="375" y="585" on="1"/>
        <pt x="351" y="585" on="0"/>
        <pt x="351" y="638" on="0"/>
        <pt x="375" y="638" on="1"/>
      </contour>
      <contour>
        <pt x="134" y="679" on="0"/>
        <pt x="112" y="706" on="0"/>
        <pt x="112" y="756" on="0"/>
        <pt x="161" y="789" on="0"/>
        <pt x="215" y="789" on="0"/>
        <pt x="262" y="769" on="0"/>
        <pt x="284" y="751" on="0"/>
        <pt x="302" y="734" on="1"/>
        <pt x="329" y="705" on="0"/>
        <pt x="354" y="705" on="0"/>
        <pt x="371" y="720" on="0"/>
        <pt x="372" y="731" on="1"/>
        <pt x="357" y="741" on="0"/>
        <pt x="357" y="759" on="1"/>
        <pt x="357" y="783" on="0"/>
        <pt x="380" y="783" on="1"/>
        <pt x="394" y="783" on="0"/>
        <pt x="418" y="760" on="0"/>
        <pt x="418" y="707" on="0"/>
        <pt x="370" y="673" on="0"/>
        <pt x="315" y="673" on="0"/>
        <pt x="271" y="692" on="0"/>
        <pt x="252" y="710" on="0"/>
        <pt x="236" y="727" on="1"/>
        <pt x="208" y="759" on="0"/>
        <pt x="185" y="759" on="1"/>
        <pt x="176" y="759" on="0"/>
        <pt x="158" y="745" on="0"/>
        <pt x="157" y="734" on="1"/>
        <pt x="172" y="724" on="0"/>
        <pt x="172" y="679" on="0"/>
        <pt x="150" y="679" on="1"/>
      </contour>
    </TTGlyph>
    <TTGlyph name="O" xMin="15" yMin="-10" xMax="535" yMax="648">
      <contour>
        <pt x="535" y="165" on="0"/>
        <pt x="385" y="-10" on="0"/>
        <pt x="164" y="-10" on="0"/>
        <pt x="15" y="168" on="0"/>
        <pt x="15" y="476" on="0"/>
        <pt x="165" y="648" on="0"/>
        <pt x="386" y="648" on="0"/>
        <pt x="535" y="474" on="0"/>
      </contour>
      <contour>
        <pt x="431" y="512" on="0"/>
        <pt x="337" y="600" on="0"/>
        <pt x="212" y="600" on="0"/>
        <pt x="118" y="518" on="0"/>
        <pt x="73" y="395" on="0"/>
        <pt x="73" y="326" on="1"/>
        <pt x="73" y="220" on="0"/>
        <pt x="185" y="38" on="0"/>
        <pt x="367" y="38" on="0"/>
        <pt x="476" y="208" on="0"/>
        <pt x="476" y="316" on="1"/>
        <pt x="476" y="385" on="0"/>
      </contour>
    </TTGlyph>
    <TTGlyph name="OE" xMin="15" yMin="-10" xMax="892" yMax="648">
      <contour>
        <pt x="707" y="403" on="1"/>
        <pt x="690" y="403" on="0"/>
        <pt x="671" y="429" on="1"/>
        <pt x="531" y="429" on="1"/>
        <pt x="531" y="51" on="1"/>
        <pt x="753" y="51" on="1"/>
        <pt x="856" y="151" on="1"/>
        <pt x="863" y="158" on="0"/>
        <pt x="872" y="158" on="1"/>
        <pt x="892" y="158" on="0"/>
        <pt x="892" y="140" on="1"/>
        <pt x="892" y="134" on="0"/>
        <pt x="885" y="125" on="1"/>
        <pt x="814" y="14" on="1"/>
        <pt x="804" y="0" on="0"/>
        <pt x="787" y="0" on="1"/>
        <pt x="497" y="0" on="1"/>
        <pt x="485" y="0" on="0"/>
        <pt x="478" y="7" on="0"/>
        <pt x="478" y="19" on="1"/>
        <pt x="478" y="117" on="1"/>
        <pt x="445" y="56" on="0"/>
        <pt x="338" y="-10" on="0"/>
        <pt x="274" y="-10" on="1"/>
        <pt x="164" y="-10" on="0"/>
        <pt x="15" y="168" on="0"/>
        <pt x="15" y="476" on="0"/>
        <pt x="165" y="648" on="0"/>
        <pt x="274" y="648" on="1"/>
        <pt x="337" y="648" on="0"/>
        <pt x="444" y="580" on="0"/>
        <pt x="478" y="519" on="1"/>
        <pt x="478" y="614" on="1"/>
        <pt x="478" y="628" on="0"/>
        <pt x="488" y="638" on="0"/>
        <pt x="502" y="638" on="1"/>
        <pt x="686" y="638" on="1"/>
        <pt x="707" y="638" on="0"/>
        <pt x="717" y="628" on="1"/>
        <pt x="779" y="554" on="1"/>
        <pt x="786" y="546" on="0"/>
        <pt x="786" y="532" on="0"/>
        <pt x="774" y="520" on="0"/>
        <pt x="758" y="520" on="0"/>
        <pt x="747" y="529" on="1"/>
        <pt x="675" y="591" on="1"/>
        <pt x="531" y="591" on="1"/>
        <pt x="531" y="476" on="1"/>
        <pt x="635" y="476" on="1"/>
        <pt x="630" y="487" on="0"/>
        <pt x="630" y="507" on="0"/>
        <pt x="645" y="521" on="0"/>
        <pt x="668" y="521" on="0"/>
        <pt x="676" y="510" on="1"/>
        <pt x="721" y="438" on="1"/>
        <pt x="726" y="432" on="0"/>
        <pt x="726" y="415" on="0"/>
        <pt x="715" y="403" on="0"/>
      </contour>
      <contour>
        <pt x="482" y="430" on="0"/>
        <pt x="369" y="600" on="0"/>
        <pt x="184" y="600" on="0"/>
        <pt x="74" y="437" on="0"/>
        <pt x="74" y="216" on="0"/>
        <pt x="186" y="38" on="0"/>
        <pt x="278" y="38" on="1"/>
        <pt x="341" y="38" on="0"/>
        <pt x="437" y="125" on="0"/>
        <pt x="482" y="249" on="0"/>
        <pt x="482" y="316" on="1"/>
        <pt x="482" y="326" on="1"/>
      </contour>
    </TTGlyph>
    <TTGlyph name="Oacute" xMin="15" yMin="-10" xMax="535" yMax="817">
      <contour>
        <pt x="535" y="165" on="0"/>
        <pt x="385" y="-10" on="0"/>
        <pt x="164" y="-10" on="0"/>
        <pt x="15" y="168" on="0"/>
        <pt x="15" y="476" on="0"/>
        <pt x="165" y="648" on="0"/>
        <pt x="386" y="648" on="0"/>
        <pt x="535" y="474" on="0"/>
      </contour>
      <contour>
        <pt x="431" y="512" on="0"/>
        <pt x="337" y="600" on="0"/>
        <pt x="212" y="600" on="0"/>
        <pt x="118" y="518" on="0"/>
        <pt x="73" y="395" on="0"/>
        <pt x="73" y="326" on="1"/>
        <pt x="73" y="220" on="0"/>
        <pt x="185" y="38" on="0"/>
        <pt x="367" y="38" on="0"/>
        <pt x="476" y="208" on="0"/>
        <pt x="476" y="316" on="1"/>
        <pt x="476" y="385" on="0"/>
      </contour>
      <contour>
        <pt x="222" y="668" on="1"/>
        <pt x="209" y="668" on="0"/>
        <pt x="209" y="681" on="1"/>
        <pt x="209" y="683" on="0"/>
        <pt x="211" y="687" on="1"/>
        <pt x="274" y="795" on="1"/>
        <pt x="286" y="817" on="0"/>
        <pt x="321" y="817" on="0"/>
        <pt x="340" y="800" on="0"/>
        <pt x="340" y="772" on="0"/>
        <pt x="324" y="757" on="1"/>
        <pt x="232" y="672" on="1"/>
        <pt x="228" y="668" on="0"/>
      </contour>
    </TTGlyph>
    <TTGlyph name="Obreve" xMin="15" yMin="-10" xMax="535" yMax="816">
      <contour>
        <pt x="535" y="165" on="0"/>
        <pt x="385" y="-10" on="0"/>
        <pt x="164" y="-10" on="0"/>
        <pt x="15" y="168" on="0"/>
        <pt x="15" y="476" on="0"/>
        <pt x="165" y="648" on="0"/>
        <pt x="386" y="648" on="0"/>
        <pt x="535" y="474" on="0"/>
      </contour>
      <contour>
        <pt x="431" y="512" on="0"/>
        <pt x="337" y="600" on="0"/>
        <pt x="212" y="600" on="0"/>
        <pt x="118" y="518" on="0"/>
        <pt x="73" y="395" on="0"/>
        <pt x="73" y="326" on="1"/>
        <pt x="73" y="220" on="0"/>
        <pt x="185" y="38" on="0"/>
        <pt x="367" y="38" on="0"/>
        <pt x="476" y="208" on="0"/>
        <pt x="476" y="316" on="1"/>
        <pt x="476" y="385" on="0"/>
      </contour>
      <contour>
        <pt x="412" y="727" on="0"/>
        <pt x="340" y="672" on="0"/>
        <pt x="209" y="672" on="0"/>
        <pt x="137" y="727" on="0"/>
        <pt x="137" y="769" on="1"/>
        <pt x="137" y="793" on="0"/>
        <pt x="159" y="816" on="0"/>
        <pt x="172" y="816" on="1"/>
        <pt x="197" y="816" on="0"/>
        <pt x="197" y="788" on="1"/>
        <pt x="197" y="782" on="0"/>
        <pt x="185" y="762" on="0"/>
        <pt x="177" y="758" on="1"/>
        <pt x="181" y="718" on="0"/>
        <pt x="368" y="718" on="0"/>
        <pt x="372" y="758" on="1"/>
        <pt x="364" y="762" on="0"/>
        <pt x="352" y="782" on="0"/>
        <pt x="352" y="788" on="1"/>
        <pt x="352" y="816" on="0"/>
        <pt x="377" y="816" on="1"/>
        <pt x="390" y="816" on="0"/>
        <pt x="412" y="793" on="0"/>
        <pt x="412" y="769" on="1"/>
      </contour>
    </TTGlyph>
    <TTGlyph name="Ocircumflex" xMin="15" yMin="-10" xMax="535" yMax="806">
      <contour>
        <pt x="535" y="165" on="0"/>
        <pt x="385" y="-10" on="0"/>
        <pt x="164" y="-10" on="0"/>
        <pt x="15" y="168" on="0"/>
        <pt x="15" y="476" on="0"/>
        <pt x="165" y="648" on="0"/>
        <pt x="386" y="648" on="0"/>
        <pt x="535" y="474" on="0"/>
      </contour>
      <contour>
        <pt x="431" y="512" on="0"/>
        <pt x="337" y="600" on="0"/>
        <pt x="212" y="600" on="0"/>
        <pt x="118" y="518" on="0"/>
        <pt x="73" y="395" on="0"/>
        <pt x="73" y="326" on="1"/>
        <pt x="73" y="220" on="0"/>
        <pt x="185" y="38" on="0"/>
        <pt x="367" y="38" on="0"/>
        <pt x="476" y="208" on="0"/>
        <pt x="476" y="316" on="1"/>
        <pt x="476" y="385" on="0"/>
      </contour>
      <contour>
        <pt x="397" y="716" on="1"/>
        <pt x="406" y="708" on="0"/>
        <pt x="406" y="688" on="0"/>
        <pt x="392" y="676" on="0"/>
        <pt x="372" y="676" on="0"/>
        <pt x="363" y="682" on="1"/>
        <pt x="274" y="747" on="1"/>
        <pt x="186" y="682" on="1"/>
        <pt x="178" y="676" on="0"/>
        <pt x="158" y="676" on="0"/>
        <pt x="144" y="689" on="0"/>
        <pt x="144" y="711" on="0"/>
        <pt x="152" y="716" on="1"/>
        <pt x="274" y="806" on="1"/>
      </contour>
    </TTGlyph>
    <TTGlyph name="Odieresis" xMin="15" yMin="-10" xMax="535" yMax="765">
      <contour>
        <pt x="535" y="165" on="0"/>
        <pt x="385" y="-10" on="0"/>
        <pt x="164" y="-10" on="0"/>
        <pt x="15" y="168" on="0"/>
        <pt x="15" y="476" on="0"/>
        <pt x="165" y="648" on="0"/>
        <pt x="386" y="648" on="0"/>
        <pt x="535" y="474" on="0"/>
      </contour>
      <contour>
        <pt x="431" y="512" on="0"/>
        <pt x="337" y="600" on="0"/>
        <pt x="212" y="600" on="0"/>
        <pt x="118" y="518" on="0"/>
        <pt x="73" y="395" on="0"/>
        <pt x="73" y="326" on="1"/>
        <pt x="73" y="220" on="0"/>
        <pt x="185" y="38" on="0"/>
        <pt x="367" y="38" on="0"/>
        <pt x="476" y="208" on="0"/>
        <pt x="476" y="316" on="1"/>
        <pt x="476" y="385" on="0"/>
      </contour>
      <contour>
        <pt x="197" y="765" on="0"/>
        <pt x="222" y="742" on="0"/>
        <pt x="222" y="707" on="0"/>
        <pt x="196" y="683" on="0"/>
        <pt x="160" y="683" on="0"/>
        <pt x="136" y="707" on="0"/>
        <pt x="136" y="742" on="0"/>
        <pt x="160" y="765" on="0"/>
      </contour>
      <contour>
        <pt x="388" y="765" on="0"/>
        <pt x="413" y="742" on="0"/>
        <pt x="413" y="707" on="0"/>
        <pt x="387" y="683" on="0"/>
        <pt x="351" y="683" on="0"/>
        <pt x="327" y="707" on="0"/>
        <pt x="327" y="742" on="0"/>
        <pt x="351" y="765" on="0"/>
      </contour>
    </TTGlyph>
    <TTGlyph name="Ograve" xMin="15" yMin="-10" xMax="535" yMax="817">
      <contour>
        <pt x="535" y="165" on="0"/>
        <pt x="385" y="-10" on="0"/>
        <pt x="164" y="-10" on="0"/>
        <pt x="15" y="168" on="0"/>
        <pt x="15" y="476" on="0"/>
        <pt x="165" y="648" on="0"/>
        <pt x="386" y="648" on="0"/>
        <pt x="535" y="474" on="0"/>
      </contour>
      <contour>
        <pt x="431" y="512" on="0"/>
        <pt x="337" y="600" on="0"/>
        <pt x="212" y="600" on="0"/>
        <pt x="118" y="518" on="0"/>
        <pt x="73" y="395" on="0"/>
        <pt x="73" y="326" on="1"/>
        <pt x="73" y="220" on="0"/>
        <pt x="185" y="38" on="0"/>
        <pt x="367" y="38" on="0"/>
        <pt x="476" y="208" on="0"/>
        <pt x="476" y="316" on="1"/>
        <pt x="476" y="385" on="0"/>
      </contour>
      <contour>
        <pt x="308" y="668" on="1"/>
        <pt x="302" y="668" on="0"/>
        <pt x="298" y="672" on="1"/>
        <pt x="206" y="757" on="1"/>
        <pt x="190" y="772" on="0"/>
        <pt x="190" y="800" on="0"/>
        <pt x="209" y="817" on="0"/>
        <pt x="244" y="817" on="0"/>
        <pt x="256" y="795" on="1"/>
        <pt x="319" y="687" on="1"/>
        <pt x="321" y="683" on="0"/>
        <pt x="321" y="681" on="1"/>
        <pt x="321" y="668" on="0"/>
      </contour>
    </TTGlyph>
    <TTGlyph name="Ohungarumlaut" xMin="15" yMin="-10" xMax="535" yMax="817">
      <contour>
        <pt x="535" y="165" on="0"/>
        <pt x="385" y="-10" on="0"/>
        <pt x="164" y="-10" on="0"/>
        <pt x="15" y="168" on="0"/>
        <pt x="15" y="476" on="0"/>
        <pt x="165" y="648" on="0"/>
        <pt x="386" y="648" on="0"/>
        <pt x="535" y="474" on="0"/>
      </contour>
      <contour>
        <pt x="431" y="512" on="0"/>
        <pt x="337" y="600" on="0"/>
        <pt x="212" y="600" on="0"/>
        <pt x="118" y="518" on="0"/>
        <pt x="73" y="395" on="0"/>
        <pt x="73" y="326" on="1"/>
        <pt x="73" y="220" on="0"/>
        <pt x="185" y="38" on="0"/>
        <pt x="367" y="38" on="0"/>
        <pt x="476" y="208" on="0"/>
        <pt x="476" y="316" on="1"/>
        <pt x="476" y="385" on="0"/>
      </contour>
      <contour>
        <pt x="194" y="668" on="1"/>
        <pt x="179" y="668" on="0"/>
        <pt x="179" y="680" on="1"/>
        <pt x="179" y="684" on="0"/>
        <pt x="180" y="686" on="1"/>
        <pt x="215" y="790" on="1"/>
        <pt x="224" y="817" on="0"/>
        <pt x="249" y="817" on="1"/>
        <pt x="261" y="817" on="0"/>
        <pt x="281" y="800" on="0"/>
        <pt x="281" y="775" on="0"/>
        <pt x="270" y="761" on="1"/>
        <pt x="204" y="675" on="1"/>
        <pt x="199" y="668" on="0"/>
      </contour>
      <contour>
        <pt x="302" y="668" on="1"/>
        <pt x="287" y="668" on="0"/>
        <pt x="287" y="680" on="1"/>
        <pt x="287" y="684" on="0"/>
        <pt x="288" y="686" on="1"/>
        <pt x="330" y="790" on="1"/>
        <pt x="340" y="817" on="0"/>
        <pt x="364" y="817" on="1"/>
        <pt x="376" y="817" on="0"/>
        <pt x="396" y="800" on="0"/>
        <pt x="396" y="775" on="0"/>
        <pt x="385" y="761" on="1"/>
        <pt x="312" y="675" on="1"/>
        <pt x="307" y="668" on="0"/>
      </contour>
    </TTGlyph>
    <TTGlyph name="Omacron" xMin="15" yMin="-10" xMax="535" yMax="748">
      <contour>
        <pt x="535" y="165" on="0"/>
        <pt x="385" y="-10" on="0"/>
        <pt x="164" y="-10" on="0"/>
        <pt x="15" y="168" on="0"/>
        <pt x="15" y="476" on="0"/>
        <pt x="165" y="648" on="0"/>
        <pt x="386" y="648" on="0"/>
        <pt x="535" y="474" on="0"/>
      </contour>
      <contour>
        <pt x="431" y="512" on="0"/>
        <pt x="337" y="600" on="0"/>
        <pt x="212" y="600" on="0"/>
        <pt x="118" y="518" on="0"/>
        <pt x="73" y="395" on="0"/>
        <pt x="73" y="326" on="1"/>
        <pt x="73" y="220" on="0"/>
        <pt x="185" y="38" on="0"/>
        <pt x="367" y="38" on="0"/>
        <pt x="476" y="208" on="0"/>
        <pt x="476" y="316" on="1"/>
        <pt x="476" y="385" on="0"/>
      </contour>
      <contour>
        <pt x="361" y="699" on="1"/>
        <pt x="187" y="699" on="1"/>
        <pt x="165" y="699" on="0"/>
        <pt x="165" y="748" on="0"/>
        <pt x="187" y="748" on="1"/>
        <pt x="361" y="748" on="1"/>
        <pt x="384" y="748" on="0"/>
        <pt x="384" y="699" on="0"/>
      </contour>
    </TTGlyph>
    <TTGlyph name="Oslash" xMin="15" yMin="-10" xMax="535" yMax="650">
      <contour>
        <pt x="155" y="5" on="1"/>
        <pt x="146" y="-10" on="0"/>
        <pt x="118" y="-10" on="0"/>
        <pt x="101" y="6" on="0"/>
        <pt x="101" y="22" on="0"/>
        <pt x="104" y="30" on="1"/>
        <pt x="114" y="52" on="1"/>
        <pt x="15" y="143" on="0"/>
        <pt x="15" y="322" on="1"/>
        <pt x="15" y="476" on="0"/>
        <pt x="165" y="648" on="0"/>
        <pt x="275" y="648" on="1"/>
        <pt x="335" y="648" on="0"/>
        <pt x="389" y="620" on="1"/>
        <pt x="396" y="635" on="1"/>
        <pt x="403" y="650" on="0"/>
        <pt x="432" y="650" on="0"/>
        <pt x="449" y="634" on="0"/>
        <pt x="449" y="617" on="0"/>
        <pt x="446" y="611" on="1"/>
        <pt x="434" y="587" on="1"/>
        <pt x="535" y="498" on="0"/>
        <pt x="535" y="318" on="1"/>
        <pt x="535" y="165" on="0"/>
        <pt x="385" y="-10" on="0"/>
        <pt x="275" y="-10" on="1"/>
        <pt x="215" y="-10" on="0"/>
        <pt x="161" y="18" on="1"/>
      </contour>
      <contour>
        <pt x="365" y="571" on="1"/>
        <pt x="323" y="600" on="0"/>
        <pt x="212" y="600" on="0"/>
        <pt x="118" y="518" on="0"/>
        <pt x="73" y="395" on="0"/>
        <pt x="73" y="332" on="1"/>
        <pt x="73" y="199" on="0"/>
        <pt x="142" y="109" on="1"/>
      </contour>
      <contour>
        <pt x="367" y="38" on="0"/>
        <pt x="476" y="208" on="0"/>
        <pt x="476" y="445" on="0"/>
        <pt x="407" y="531" on="1"/>
        <pt x="185" y="68" on="1"/>
        <pt x="226" y="38" on="0"/>
        <pt x="275" y="38" on="1"/>
      </contour>
    </TTGlyph>
    <TTGlyph name="Oslashacute" xMin="15" yMin="-10" xMax="535" yMax="817">
      <contour>
        <pt x="155" y="5" on="1"/>
        <pt x="146" y="-10" on="0"/>
        <pt x="118" y="-10" on="0"/>
        <pt x="101" y="6" on="0"/>
        <pt x="101" y="22" on="0"/>
        <pt x="104" y="30" on="1"/>
        <pt x="114" y="52" on="1"/>
        <pt x="15" y="143" on="0"/>
        <pt x="15" y="322" on="1"/>
        <pt x="15" y="476" on="0"/>
        <pt x="165" y="648" on="0"/>
        <pt x="275" y="648" on="1"/>
        <pt x="335" y="648" on="0"/>
        <pt x="389" y="620" on="1"/>
        <pt x="396" y="635" on="1"/>
        <pt x="403" y="650" on="0"/>
        <pt x="432" y="650" on="0"/>
        <pt x="449" y="634" on="0"/>
        <pt x="449" y="617" on="0"/>
        <pt x="446" y="611" on="1"/>
        <pt x="434" y="587" on="1"/>
        <pt x="535" y="498" on="0"/>
        <pt x="535" y="318" on="1"/>
        <pt x="535" y="165" on="0"/>
        <pt x="385" y="-10" on="0"/>
        <pt x="275" y="-10" on="1"/>
        <pt x="215" y="-10" on="0"/>
        <pt x="161" y="18" on="1"/>
      </contour>
      <contour>
        <pt x="365" y="571" on="1"/>
        <pt x="323" y="600" on="0"/>
        <pt x="212" y="600" on="0"/>
        <pt x="118" y="518" on="0"/>
        <pt x="73" y="395" on="0"/>
        <pt x="73" y="332" on="1"/>
        <pt x="73" y="199" on="0"/>
        <pt x="142" y="109" on="1"/>
      </contour>
      <contour>
        <pt x="367" y="38" on="0"/>
        <pt x="476" y="208" on="0"/>
        <pt x="476" y="445" on="0"/>
        <pt x="407" y="531" on="1"/>
        <pt x="185" y="68" on="1"/>
        <pt x="226" y="38" on="0"/>
        <pt x="275" y="38" on="1"/>
      </contour>
      <contour>
        <pt x="222" y="668" on="1"/>
        <pt x="209" y="668" on="0"/>
        <pt x="209" y="681" on="1"/>
        <pt x="209" y="683" on="0"/>
        <pt x="211" y="687" on="1"/>
        <pt x="274" y="795" on="1"/>
        <pt x="286" y="817" on="0"/>
        <pt x="321" y="817" on="0"/>
        <pt x="340" y="800" on="0"/>
        <pt x="340" y="772" on="0"/>
        <pt x="324" y="757" on="1"/>
        <pt x="232" y="672" on="1"/>
        <pt x="228" y="668" on="0"/>
      </contour>
    </TTGlyph>
    <TTGlyph name="Otilde" xMin="15" yMin="-10" xMax="535" yMax="789">
      <contour>
        <pt x="535" y="165" on="0"/>
        <pt x="385" y="-10" on="0"/>
        <pt x="164" y="-10" on="0"/>
        <pt x="15" y="168" on="0"/>
        <pt x="15" y="476" on="0"/>
        <pt x="165" y="648" on="0"/>
        <pt x="386" y="648" on="0"/>
        <pt x="535" y="474" on="0"/>
      </contour>
      <contour>
        <pt x="431" y="512" on="0"/>
        <pt x="337" y="600" on="0"/>
        <pt x="212" y="600" on="0"/>
        <pt x="118" y="518" on="0"/>
        <pt x="73" y="395" on="0"/>
        <pt x="73" y="326" on="1"/>
        <pt x="73" y="220" on="0"/>
        <pt x="185" y="38" on="0"/>
        <pt x="367" y="38" on="0"/>
        <pt x="476" y="208" on="0"/>
        <pt x="476" y="316" on="1"/>
        <pt x="476" y="385" on="0"/>
      </contour>
      <contour>
        <pt x="144" y="679" on="0"/>
        <pt x="122" y="706" on="0"/>
        <pt x="122" y="756" on="0"/>
        <pt x="171" y="789" on="0"/>
        <pt x="225" y="789" on="0"/>
        <pt x="272" y="769" on="0"/>
        <pt x="294" y="751" on="0"/>
        <pt x="312" y="734" on="1"/>
        <pt x="339" y="705" on="0"/>
        <pt x="364" y="705" on="0"/>
        <pt x="381" y="720" on="0"/>
        <pt x="382" y="731" on="1"/>
        <pt x="367" y="741" on="0"/>
        <pt x="367" y="759" on="1"/>
        <pt x="367" y="783" on="0"/>
        <pt x="390" y="783" on="1"/>
        <pt x="404" y="783" on="0"/>
        <pt x="428" y="760" on="0"/>
        <pt x="428" y="707" on="0"/>
        <pt x="380" y="673" on="0"/>
        <pt x="325" y="673" on="0"/>
        <pt x="281" y="692" on="0"/>
        <pt x="262" y="710" on="0"/>
        <pt x="246" y="727" on="1"/>
        <pt x="218" y="759" on="0"/>
        <pt x="195" y="759" on="1"/>
        <pt x="186" y="759" on="0"/>
        <pt x="168" y="745" on="0"/>
        <pt x="167" y="734" on="1"/>
        <pt x="182" y="724" on="0"/>
        <pt x="182" y="679" on="0"/>
        <pt x="160" y="679" on="1"/>
      </contour>
    </TTGlyph>
    <TTGlyph name="P" xMin="25" yMin="0" xMax="457" yMax="638">
      <contour>
        <pt x="73" y="52" on="1"/>
        <pt x="73" y="585" on="1"/>
        <pt x="49" y="585" on="1"/>
        <pt x="25" y="585" on="0"/>
        <pt x="25" y="638" on="0"/>
        <pt x="49" y="638" on="1"/>
        <pt x="237" y="638" on="1"/>
        <pt x="332" y="638" on="0"/>
        <pt x="457" y="529" on="0"/>
        <pt x="457" y="354" on="0"/>
        <pt x="330" y="236" on="0"/>
        <pt x="223" y="236" on="1"/>
        <pt x="130" y="236" on="1"/>
        <pt x="130" y="52" on="1"/>
        <pt x="160" y="52" on="1"/>
        <pt x="184" y="52" on="0"/>
        <pt x="184" y="0" on="0"/>
        <pt x="160" y="0" on="1"/>
        <pt x="49" y="0" on="1"/>
        <pt x="25" y="0" on="0"/>
        <pt x="25" y="52" on="0"/>
        <pt x="49" y="52" on="1"/>
      </contour>
      <contour>
        <pt x="130" y="283" on="1"/>
        <pt x="239" y="283" on="1"/>
        <pt x="311" y="283" on="0"/>
        <pt x="401" y="375" on="0"/>
        <pt x="401" y="509" on="0"/>
        <pt x="307" y="593" on="0"/>
        <pt x="242" y="593" on="1"/>
        <pt x="209" y="593" on="1"/>
        <pt x="130" y="593" on="0"/>
        <pt x="130" y="580" on="1"/>
      </contour>
    </TTGlyph>
    <TTGlyph name="Q" xMin="15" yMin="-129" xMax="580" yMax="648">
      <contour>
        <pt x="505" y="-129" on="1"/>
        <pt x="434" y="-129" on="0"/>
        <pt x="385" y="19" on="1"/>
        <pt x="327" y="-10" on="0"/>
        <pt x="273" y="-10" on="1"/>
        <pt x="164" y="-10" on="0"/>
        <pt x="15" y="170" on="0"/>
        <pt x="15" y="476" on="0"/>
        <pt x="164" y="648" on="0"/>
        <pt x="386" y="648" on="0"/>
        <pt x="535" y="476" on="0"/>
        <pt x="535" y="324" on="1"/>
        <pt x="535" y="234" on="0"/>
        <pt x="481" y="94" on="0"/>
        <pt x="437" y="54" on="1"/>
        <pt x="453" y="3" on="1"/>
        <pt x="473" y="-64" on="0"/>
        <pt x="492" y="-81" on="0"/>
        <pt x="499" y="-82" on="1"/>
        <pt x="501" y="-62" on="0"/>
        <pt x="532" y="-27" on="0"/>
        <pt x="548" y="-27" on="1"/>
        <pt x="580" y="-27" on="0"/>
        <pt x="580" y="-61" on="1"/>
        <pt x="580" y="-89" on="0"/>
        <pt x="537" y="-129" on="0"/>
      </contour>
      <contour>
        <pt x="389" y="558" on="1"/>
        <pt x="342" y="600" on="0"/>
        <pt x="212" y="600" on="0"/>
        <pt x="164" y="557" on="1"/>
        <pt x="73" y="475" on="0"/>
        <pt x="73" y="325" on="1"/>
        <pt x="73" y="253" on="0"/>
        <pt x="117" y="124" on="0"/>
        <pt x="211" y="38" on="0"/>
        <pt x="322" y="38" on="0"/>
        <pt x="367" y="69" on="1"/>
        <pt x="360" y="103" on="0"/>
        <pt x="322" y="143" on="0"/>
        <pt x="303" y="143" on="1"/>
        <pt x="271" y="143" on="0"/>
        <pt x="255" y="90" on="0"/>
        <pt x="238" y="90" on="1"/>
        <pt x="228" y="90" on="0"/>
        <pt x="213" y="105" on="0"/>
        <pt x="213" y="118" on="1"/>
        <pt x="213" y="144" on="0"/>
        <pt x="265" y="188" on="0"/>
        <pt x="339" y="188" on="0"/>
        <pt x="400" y="145" on="0"/>
        <pt x="416" y="109" on="1"/>
        <pt x="477" y="185" on="0"/>
        <pt x="477" y="321" on="1"/>
        <pt x="477" y="479" on="0"/>
      </contour>
    </TTGlyph>
    <TTGlyph name="R" xMin="25" yMin="-10" xMax="475" yMax="638">
      <contour>
        <pt x="392" y="56" on="0"/>
        <pt x="424" y="96" on="0"/>
        <pt x="441" y="96" on="1"/>
        <pt x="475" y="96" on="0"/>
        <pt x="475" y="61" on="1"/>
        <pt x="475" y="33" on="0"/>
        <pt x="428" y="-10" on="0"/>
        <pt x="393" y="-10" on="1"/>
        <pt x="320" y="-10" on="0"/>
        <pt x="272" y="82" on="1"/>
        <pt x="252" y="121" on="0"/>
        <pt x="237" y="138" on="1"/>
        <pt x="211" y="166" on="0"/>
        <pt x="130" y="166" on="0"/>
        <pt x="130" y="159" on="1"/>
        <pt x="130" y="52" on="1"/>
        <pt x="157" y="52" on="1"/>
        <pt x="181" y="52" on="0"/>
        <pt x="181" y="0" on="0"/>
        <pt x="157" y="0" on="1"/>
        <pt x="49" y="0" on="1"/>
        <pt x="25" y="0" on="0"/>
        <pt x="25" y="52" on="0"/>
        <pt x="49" y="52" on="1"/>
        <pt x="73" y="52" on="1"/>
        <pt x="73" y="585" on="1"/>
        <pt x="49" y="585" on="1"/>
        <pt x="25" y="585" on="0"/>
        <pt x="25" y="638" on="0"/>
        <pt x="49" y="638" on="1"/>
        <pt x="152" y="638" on="1"/>
        <pt x="289" y="638" on="0"/>
        <pt x="459" y="518" on="0"/>
        <pt x="459" y="408" on="1"/>
        <pt x="459" y="315" on="0"/>
        <pt x="346" y="184" on="0"/>
        <pt x="256" y="177" on="1"/>
        <pt x="315" y="160" on="0"/>
        <pt x="336" y="100" on="1"/>
        <pt x="349" y="63" on="0"/>
        <pt x="370" y="34" on="0"/>
        <pt x="392" y="31" on="1"/>
      </contour>
      <contour>
        <pt x="297" y="215" on="0"/>
        <pt x="405" y="320" on="0"/>
        <pt x="405" y="496" on="0"/>
        <pt x="269" y="593" on="0"/>
        <pt x="173" y="593" on="1"/>
        <pt x="130" y="593" on="0"/>
        <pt x="130" y="580" on="1"/>
        <pt x="130" y="226" on="1"/>
        <pt x="130" y="215" on="0"/>
      </contour>
    </TTGlyph>
    <TTGlyph name="Racute" xMin="25" yMin="-10" xMax="475" yMax="817">
      <contour>
        <pt x="392" y="56" on="0"/>
        <pt x="424" y="96" on="0"/>
        <pt x="441" y="96" on="1"/>
        <pt x="475" y="96" on="0"/>
        <pt x="475" y="61" on="1"/>
        <pt x="475" y="33" on="0"/>
        <pt x="428" y="-10" on="0"/>
        <pt x="393" y="-10" on="1"/>
        <pt x="320" y="-10" on="0"/>
        <pt x="272" y="82" on="1"/>
        <pt x="252" y="121" on="0"/>
        <pt x="237" y="138" on="1"/>
        <pt x="211" y="166" on="0"/>
        <pt x="130" y="166" on="0"/>
        <pt x="130" y="159" on="1"/>
        <pt x="130" y="52" on="1"/>
        <pt x="157" y="52" on="1"/>
        <pt x="181" y="52" on="0"/>
        <pt x="181" y="0" on="0"/>
        <pt x="157" y="0" on="1"/>
        <pt x="49" y="0" on="1"/>
        <pt x="25" y="0" on="0"/>
        <pt x="25" y="52" on="0"/>
        <pt x="49" y="52" on="1"/>
        <pt x="73" y="52" on="1"/>
        <pt x="73" y="585" on="1"/>
        <pt x="49" y="585" on="1"/>
        <pt x="25" y="585" on="0"/>
        <pt x="25" y="638" on="0"/>
        <pt x="49" y="638" on="1"/>
        <pt x="152" y="638" on="1"/>
        <pt x="289" y="638" on="0"/>
        <pt x="459" y="518" on="0"/>
        <pt x="459" y="408" on="1"/>
        <pt x="459" y="315" on="0"/>
        <pt x="346" y="184" on="0"/>
        <pt x="256" y="177" on="1"/>
        <pt x="315" y="160" on="0"/>
        <pt x="336" y="100" on="1"/>
        <pt x="349" y="63" on="0"/>
        <pt x="370" y="34" on="0"/>
        <pt x="392" y="31" on="1"/>
      </contour>
      <contour>
        <pt x="297" y="215" on="0"/>
        <pt x="405" y="320" on="0"/>
        <pt x="405" y="496" on="0"/>
        <pt x="269" y="593" on="0"/>
        <pt x="173" y="593" on="1"/>
        <pt x="130" y="593" on="0"/>
        <pt x="130" y="580" on="1"/>
        <pt x="130" y="226" on="1"/>
        <pt x="130" y="215" on="0"/>
      </contour>
      <contour>
        <pt x="78" y="668" on="1"/>
        <pt x="65" y="668" on="0"/>
        <pt x="65" y="681" on="1"/>
        <pt x="65" y="683" on="0"/>
        <pt x="67" y="687" on="1"/>
        <pt x="130" y="795" on="1"/>
        <pt x="142" y="817" on="0"/>
        <pt x="177" y="817" on="0"/>
        <pt x="196" y="800" on="0"/>
        <pt x="196" y="772" on="0"/>
        <pt x="180" y="757" on="1"/>
        <pt x="88" y="672" on="1"/>
        <pt x="84" y="668" on="0"/>
      </contour>
    </TTGlyph>
    <TTGlyph name="Rcaron" xMin="25" yMin="-10" xMax="475" yMax="809">
      <contour>
        <pt x="392" y="56" on="0"/>
        <pt x="424" y="96" on="0"/>
        <pt x="441" y="96" on="1"/>
        <pt x="475" y="96" on="0"/>
        <pt x="475" y="61" on="1"/>
        <pt x="475" y="33" on="0"/>
        <pt x="428" y="-10" on="0"/>
        <pt x="393" y="-10" on="1"/>
        <pt x="320" y="-10" on="0"/>
        <pt x="272" y="82" on="1"/>
        <pt x="252" y="121" on="0"/>
        <pt x="237" y="138" on="1"/>
        <pt x="211" y="166" on="0"/>
        <pt x="130" y="166" on="0"/>
        <pt x="130" y="159" on="1"/>
        <pt x="130" y="52" on="1"/>
        <pt x="157" y="52" on="1"/>
        <pt x="181" y="52" on="0"/>
        <pt x="181" y="0" on="0"/>
        <pt x="157" y="0" on="1"/>
        <pt x="49" y="0" on="1"/>
        <pt x="25" y="0" on="0"/>
        <pt x="25" y="52" on="0"/>
        <pt x="49" y="52" on="1"/>
        <pt x="73" y="52" on="1"/>
        <pt x="73" y="585" on="1"/>
        <pt x="49" y="585" on="1"/>
        <pt x="25" y="585" on="0"/>
        <pt x="25" y="638" on="0"/>
        <pt x="49" y="638" on="1"/>
        <pt x="152" y="638" on="1"/>
        <pt x="289" y="638" on="0"/>
        <pt x="459" y="518" on="0"/>
        <pt x="459" y="408" on="1"/>
        <pt x="459" y="315" on="0"/>
        <pt x="346" y="184" on="0"/>
        <pt x="256" y="177" on="1"/>
        <pt x="315" y="160" on="0"/>
        <pt x="336" y="100" on="1"/>
        <pt x="349" y="63" on="0"/>
        <pt x="370" y="34" on="0"/>
        <pt x="392" y="31" on="1"/>
      </contour>
      <contour>
        <pt x="297" y="215" on="0"/>
        <pt x="405" y="320" on="0"/>
        <pt x="405" y="496" on="0"/>
        <pt x="269" y="593" on="0"/>
        <pt x="173" y="593" on="1"/>
        <pt x="130" y="593" on="0"/>
        <pt x="130" y="580" on="1"/>
        <pt x="130" y="226" on="1"/>
        <pt x="130" y="215" on="0"/>
      </contour>
      <contour>
        <pt x="43" y="769" on="1"/>
        <pt x="35" y="774" on="0"/>
        <pt x="35" y="796" on="0"/>
        <pt x="49" y="809" on="0"/>
        <pt x="70" y="809" on="0"/>
        <pt x="77" y="803" on="1"/>
        <pt x="165" y="738" on="1"/>
        <pt x="254" y="803" on="1"/>
        <pt x="263" y="809" on="0"/>
        <pt x="283" y="809" on="0"/>
        <pt x="297" y="797" on="0"/>
        <pt x="297" y="776" on="0"/>
        <pt x="288" y="769" on="1"/>
        <pt x="165" y="679" on="1"/>
      </contour>
    </TTGlyph>
    <TTGlyph name="Rcommaaccent" xMin="25" yMin="-200" xMax="475" yMax="638">
      <contour>
        <pt x="392" y="56" on="0"/>
        <pt x="424" y="96" on="0"/>
        <pt x="441" y="96" on="1"/>
        <pt x="475" y="96" on="0"/>
        <pt x="475" y="61" on="1"/>
        <pt x="475" y="33" on="0"/>
        <pt x="428" y="-10" on="0"/>
        <pt x="393" y="-10" on="1"/>
        <pt x="320" y="-10" on="0"/>
        <pt x="272" y="82" on="1"/>
        <pt x="252" y="121" on="0"/>
        <pt x="237" y="138" on="1"/>
        <pt x="211" y="166" on="0"/>
        <pt x="130" y="166" on="0"/>
        <pt x="130" y="159" on="1"/>
        <pt x="130" y="52" on="1"/>
        <pt x="157" y="52" on="1"/>
        <pt x="181" y="52" on="0"/>
        <pt x="181" y="0" on="0"/>
        <pt x="157" y="0" on="1"/>
        <pt x="49" y="0" on="1"/>
        <pt x="25" y="0" on="0"/>
        <pt x="25" y="52" on="0"/>
        <pt x="49" y="52" on="1"/>
        <pt x="73" y="52" on="1"/>
        <pt x="73" y="585" on="1"/>
        <pt x="49" y="585" on="1"/>
        <pt x="25" y="585" on="0"/>
        <pt x="25" y="638" on="0"/>
        <pt x="49" y="638" on="1"/>
        <pt x="152" y="638" on="1"/>
        <pt x="289" y="638" on="0"/>
        <pt x="459" y="518" on="0"/>
        <pt x="459" y="408" on="1"/>
        <pt x="459" y="315" on="0"/>
        <pt x="346" y="184" on="0"/>
        <pt x="256" y="177" on="1"/>
        <pt x="315" y="160" on="0"/>
        <pt x="336" y="100" on="1"/>
        <pt x="349" y="63" on="0"/>
        <pt x="370" y="34" on="0"/>
        <pt x="392" y="31" on="1"/>
      </contour>
      <contour>
        <pt x="297" y="215" on="0"/>
        <pt x="405" y="320" on="0"/>
        <pt x="405" y="496" on="0"/>
        <pt x="269" y="593" on="0"/>
        <pt x="173" y="593" on="1"/>
        <pt x="130" y="593" on="0"/>
        <pt x="130" y="580" on="1"/>
        <pt x="130" y="226" on="1"/>
        <pt x="130" y="215" on="0"/>
      </contour>
      <contour>
        <pt x="221" y="-133" on="0"/>
        <pt x="194" y="-108" on="0"/>
        <pt x="194" y="-71" on="0"/>
        <pt x="222" y="-41" on="0"/>
        <pt x="268" y="-41" on="0"/>
        <pt x="295" y="-81" on="0"/>
        <pt x="295" y="-138" on="0"/>
        <pt x="242" y="-200" on="0"/>
        <pt x="216" y="-200" on="1"/>
        <pt x="207" y="-200" on="0"/>
        <pt x="207" y="-194" on="0"/>
        <pt x="221" y="-181" on="0"/>
        <pt x="227" y="-174" on="0"/>
        <pt x="236" y="-162" on="0"/>
        <pt x="241" y="-149" on="0"/>
        <pt x="241" y="-137" on="0"/>
        <pt x="240" y="-134" on="1"/>
      </contour>
    </TTGlyph>
    <TTGlyph name="S" xMin="10" yMin="-11" xMax="393" yMax="649">
      <contour>
        <pt x="10" y="143" on="1"/>
        <pt x="10" y="177" on="0"/>
        <pt x="46" y="220" on="0"/>
        <pt x="83" y="220" on="0"/>
        <pt x="104" y="194" on="0"/>
        <pt x="104" y="176" on="1"/>
        <pt x="104" y="139" on="0"/>
        <pt x="77" y="117" on="1"/>
        <pt x="88" y="74" on="0"/>
        <pt x="157" y="33" on="0"/>
        <pt x="199" y="33" on="1"/>
        <pt x="261" y="33" on="0"/>
        <pt x="334" y="117" on="0"/>
        <pt x="334" y="169" on="1"/>
        <pt x="334" y="222" on="0"/>
        <pt x="294" y="260" on="1"/>
        <pt x="264" y="287" on="0"/>
        <pt x="217" y="318" on="1"/>
        <pt x="166" y="351" on="1"/>
        <pt x="111" y="386" on="0"/>
        <pt x="53" y="461" on="0"/>
        <pt x="53" y="572" on="0"/>
        <pt x="137" y="649" on="0"/>
        <pt x="252" y="649" on="0"/>
        <pt x="330" y="597" on="0"/>
        <pt x="330" y="560" on="1"/>
        <pt x="330" y="542" on="0"/>
        <pt x="309" y="521" on="0"/>
        <pt x="269" y="521" on="0"/>
        <pt x="232" y="555" on="0"/>
        <pt x="232" y="583" on="0"/>
        <pt x="235" y="592" on="1"/>
        <pt x="226" y="609" on="0"/>
        <pt x="160" y="609" on="0"/>
        <pt x="109" y="557" on="0"/>
        <pt x="109" y="525" on="1"/>
        <pt x="109" y="473" on="0"/>
        <pt x="203" y="411" on="1"/>
        <pt x="254" y="377" on="1"/>
        <pt x="287" y="354" on="0"/>
        <pt x="320" y="329" on="0"/>
        <pt x="345" y="303" on="1"/>
        <pt x="393" y="253" on="0"/>
        <pt x="393" y="89" on="0"/>
        <pt x="279" y="-11" on="0"/>
        <pt x="123" y="-11" on="0"/>
        <pt x="10" y="84" on="0"/>
      </contour>
    </TTGlyph>
    <TTGlyph name="Sacute" xMin="10" yMin="-11" xMax="393" yMax="817">
      <contour>
        <pt x="10" y="143" on="1"/>
        <pt x="10" y="177" on="0"/>
        <pt x="46" y="220" on="0"/>
        <pt x="83" y="220" on="0"/>
        <pt x="104" y="194" on="0"/>
        <pt x="104" y="176" on="1"/>
        <pt x="104" y="139" on="0"/>
        <pt x="77" y="117" on="1"/>
        <pt x="88" y="74" on="0"/>
        <pt x="157" y="33" on="0"/>
        <pt x="199" y="33" on="1"/>
        <pt x="261" y="33" on="0"/>
        <pt x="334" y="117" on="0"/>
        <pt x="334" y="169" on="1"/>
        <pt x="334" y="222" on="0"/>
        <pt x="294" y="260" on="1"/>
        <pt x="264" y="287" on="0"/>
        <pt x="217" y="318" on="1"/>
        <pt x="166" y="351" on="1"/>
        <pt x="111" y="386" on="0"/>
        <pt x="53" y="461" on="0"/>
        <pt x="53" y="572" on="0"/>
        <pt x="137" y="649" on="0"/>
        <pt x="252" y="649" on="0"/>
        <pt x="330" y="597" on="0"/>
        <pt x="330" y="560" on="1"/>
        <pt x="330" y="542" on="0"/>
        <pt x="309" y="521" on="0"/>
        <pt x="269" y="521" on="0"/>
        <pt x="232" y="555" on="0"/>
        <pt x="232" y="583" on="0"/>
        <pt x="235" y="592" on="1"/>
        <pt x="226" y="609" on="0"/>
        <pt x="160" y="609" on="0"/>
        <pt x="109" y="557" on="0"/>
        <pt x="109" y="525" on="1"/>
        <pt x="109" y="473" on="0"/>
        <pt x="203" y="411" on="1"/>
        <pt x="254" y="377" on="1"/>
        <pt x="287" y="354" on="0"/>
        <pt x="320" y="329" on="0"/>
        <pt x="345" y="303" on="1"/>
        <pt x="393" y="253" on="0"/>
        <pt x="393" y="89" on="0"/>
        <pt x="279" y="-11" on="0"/>
        <pt x="123" y="-11" on="0"/>
        <pt x="10" y="84" on="0"/>
      </contour>
      <contour>
        <pt x="155" y="668" on="1"/>
        <pt x="142" y="668" on="0"/>
        <pt x="142" y="681" on="1"/>
        <pt x="142" y="683" on="0"/>
        <pt x="144" y="687" on="1"/>
        <pt x="207" y="795" on="1"/>
        <pt x="219" y="817" on="0"/>
        <pt x="254" y="817" on="0"/>
        <pt x="273" y="800" on="0"/>
        <pt x="273" y="772" on="0"/>
        <pt x="257" y="757" on="1"/>
        <pt x="165" y="672" on="1"/>
        <pt x="161" y="668" on="0"/>
      </contour>
    </TTGlyph>
    <TTGlyph name="Scaron" xMin="10" yMin="-11" xMax="393" yMax="809">
      <contour>
        <pt x="10" y="143" on="1"/>
        <pt x="10" y="177" on="0"/>
        <pt x="46" y="220" on="0"/>
        <pt x="83" y="220" on="0"/>
        <pt x="104" y="194" on="0"/>
        <pt x="104" y="176" on="1"/>
        <pt x="104" y="139" on="0"/>
        <pt x="77" y="117" on="1"/>
        <pt x="88" y="74" on="0"/>
        <pt x="157" y="33" on="0"/>
        <pt x="199" y="33" on="1"/>
        <pt x="261" y="33" on="0"/>
        <pt x="334" y="117" on="0"/>
        <pt x="334" y="169" on="1"/>
        <pt x="334" y="222" on="0"/>
        <pt x="294" y="260" on="1"/>
        <pt x="264" y="287" on="0"/>
        <pt x="217" y="318" on="1"/>
        <pt x="166" y="351" on="1"/>
        <pt x="111" y="386" on="0"/>
        <pt x="53" y="461" on="0"/>
        <pt x="53" y="572" on="0"/>
        <pt x="137" y="649" on="0"/>
        <pt x="252" y="649" on="0"/>
        <pt x="330" y="597" on="0"/>
        <pt x="330" y="560" on="1"/>
        <pt x="330" y="542" on="0"/>
        <pt x="309" y="521" on="0"/>
        <pt x="269" y="521" on="0"/>
        <pt x="232" y="555" on="0"/>
        <pt x="232" y="583" on="0"/>
        <pt x="235" y="592" on="1"/>
        <pt x="226" y="609" on="0"/>
        <pt x="160" y="609" on="0"/>
        <pt x="109" y="557" on="0"/>
        <pt x="109" y="525" on="1"/>
        <pt x="109" y="473" on="0"/>
        <pt x="203" y="411" on="1"/>
        <pt x="254" y="377" on="1"/>
        <pt x="287" y="354" on="0"/>
        <pt x="320" y="329" on="0"/>
        <pt x="345" y="303" on="1"/>
        <pt x="393" y="253" on="0"/>
        <pt x="393" y="89" on="0"/>
        <pt x="279" y="-11" on="0"/>
        <pt x="123" y="-11" on="0"/>
        <pt x="10" y="84" on="0"/>
      </contour>
      <contour>
        <pt x="83" y="769" on="1"/>
        <pt x="75" y="774" on="0"/>
        <pt x="75" y="796" on="0"/>
        <pt x="89" y="809" on="0"/>
        <pt x="110" y="809" on="0"/>
        <pt x="117" y="803" on="1"/>
        <pt x="205" y="738" on="1"/>
        <pt x="294" y="803" on="1"/>
        <pt x="303" y="809" on="0"/>
        <pt x="323" y="809" on="0"/>
        <pt x="337" y="797" on="0"/>
        <pt x="337" y="776" on="0"/>
        <pt x="328" y="769" on="1"/>
        <pt x="205" y="679" on="1"/>
      </contour>
    </TTGlyph>
    <TTGlyph name="Scedilla" xMin="10" yMin="-200" xMax="393" yMax="649">
      <contour>
        <pt x="177" y="-70" on="1"/>
        <pt x="177" y="-10" on="1"/>
        <pt x="107" y="-3" on="0"/>
        <pt x="10" y="88" on="0"/>
        <pt x="10" y="143" on="1"/>
        <pt x="10" y="177" on="0"/>
        <pt x="46" y="220" on="0"/>
        <pt x="83" y="220" on="0"/>
        <pt x="104" y="194" on="0"/>
        <pt x="104" y="176" on="1"/>
        <pt x="104" y="139" on="0"/>
        <pt x="77" y="117" on="1"/>
        <pt x="88" y="74" on="0"/>
        <pt x="157" y="33" on="0"/>
        <pt x="199" y="33" on="1"/>
        <pt x="261" y="33" on="0"/>
        <pt x="334" y="117" on="0"/>
        <pt x="334" y="169" on="1"/>
        <pt x="334" y="222" on="0"/>
        <pt x="294" y="260" on="1"/>
        <pt x="264" y="287" on="0"/>
        <pt x="217" y="318" on="1"/>
        <pt x="166" y="351" on="1"/>
        <pt x="111" y="386" on="0"/>
        <pt x="53" y="461" on="0"/>
        <pt x="53" y="572" on="0"/>
        <pt x="137" y="649" on="0"/>
        <pt x="252" y="649" on="0"/>
        <pt x="330" y="597" on="0"/>
        <pt x="330" y="560" on="1"/>
        <pt x="330" y="542" on="0"/>
        <pt x="309" y="521" on="0"/>
        <pt x="269" y="521" on="0"/>
        <pt x="232" y="555" on="0"/>
        <pt x="232" y="583" on="0"/>
        <pt x="235" y="592" on="1"/>
        <pt x="226" y="609" on="0"/>
        <pt x="160" y="609" on="0"/>
        <pt x="109" y="557" on="0"/>
        <pt x="109" y="525" on="1"/>
        <pt x="109" y="473" on="0"/>
        <pt x="203" y="411" on="1"/>
        <pt x="254" y="377" on="1"/>
        <pt x="287" y="354" on="0"/>
        <pt x="320" y="329" on="0"/>
        <pt x="345" y="303" on="1"/>
        <pt x="393" y="253" on="0"/>
        <pt x="393" y="96" on="0"/>
        <pt x="296" y="-2" on="0"/>
        <pt x="223" y="-10" on="1"/>
        <pt x="223" y="-42" on="1"/>
        <pt x="254" y="-43" on="0"/>
        <pt x="300" y="-84" on="0"/>
        <pt x="300" y="-154" on="0"/>
        <pt x="255" y="-200" on="0"/>
        <pt x="195" y="-200" on="0"/>
        <pt x="159" y="-171" on="0"/>
        <pt x="159" y="-150" on="1"/>
        <pt x="159" y="-117" on="0"/>
        <pt x="187" y="-117" on="1"/>
        <pt x="211" y="-119" on="0"/>
        <pt x="211" y="-150" on="1"/>
        <pt x="211" y="-157" on="0"/>
        <pt x="205" y="-166" on="1"/>
        <pt x="210" y="-170" on="0"/>
        <pt x="221" y="-170" on="1"/>
        <pt x="260" y="-170" on="0"/>
        <pt x="260" y="-123" on="1"/>
        <pt x="260" y="-100" on="0"/>
        <pt x="237" y="-79" on="0"/>
        <pt x="224" y="-78" on="1"/>
        <pt x="217" y="-92" on="0"/>
        <pt x="201" y="-92" on="1"/>
        <pt x="177" y="-92" on="0"/>
      </contour>
    </TTGlyph>
    <TTGlyph name="Scircumflex" xMin="10" yMin="-11" xMax="393" yMax="806">
      <contour>
        <pt x="10" y="143" on="1"/>
        <pt x="10" y="177" on="0"/>
        <pt x="46" y="220" on="0"/>
        <pt x="83" y="220" on="0"/>
        <pt x="104" y="194" on="0"/>
        <pt x="104" y="176" on="1"/>
        <pt x="104" y="139" on="0"/>
        <pt x="77" y="117" on="1"/>
        <pt x="88" y="74" on="0"/>
        <pt x="157" y="33" on="0"/>
        <pt x="199" y="33" on="1"/>
        <pt x="261" y="33" on="0"/>
        <pt x="334" y="117" on="0"/>
        <pt x="334" y="169" on="1"/>
        <pt x="334" y="222" on="0"/>
        <pt x="294" y="260" on="1"/>
        <pt x="264" y="287" on="0"/>
        <pt x="217" y="318" on="1"/>
        <pt x="166" y="351" on="1"/>
        <pt x="111" y="386" on="0"/>
        <pt x="53" y="461" on="0"/>
        <pt x="53" y="572" on="0"/>
        <pt x="137" y="649" on="0"/>
        <pt x="252" y="649" on="0"/>
        <pt x="330" y="597" on="0"/>
        <pt x="330" y="560" on="1"/>
        <pt x="330" y="542" on="0"/>
        <pt x="309" y="521" on="0"/>
        <pt x="269" y="521" on="0"/>
        <pt x="232" y="555" on="0"/>
        <pt x="232" y="583" on="0"/>
        <pt x="235" y="592" on="1"/>
        <pt x="226" y="609" on="0"/>
        <pt x="160" y="609" on="0"/>
        <pt x="109" y="557" on="0"/>
        <pt x="109" y="525" on="1"/>
        <pt x="109" y="473" on="0"/>
        <pt x="203" y="411" on="1"/>
        <pt x="254" y="377" on="1"/>
        <pt x="287" y="354" on="0"/>
        <pt x="320" y="329" on="0"/>
        <pt x="345" y="303" on="1"/>
        <pt x="393" y="253" on="0"/>
        <pt x="393" y="89" on="0"/>
        <pt x="279" y="-11" on="0"/>
        <pt x="123" y="-11" on="0"/>
        <pt x="10" y="84" on="0"/>
      </contour>
      <contour>
        <pt x="322" y="716" on="1"/>
        <pt x="331" y="708" on="0"/>
        <pt x="331" y="688" on="0"/>
        <pt x="317" y="676" on="0"/>
        <pt x="297" y="676" on="0"/>
        <pt x="288" y="682" on="1"/>
        <pt x="199" y="747" on="1"/>
        <pt x="111" y="682" on="1"/>
        <pt x="103" y="676" on="0"/>
        <pt x="83" y="676" on="0"/>
        <pt x="69" y="689" on="0"/>
        <pt x="69" y="711" on="0"/>
        <pt x="77" y="716" on="1"/>
        <pt x="199" y="806" on="1"/>
      </contour>
    </TTGlyph>
    <TTGlyph name="Scommaaccent" xMin="10" yMin="-200" xMax="393" yMax="649">
      <contour>
        <pt x="10" y="143" on="1"/>
        <pt x="10" y="177" on="0"/>
        <pt x="46" y="220" on="0"/>
        <pt x="83" y="220" on="0"/>
        <pt x="104" y="194" on="0"/>
        <pt x="104" y="176" on="1"/>
        <pt x="104" y="139" on="0"/>
        <pt x="77" y="117" on="1"/>
        <pt x="88" y="74" on="0"/>
        <pt x="157" y="33" on="0"/>
        <pt x="199" y="33" on="1"/>
        <pt x="261" y="33" on="0"/>
        <pt x="334" y="117" on="0"/>
        <pt x="334" y="169" on="1"/>
        <pt x="334" y="222" on="0"/>
        <pt x="294" y="260" on="1"/>
        <pt x="264" y="287" on="0"/>
        <pt x="217" y="318" on="1"/>
        <pt x="166" y="351" on="1"/>
        <pt x="111" y="386" on="0"/>
        <pt x="53" y="461" on="0"/>
        <pt x="53" y="572" on="0"/>
        <pt x="137" y="649" on="0"/>
        <pt x="252" y="649" on="0"/>
        <pt x="330" y="597" on="0"/>
        <pt x="330" y="560" on="1"/>
        <pt x="330" y="542" on="0"/>
        <pt x="309" y="521" on="0"/>
        <pt x="269" y="521" on="0"/>
        <pt x="232" y="555" on="0"/>
        <pt x="232" y="583" on="0"/>
        <pt x="235" y="592" on="1"/>
        <pt x="226" y="609" on="0"/>
        <pt x="160" y="609" on="0"/>
        <pt x="109" y="557" on="0"/>
        <pt x="109" y="525" on="1"/>
        <pt x="109" y="473" on="0"/>
        <pt x="203" y="411" on="1"/>
        <pt x="254" y="377" on="1"/>
        <pt x="287" y="354" on="0"/>
        <pt x="320" y="329" on="0"/>
        <pt x="345" y="303" on="1"/>
        <pt x="393" y="253" on="0"/>
        <pt x="393" y="89" on="0"/>
        <pt x="279" y="-11" on="0"/>
        <pt x="123" y="-11" on="0"/>
        <pt x="10" y="84" on="0"/>
      </contour>
      <contour>
        <pt x="187" y="-133" on="0"/>
        <pt x="160" y="-108" on="0"/>
        <pt x="160" y="-71" on="0"/>
        <pt x="188" y="-41" on="0"/>
        <pt x="234" y="-41" on="0"/>
        <pt x="261" y="-81" on="0"/>
        <pt x="261" y="-138" on="0"/>
        <pt x="208" y="-200" on="0"/>
        <pt x="182" y="-200" on="1"/>
        <pt x="173" y="-200" on="0"/>
        <pt x="173" y="-194" on="0"/>
        <pt x="187" y="-181" on="0"/>
        <pt x="193" y="-174" on="0"/>
        <pt x="202" y="-162" on="0"/>
        <pt x="207" y="-149" on="0"/>
        <pt x="207" y="-137" on="0"/>
        <pt x="206" y="-134" on="1"/>
      </contour>
    </TTGlyph>
    <TTGlyph name="T" xMin="5" yMin="0" xMax="463" yMax="681">
      <contour>
        <pt x="72" y="681" on="0"/>
        <pt x="88" y="666" on="0"/>
        <pt x="88" y="650" on="0"/>
        <pt x="81" y="638" on="1"/>
        <pt x="402" y="638" on="1"/>
        <pt x="405" y="647" on="1"/>
        <pt x="414" y="675" on="0"/>
        <pt x="435" y="675" on="1"/>
        <pt x="446" y="675" on="0"/>
        <pt x="463" y="660" on="0"/>
        <pt x="463" y="640" on="0"/>
        <pt x="458" y="630" on="1"/>
        <pt x="421" y="561" on="1"/>
        <pt x="412" y="544" on="0"/>
        <pt x="402" y="544" on="1"/>
        <pt x="381" y="544" on="0"/>
        <pt x="381" y="563" on="1"/>
        <pt x="381" y="569" on="0"/>
        <pt x="383" y="573" on="1"/>
        <pt x="388" y="590" on="1"/>
        <pt x="252" y="590" on="1"/>
        <pt x="252" y="52" on="1"/>
        <pt x="278" y="52" on="1"/>
        <pt x="302" y="52" on="0"/>
        <pt x="302" y="0" on="0"/>
        <pt x="278" y="0" on="1"/>
        <pt x="170" y="0" on="1"/>
        <pt x="146" y="0" on="0"/>
        <pt x="146" y="52" on="0"/>
        <pt x="170" y="52" on="1"/>
        <pt x="195" y="52" on="1"/>
        <pt x="195" y="590" on="1"/>
        <pt x="60" y="590" on="1"/>
        <pt x="44" y="564" on="1"/>
        <pt x="36" y="552" on="0"/>
        <pt x="16" y="552" on="0"/>
        <pt x="5" y="563" on="0"/>
        <pt x="5" y="578" on="0"/>
        <pt x="8" y="585" on="1"/>
        <pt x="32" y="656" on="1"/>
        <pt x="40" y="681" on="0"/>
        <pt x="60" y="681" on="1"/>
      </contour>
    </TTGlyph>
    <TTGlyph name="Tbar" xMin="5" yMin="0" xMax="463" yMax="681">
      <contour>
        <pt x="72" y="681" on="0"/>
        <pt x="88" y="666" on="0"/>
        <pt x="88" y="650" on="0"/>
        <pt x="81" y="638" on="1"/>
        <pt x="402" y="638" on="1"/>
        <pt x="405" y="647" on="1"/>
        <pt x="414" y="675" on="0"/>
        <pt x="435" y="675" on="1"/>
        <pt x="446" y="675" on="0"/>
        <pt x="463" y="660" on="0"/>
        <pt x="463" y="640" on="0"/>
        <pt x="458" y="630" on="1"/>
        <pt x="421" y="561" on="1"/>
        <pt x="412" y="544" on="0"/>
        <pt x="402" y="544" on="1"/>
        <pt x="381" y="544" on="0"/>
        <pt x="381" y="563" on="1"/>
        <pt x="381" y="569" on="0"/>
        <pt x="383" y="573" on="1"/>
        <pt x="388" y="590" on="1"/>
        <pt x="252" y="590" on="1"/>
        <pt x="252" y="480" on="1"/>
        <pt x="311" y="480" on="1"/>
        <pt x="334" y="480" on="0"/>
        <pt x="334" y="431" on="0"/>
        <pt x="311" y="431" on="1"/>
        <pt x="252" y="431" on="1"/>
        <pt x="252" y="52" on="1"/>
        <pt x="278" y="52" on="1"/>
        <pt x="302" y="52" on="0"/>
        <pt x="302" y="0" on="0"/>
        <pt x="278" y="0" on="1"/>
        <pt x="170" y="0" on="1"/>
        <pt x="146" y="0" on="0"/>
        <pt x="146" y="52" on="0"/>
        <pt x="170" y="52" on="1"/>
        <pt x="195" y="52" on="1"/>
        <pt x="195" y="431" on="1"/>
        <pt x="137" y="431" on="1"/>
        <pt x="115" y="431" on="0"/>
        <pt x="115" y="480" on="0"/>
        <pt x="137" y="480" on="1"/>
        <pt x="195" y="480" on="1"/>
        <pt x="195" y="590" on="1"/>
        <pt x="60" y="590" on="1"/>
        <pt x="44" y="564" on="1"/>
        <pt x="36" y="552" on="0"/>
        <pt x="16" y="552" on="0"/>
        <pt x="5" y="563" on="0"/>
        <pt x="5" y="578" on="0"/>
        <pt x="8" y="585" on="1"/>
        <pt x="32" y="656" on="1"/>
        <pt x="40" y="681" on="0"/>
        <pt x="60" y="681" on="1"/>
      </contour>
    </TTGlyph>
    <TTGlyph name="Tcaron" xMin="5" yMin="0" xMax="463" yMax="809">
      <contour>
        <pt x="72" y="681" on="0"/>
        <pt x="88" y="666" on="0"/>
        <pt x="88" y="650" on="0"/>
        <pt x="81" y="638" on="1"/>
        <pt x="402" y="638" on="1"/>
        <pt x="405" y="647" on="1"/>
        <pt x="414" y="675" on="0"/>
        <pt x="435" y="675" on="1"/>
        <pt x="446" y="675" on="0"/>
        <pt x="463" y="660" on="0"/>
        <pt x="463" y="640" on="0"/>
        <pt x="458" y="630" on="1"/>
        <pt x="421" y="561" on="1"/>
        <pt x="412" y="544" on="0"/>
        <pt x="402" y="544" on="1"/>
        <pt x="381" y="544" on="0"/>
        <pt x="381" y="563" on="1"/>
        <pt x="381" y="569" on="0"/>
        <pt x="383" y="573" on="1"/>
        <pt x="388" y="590" on="1"/>
        <pt x="252" y="590" on="1"/>
        <pt x="252" y="52" on="1"/>
        <pt x="278" y="52" on="1"/>
        <pt x="302" y="52" on="0"/>
        <pt x="302" y="0" on="0"/>
        <pt x="278" y="0" on="1"/>
        <pt x="170" y="0" on="1"/>
        <pt x="146" y="0" on="0"/>
        <pt x="146" y="52" on="0"/>
        <pt x="170" y="52" on="1"/>
        <pt x="195" y="52" on="1"/>
        <pt x="195" y="590" on="1"/>
        <pt x="60" y="590" on="1"/>
        <pt x="44" y="564" on="1"/>
        <pt x="36" y="552" on="0"/>
        <pt x="16" y="552" on="0"/>
        <pt x="5" y="563" on="0"/>
        <pt x="5" y="578" on="0"/>
        <pt x="8" y="585" on="1"/>
        <pt x="32" y="656" on="1"/>
        <pt x="40" y="681" on="0"/>
        <pt x="60" y="681" on="1"/>
      </contour>
      <contour>
        <pt x="111" y="769" on="1"/>
        <pt x="103" y="774" on="0"/>
        <pt x="103" y="796" on="0"/>
        <pt x="117" y="809" on="0"/>
        <pt x="138" y="809" on="0"/>
        <pt x="145" y="803" on="1"/>
        <pt x="233" y="738" on="1"/>
        <pt x="322" y="803" on="1"/>
        <pt x="331" y="809" on="0"/>
        <pt x="351" y="809" on="0"/>
        <pt x="365" y="797" on="0"/>
        <pt x="365" y="776" on="0"/>
        <pt x="356" y="769" on="1"/>
        <pt x="233" y="679" on="1"/>
      </contour>
    </TTGlyph>
    <TTGlyph name="Tcommaaccent" xMin="5" yMin="-200" xMax="463" yMax="681">
      <contour>
        <pt x="72" y="681" on="0"/>
        <pt x="88" y="666" on="0"/>
        <pt x="88" y="650" on="0"/>
        <pt x="81" y="638" on="1"/>
        <pt x="402" y="638" on="1"/>
        <pt x="405" y="647" on="1"/>
        <pt x="414" y="675" on="0"/>
        <pt x="435" y="675" on="1"/>
        <pt x="446" y="675" on="0"/>
        <pt x="463" y="660" on="0"/>
        <pt x="463" y="640" on="0"/>
        <pt x="458" y="630" on="1"/>
        <pt x="421" y="561" on="1"/>
        <pt x="412" y="544" on="0"/>
        <pt x="402" y="544" on="1"/>
        <pt x="381" y="544" on="0"/>
        <pt x="381" y="563" on="1"/>
        <pt x="381" y="569" on="0"/>
        <pt x="383" y="573" on="1"/>
        <pt x="388" y="590" on="1"/>
        <pt x="252" y="590" on="1"/>
        <pt x="252" y="52" on="1"/>
        <pt x="278" y="52" on="1"/>
        <pt x="302" y="52" on="0"/>
        <pt x="302" y="0" on="0"/>
        <pt x="278" y="0" on="1"/>
        <pt x="170" y="0" on="1"/>
        <pt x="146" y="0" on="0"/>
        <pt x="146" y="52" on="0"/>
        <pt x="170" y="52" on="1"/>
        <pt x="195" y="52" on="1"/>
        <pt x="195" y="590" on="1"/>
        <pt x="60" y="590" on="1"/>
        <pt x="44" y="564" on="1"/>
        <pt x="36" y="552" on="0"/>
        <pt x="16" y="552" on="0"/>
        <pt x="5" y="563" on="0"/>
        <pt x="5" y="578" on="0"/>
        <pt x="8" y="585" on="1"/>
        <pt x="32" y="656" on="1"/>
        <pt x="40" y="681" on="0"/>
        <pt x="60" y="681" on="1"/>
      </contour>
      <contour>
        <pt x="210" y="-133" on="0"/>
        <pt x="183" y="-108" on="0"/>
        <pt x="183" y="-71" on="0"/>
        <pt x="211" y="-41" on="0"/>
        <pt x="257" y="-41" on="0"/>
        <pt x="284" y="-81" on="0"/>
        <pt x="284" y="-138" on="0"/>
        <pt x="231" y="-200" on="0"/>
        <pt x="205" y="-200" on="1"/>
        <pt x="196" y="-200" on="0"/>
        <pt x="196" y="-194" on="0"/>
        <pt x="210" y="-181" on="0"/>
        <pt x="216" y="-174" on="0"/>
        <pt x="225" y="-162" on="0"/>
        <pt x="230" y="-149" on="0"/>
        <pt x="230" y="-137" on="0"/>
        <pt x="229" y="-134" on="1"/>
      </contour>
    </TTGlyph>
    <TTGlyph name="Thorn" xMin="25" yMin="0" xMax="443" yMax="638">
      <contour>
        <pt x="74" y="52" on="1"/>
        <pt x="74" y="586" on="1"/>
        <pt x="48" y="586" on="1"/>
        <pt x="25" y="586" on="0"/>
        <pt x="25" y="638" on="0"/>
        <pt x="48" y="638" on="1"/>
        <pt x="112" y="638" on="1"/>
        <pt x="123" y="638" on="0"/>
        <pt x="130" y="631" on="0"/>
        <pt x="130" y="620" on="1"/>
        <pt x="130" y="523" on="1"/>
        <pt x="233" y="523" on="1"/>
        <pt x="324" y="523" on="0"/>
        <pt x="442" y="420" on="0"/>
        <pt x="443" y="337" on="1"/>
        <pt x="443" y="332" on="1"/>
        <pt x="443" y="248" on="0"/>
        <pt x="324" y="144" on="0"/>
        <pt x="233" y="144" on="1"/>
        <pt x="130" y="144" on="1"/>
        <pt x="130" y="52" on="1"/>
        <pt x="165" y="52" on="1"/>
        <pt x="189" y="52" on="0"/>
        <pt x="189" y="0" on="0"/>
        <pt x="165" y="0" on="1"/>
        <pt x="48" y="0" on="1"/>
        <pt x="25" y="0" on="0"/>
        <pt x="25" y="52" on="0"/>
        <pt x="48" y="52" on="1"/>
      </contour>
      <contour>
        <pt x="299" y="193" on="0"/>
        <pt x="388" y="269" on="0"/>
        <pt x="388" y="400" on="0"/>
        <pt x="299" y="476" on="0"/>
        <pt x="235" y="476" on="1"/>
        <pt x="206" y="476" on="1"/>
        <pt x="131" y="476" on="0"/>
        <pt x="131" y="461" on="1"/>
        <pt x="131" y="207" on="1"/>
        <pt x="131" y="193" on="0"/>
        <pt x="206" y="193" on="1"/>
        <pt x="235" y="193" on="1"/>
      </contour>
    </TTGlyph>
    <TTGlyph name="U" xMin="20" yMin="-10" xMax="543" yMax="638">
      <contour>
        <pt x="520" y="638" on="1"/>
        <pt x="543" y="638" on="0"/>
        <pt x="543" y="585" on="0"/>
        <pt x="520" y="585" on="1"/>
        <pt x="498" y="585" on="1"/>
        <pt x="498" y="217" on="1"/>
        <pt x="498" y="118" on="0"/>
        <pt x="379" y="-10" on="0"/>
        <pt x="193" y="-10" on="0"/>
        <pt x="65" y="110" on="0"/>
        <pt x="65" y="207" on="1"/>
        <pt x="65" y="585" on="1"/>
        <pt x="43" y="585" on="1"/>
        <pt x="20" y="585" on="0"/>
        <pt x="20" y="638" on="0"/>
        <pt x="43" y="638" on="1"/>
        <pt x="144" y="638" on="1"/>
        <pt x="169" y="638" on="0"/>
        <pt x="169" y="585" on="0"/>
        <pt x="144" y="585" on="1"/>
        <pt x="123" y="585" on="1"/>
        <pt x="123" y="223" on="1"/>
        <pt x="123" y="139" on="0"/>
        <pt x="214" y="40" on="0"/>
        <pt x="365" y="40" on="0"/>
        <pt x="447" y="147" on="0"/>
        <pt x="447" y="224" on="1"/>
        <pt x="447" y="585" on="1"/>
        <pt x="425" y="585" on="1"/>
        <pt x="402" y="585" on="0"/>
        <pt x="402" y="638" on="0"/>
        <pt x="425" y="638" on="1"/>
      </contour>
    </TTGlyph>
    <TTGlyph name="Uacute" xMin="20" yMin="-10" xMax="543" yMax="817">
      <contour>
        <pt x="520" y="638" on="1"/>
        <pt x="543" y="638" on="0"/>
        <pt x="543" y="585" on="0"/>
        <pt x="520" y="585" on="1"/>
        <pt x="498" y="585" on="1"/>
        <pt x="498" y="217" on="1"/>
        <pt x="498" y="118" on="0"/>
        <pt x="379" y="-10" on="0"/>
        <pt x="193" y="-10" on="0"/>
        <pt x="65" y="110" on="0"/>
        <pt x="65" y="207" on="1"/>
        <pt x="65" y="585" on="1"/>
        <pt x="43" y="585" on="1"/>
        <pt x="20" y="585" on="0"/>
        <pt x="20" y="638" on="0"/>
        <pt x="43" y="638" on="1"/>
        <pt x="144" y="638" on="1"/>
        <pt x="169" y="638" on="0"/>
        <pt x="169" y="585" on="0"/>
        <pt x="144" y="585" on="1"/>
        <pt x="123" y="585" on="1"/>
        <pt x="123" y="223" on="1"/>
        <pt x="123" y="139" on="0"/>
        <pt x="214" y="40" on="0"/>
        <pt x="365" y="40" on="0"/>
        <pt x="447" y="147" on="0"/>
        <pt x="447" y="224" on="1"/>
        <pt x="447" y="585" on="1"/>
        <pt x="425" y="585" on="1"/>
        <pt x="402" y="585" on="0"/>
        <pt x="402" y="638" on="0"/>
        <pt x="425" y="638" on="1"/>
      </contour>
      <contour>
        <pt x="239" y="668" on="1"/>
        <pt x="226" y="668" on="0"/>
        <pt x="226" y="681" on="1"/>
        <pt x="226" y="683" on="0"/>
        <pt x="228" y="687" on="1"/>
        <pt x="291" y="795" on="1"/>
        <pt x="303" y="817" on="0"/>
        <pt x="338" y="817" on="0"/>
        <pt x="357" y="800" on="0"/>
        <pt x="357" y="772" on="0"/>
        <pt x="341" y="757" on="1"/>
        <pt x="249" y="672" on="1"/>
        <pt x="245" y="668" on="0"/>
      </contour>
    </TTGlyph>
    <TTGlyph name="Ubreve" xMin="20" yMin="-10" xMax="543" yMax="816">
      <contour>
        <pt x="520" y="638" on="1"/>
        <pt x="543" y="638" on="0"/>
        <pt x="543" y="585" on="0"/>
        <pt x="520" y="585" on="1"/>
        <pt x="498" y="585" on="1"/>
        <pt x="498" y="217" on="1"/>
        <pt x="498" y="118" on="0"/>
        <pt x="379" y="-10" on="0"/>
        <pt x="193" y="-10" on="0"/>
        <pt x="65" y="110" on="0"/>
        <pt x="65" y="207" on="1"/>
        <pt x="65" y="585" on="1"/>
        <pt x="43" y="585" on="1"/>
        <pt x="20" y="585" on="0"/>
        <pt x="20" y="638" on="0"/>
        <pt x="43" y="638" on="1"/>
        <pt x="144" y="638" on="1"/>
        <pt x="169" y="638" on="0"/>
        <pt x="169" y="585" on="0"/>
        <pt x="144" y="585" on="1"/>
        <pt x="123" y="585" on="1"/>
        <pt x="123" y="223" on="1"/>
        <pt x="123" y="139" on="0"/>
        <pt x="214" y="40" on="0"/>
        <pt x="365" y="40" on="0"/>
        <pt x="447" y="147" on="0"/>
        <pt x="447" y="224" on="1"/>
        <pt x="447" y="585" on="1"/>
        <pt x="425" y="585" on="1"/>
        <pt x="402" y="585" on="0"/>
        <pt x="402" y="638" on="0"/>
        <pt x="425" y="638" on="1"/>
      </contour>
      <contour>
        <pt x="419" y="727" on="0"/>
        <pt x="347" y="672" on="0"/>
        <pt x="216" y="672" on="0"/>
        <pt x="144" y="727" on="0"/>
        <pt x="144" y="769" on="1"/>
        <pt x="144" y="793" on="0"/>
        <pt x="166" y="816" on="0"/>
        <pt x="179" y="816" on="1"/>
        <pt x="204" y="816" on="0"/>
        <pt x="204" y="788" on="1"/>
        <pt x="204" y="782" on="0"/>
        <pt x="192" y="762" on="0"/>
        <pt x="184" y="758" on="1"/>
        <pt x="188" y="718" on="0"/>
        <pt x="375" y="718" on="0"/>
        <pt x="379" y="758" on="1"/>
        <pt x="371" y="762" on="0"/>
        <pt x="359" y="782" on="0"/>
        <pt x="359" y="788" on="1"/>
        <pt x="359" y="816" on="0"/>
        <pt x="384" y="816" on="1"/>
        <pt x="397" y="816" on="0"/>
        <pt x="419" y="793" on="0"/>
        <pt x="419" y="769" on="1"/>
      </contour>
    </TTGlyph>
</ttFont>
